G04 (created by PCBNEW (2013-may-18)-stable) date Sun 16 Aug 2015 06:42:24 PM CST*
%MOIN*%
G04 Gerber Fmt 3.4, Leading zero omitted, Abs format*
%FSLAX34Y34*%
G01*
G70*
G90*
G04 APERTURE LIST*
%ADD10C,0.00590551*%
%ADD11R,0.0511811X0.0511811*%
%ADD12C,0.0511811*%
%ADD13C,0.023622*%
%ADD14C,0.006*%
%ADD15C,0.01*%
G04 APERTURE END LIST*
G54D10*
G54D11*
X88976Y-61811D03*
G54D12*
X88976Y-62598D03*
X88976Y-63385D03*
X88976Y-64173D03*
G54D11*
X93700Y-61811D03*
G54D12*
X93700Y-62598D03*
X93700Y-63385D03*
X93700Y-64173D03*
G54D11*
X84251Y-61811D03*
G54D12*
X84251Y-62598D03*
X84251Y-63385D03*
X84251Y-64173D03*
G54D11*
X79527Y-61811D03*
G54D12*
X79527Y-62598D03*
X79527Y-63385D03*
X79527Y-64173D03*
G54D11*
X90157Y-58267D03*
G54D12*
X90157Y-57480D03*
X89370Y-58267D03*
X89370Y-57480D03*
X88582Y-58267D03*
X88582Y-57480D03*
X87795Y-58267D03*
X87795Y-57480D03*
X87007Y-58267D03*
X87007Y-57480D03*
X86220Y-58267D03*
X86220Y-57480D03*
X85433Y-58267D03*
X85433Y-57480D03*
X84645Y-58267D03*
X84645Y-57480D03*
X83858Y-58267D03*
X83858Y-57480D03*
X83070Y-58267D03*
X83070Y-57480D03*
G54D13*
X91732Y-64960D03*
X91732Y-62795D03*
X91732Y-63779D03*
X86811Y-65748D03*
X82283Y-65118D03*
X86181Y-61102D03*
X82440Y-61811D03*
G54D14*
X86220Y-57480D02*
X86220Y-57677D01*
X85196Y-64173D02*
X84251Y-64173D01*
X86614Y-62755D02*
X85196Y-64173D01*
X86614Y-58070D02*
X86614Y-62755D01*
X86220Y-57677D02*
X86614Y-58070D01*
X85433Y-57480D02*
X85433Y-57519D01*
X85826Y-61811D02*
X84251Y-63385D01*
X85826Y-57913D02*
X85826Y-61811D01*
X85433Y-57519D02*
X85826Y-57913D01*
X85433Y-58267D02*
X85433Y-58740D01*
X81732Y-64173D02*
X79527Y-64173D01*
X82992Y-62913D02*
X81732Y-64173D01*
X82992Y-61181D02*
X82992Y-62913D01*
X85433Y-58740D02*
X82992Y-61181D01*
X84645Y-58267D02*
X79527Y-63385D01*
X88582Y-57480D02*
X88976Y-57874D01*
X89488Y-63661D02*
X88976Y-64173D01*
X89488Y-61181D02*
X89488Y-63661D01*
X88976Y-60669D02*
X89488Y-61181D01*
X88976Y-57874D02*
X88976Y-60669D01*
X87795Y-57480D02*
X87795Y-57637D01*
X88188Y-62598D02*
X88976Y-63385D01*
X88188Y-58031D02*
X88188Y-62598D01*
X87795Y-57637D02*
X88188Y-58031D01*
G54D15*
X86811Y-65748D02*
X82913Y-65748D01*
X91732Y-64960D02*
X91732Y-65039D01*
X91732Y-63779D02*
X91732Y-62795D01*
X92716Y-61811D02*
X91732Y-62795D01*
X93700Y-61811D02*
X92716Y-61811D01*
X91732Y-64960D02*
X91732Y-63779D01*
X91023Y-65748D02*
X86811Y-65748D01*
X91732Y-65039D02*
X91023Y-65748D01*
X82913Y-65748D02*
X82283Y-65118D01*
X89370Y-57480D02*
X89370Y-57362D01*
X83582Y-56968D02*
X83070Y-57480D01*
X88976Y-56968D02*
X83582Y-56968D01*
X89370Y-57362D02*
X88976Y-56968D01*
G54D10*
G36*
X85113Y-58663D02*
X82794Y-60983D01*
X82733Y-61073D01*
X82712Y-61181D01*
X82712Y-62797D01*
X81616Y-63893D01*
X79959Y-63893D01*
X79956Y-63887D01*
X79849Y-63779D01*
X79956Y-63672D01*
X80033Y-63486D01*
X80033Y-63285D01*
X80030Y-63278D01*
X84538Y-58770D01*
X84544Y-58773D01*
X84745Y-58773D01*
X84931Y-58696D01*
X85039Y-58589D01*
X85113Y-58663D01*
X85113Y-58663D01*
G37*
G54D15*
X85113Y-58663D02*
X82794Y-60983D01*
X82733Y-61073D01*
X82712Y-61181D01*
X82712Y-62797D01*
X81616Y-63893D01*
X79959Y-63893D01*
X79956Y-63887D01*
X79849Y-63779D01*
X79956Y-63672D01*
X80033Y-63486D01*
X80033Y-63285D01*
X80030Y-63278D01*
X84538Y-58770D01*
X84544Y-58773D01*
X84745Y-58773D01*
X84931Y-58696D01*
X85039Y-58589D01*
X85113Y-58663D01*
G54D10*
G36*
X86334Y-62639D02*
X85080Y-63893D01*
X84683Y-63893D01*
X84681Y-63887D01*
X84573Y-63779D01*
X84680Y-63672D01*
X84757Y-63486D01*
X84757Y-63285D01*
X84755Y-63278D01*
X86024Y-62009D01*
X86024Y-62009D01*
X86085Y-61918D01*
X86085Y-61918D01*
X86088Y-61900D01*
X86106Y-61811D01*
X86106Y-61811D01*
X86106Y-58768D01*
X86119Y-58773D01*
X86320Y-58773D01*
X86334Y-58768D01*
X86334Y-62639D01*
X86334Y-62639D01*
G37*
G54D15*
X86334Y-62639D02*
X85080Y-63893D01*
X84683Y-63893D01*
X84681Y-63887D01*
X84573Y-63779D01*
X84680Y-63672D01*
X84757Y-63486D01*
X84757Y-63285D01*
X84755Y-63278D01*
X86024Y-62009D01*
X86024Y-62009D01*
X86085Y-61918D01*
X86085Y-61918D01*
X86088Y-61900D01*
X86106Y-61811D01*
X86106Y-61811D01*
X86106Y-58768D01*
X86119Y-58773D01*
X86320Y-58773D01*
X86334Y-58768D01*
X86334Y-62639D01*
G54D10*
G36*
X89208Y-61305D02*
X89182Y-61305D01*
X89088Y-61305D01*
X89026Y-61367D01*
X89026Y-61761D01*
X89034Y-61761D01*
X89034Y-61861D01*
X89026Y-61861D01*
X89026Y-61868D01*
X88926Y-61868D01*
X88926Y-61861D01*
X88926Y-61761D01*
X88926Y-61367D01*
X88863Y-61305D01*
X88769Y-61305D01*
X88670Y-61305D01*
X88578Y-61343D01*
X88508Y-61413D01*
X88470Y-61505D01*
X88470Y-61698D01*
X88532Y-61761D01*
X88926Y-61761D01*
X88926Y-61861D01*
X88532Y-61861D01*
X88470Y-61923D01*
X88470Y-62116D01*
X88508Y-62208D01*
X88578Y-62278D01*
X88579Y-62279D01*
X88547Y-62311D01*
X88474Y-62487D01*
X88468Y-62482D01*
X88468Y-58768D01*
X88481Y-58773D01*
X88682Y-58773D01*
X88696Y-58768D01*
X88696Y-60669D01*
X88717Y-60776D01*
X88778Y-60867D01*
X89208Y-61297D01*
X89208Y-61305D01*
X89208Y-61305D01*
G37*
G54D15*
X89208Y-61305D02*
X89182Y-61305D01*
X89088Y-61305D01*
X89026Y-61367D01*
X89026Y-61761D01*
X89034Y-61761D01*
X89034Y-61861D01*
X89026Y-61861D01*
X89026Y-61868D01*
X88926Y-61868D01*
X88926Y-61861D01*
X88926Y-61761D01*
X88926Y-61367D01*
X88863Y-61305D01*
X88769Y-61305D01*
X88670Y-61305D01*
X88578Y-61343D01*
X88508Y-61413D01*
X88470Y-61505D01*
X88470Y-61698D01*
X88532Y-61761D01*
X88926Y-61761D01*
X88926Y-61861D01*
X88532Y-61861D01*
X88470Y-61923D01*
X88470Y-62116D01*
X88508Y-62208D01*
X88578Y-62278D01*
X88579Y-62279D01*
X88547Y-62311D01*
X88474Y-62487D01*
X88468Y-62482D01*
X88468Y-58768D01*
X88481Y-58773D01*
X88682Y-58773D01*
X88696Y-58768D01*
X88696Y-60669D01*
X88717Y-60776D01*
X88778Y-60867D01*
X89208Y-61297D01*
X89208Y-61305D01*
G54D10*
G36*
X96187Y-66587D02*
X96178Y-66629D01*
X96170Y-66642D01*
X96156Y-66651D01*
X96115Y-66659D01*
X94206Y-66659D01*
X94206Y-64073D01*
X94129Y-63887D01*
X94022Y-63779D01*
X94129Y-63672D01*
X94206Y-63486D01*
X94206Y-63285D01*
X94129Y-63099D01*
X94022Y-62992D01*
X94129Y-62885D01*
X94206Y-62699D01*
X94206Y-62498D01*
X94129Y-62312D01*
X94097Y-62279D01*
X94098Y-62278D01*
X94168Y-62208D01*
X94206Y-62116D01*
X94206Y-61505D01*
X94168Y-61413D01*
X94098Y-61343D01*
X94006Y-61305D01*
X93907Y-61305D01*
X93813Y-61305D01*
X93750Y-61367D01*
X93750Y-61761D01*
X94144Y-61761D01*
X94206Y-61698D01*
X94206Y-61505D01*
X94206Y-62116D01*
X94206Y-61923D01*
X94144Y-61861D01*
X93750Y-61861D01*
X93750Y-61868D01*
X93650Y-61868D01*
X93650Y-61861D01*
X93650Y-61761D01*
X93650Y-61367D01*
X93588Y-61305D01*
X93494Y-61305D01*
X93394Y-61305D01*
X93303Y-61343D01*
X93232Y-61413D01*
X93194Y-61505D01*
X93194Y-61698D01*
X93257Y-61761D01*
X93650Y-61761D01*
X93650Y-61861D01*
X93257Y-61861D01*
X93194Y-61923D01*
X93194Y-62116D01*
X93232Y-62208D01*
X93303Y-62278D01*
X93304Y-62279D01*
X93272Y-62311D01*
X93194Y-62497D01*
X93194Y-62698D01*
X93271Y-62884D01*
X93379Y-62992D01*
X93272Y-63098D01*
X93194Y-63284D01*
X93194Y-63486D01*
X93271Y-63672D01*
X93379Y-63779D01*
X93272Y-63886D01*
X93194Y-64072D01*
X93194Y-64273D01*
X93271Y-64459D01*
X93413Y-64601D01*
X93599Y-64679D01*
X93800Y-64679D01*
X93986Y-64602D01*
X94129Y-64460D01*
X94206Y-64274D01*
X94206Y-64073D01*
X94206Y-66659D01*
X90663Y-66659D01*
X90663Y-57380D01*
X90586Y-57194D01*
X90444Y-57051D01*
X90258Y-56974D01*
X90057Y-56974D01*
X89871Y-57051D01*
X89728Y-57193D01*
X89727Y-57197D01*
X89724Y-57197D01*
X89653Y-57267D01*
X89653Y-57126D01*
X89631Y-57035D01*
X89441Y-56969D01*
X89240Y-56981D01*
X89108Y-57035D01*
X89086Y-57126D01*
X89370Y-57409D01*
X89653Y-57126D01*
X89653Y-57267D01*
X89440Y-57480D01*
X89446Y-57485D01*
X89375Y-57556D01*
X89370Y-57551D01*
X89364Y-57556D01*
X89293Y-57485D01*
X89299Y-57480D01*
X89016Y-57197D01*
X89013Y-57197D01*
X89011Y-57194D01*
X88869Y-57051D01*
X88683Y-56974D01*
X88482Y-56974D01*
X88296Y-57051D01*
X88188Y-57158D01*
X88082Y-57051D01*
X87896Y-56974D01*
X87695Y-56974D01*
X87509Y-57051D01*
X87401Y-57158D01*
X87294Y-57051D01*
X87108Y-56974D01*
X86907Y-56974D01*
X86721Y-57051D01*
X86614Y-57158D01*
X86507Y-57051D01*
X86321Y-56974D01*
X86120Y-56974D01*
X85934Y-57051D01*
X85826Y-57158D01*
X85720Y-57051D01*
X85534Y-56974D01*
X85332Y-56974D01*
X85146Y-57051D01*
X85039Y-57158D01*
X84932Y-57051D01*
X84746Y-56974D01*
X84545Y-56974D01*
X84359Y-57051D01*
X84251Y-57158D01*
X84145Y-57051D01*
X83959Y-56974D01*
X83758Y-56974D01*
X83572Y-57051D01*
X83429Y-57193D01*
X83427Y-57197D01*
X83424Y-57197D01*
X83354Y-57267D01*
X83354Y-57126D01*
X83332Y-57035D01*
X83142Y-56969D01*
X82941Y-56981D01*
X82809Y-57035D01*
X82787Y-57126D01*
X83070Y-57409D01*
X83354Y-57126D01*
X83354Y-57267D01*
X83141Y-57480D01*
X83424Y-57763D01*
X83427Y-57762D01*
X83429Y-57766D01*
X83536Y-57874D01*
X83464Y-57945D01*
X83357Y-57839D01*
X83353Y-57837D01*
X83354Y-57834D01*
X83070Y-57551D01*
X83000Y-57621D01*
X83000Y-57480D01*
X82716Y-57197D01*
X82626Y-57219D01*
X82559Y-57409D01*
X82571Y-57610D01*
X82626Y-57741D01*
X82716Y-57763D01*
X83000Y-57480D01*
X83000Y-57621D01*
X82787Y-57834D01*
X82788Y-57837D01*
X82784Y-57838D01*
X82642Y-57980D01*
X82565Y-58166D01*
X82564Y-58367D01*
X82641Y-58553D01*
X82783Y-58696D01*
X82969Y-58773D01*
X83171Y-58773D01*
X83357Y-58696D01*
X83464Y-58589D01*
X83571Y-58696D01*
X83747Y-58769D01*
X80029Y-62488D01*
X79956Y-62312D01*
X79923Y-62279D01*
X79925Y-62278D01*
X79995Y-62208D01*
X80033Y-62116D01*
X80033Y-61505D01*
X79995Y-61413D01*
X79925Y-61343D01*
X79833Y-61305D01*
X79733Y-61305D01*
X79640Y-61305D01*
X79577Y-61367D01*
X79577Y-61761D01*
X79970Y-61761D01*
X80033Y-61698D01*
X80033Y-61505D01*
X80033Y-62116D01*
X80033Y-61923D01*
X79970Y-61861D01*
X79577Y-61861D01*
X79577Y-61868D01*
X79477Y-61868D01*
X79477Y-61861D01*
X79477Y-61761D01*
X79477Y-61367D01*
X79415Y-61305D01*
X79321Y-61305D01*
X79221Y-61305D01*
X79129Y-61343D01*
X79059Y-61413D01*
X79021Y-61505D01*
X79021Y-61698D01*
X79084Y-61761D01*
X79477Y-61761D01*
X79477Y-61861D01*
X79084Y-61861D01*
X79021Y-61923D01*
X79021Y-62116D01*
X79059Y-62208D01*
X79129Y-62278D01*
X79131Y-62279D01*
X79098Y-62311D01*
X79021Y-62497D01*
X79021Y-62698D01*
X79098Y-62884D01*
X79205Y-62992D01*
X79098Y-63098D01*
X79021Y-63284D01*
X79021Y-63486D01*
X79098Y-63672D01*
X79205Y-63779D01*
X79098Y-63886D01*
X79021Y-64072D01*
X79021Y-64273D01*
X79098Y-64459D01*
X79240Y-64601D01*
X79426Y-64679D01*
X79627Y-64679D01*
X79813Y-64602D01*
X79956Y-64460D01*
X79959Y-64453D01*
X81732Y-64453D01*
X81839Y-64431D01*
X81839Y-64431D01*
X81930Y-64371D01*
X83190Y-63111D01*
X83190Y-63111D01*
X83230Y-63050D01*
X83250Y-63020D01*
X83250Y-63020D01*
X83272Y-62913D01*
X83272Y-62913D01*
X83272Y-61297D01*
X85546Y-59022D01*
X85546Y-61695D01*
X84753Y-62488D01*
X84681Y-62312D01*
X84648Y-62279D01*
X84649Y-62278D01*
X84719Y-62208D01*
X84757Y-62116D01*
X84757Y-61505D01*
X84719Y-61413D01*
X84649Y-61343D01*
X84557Y-61305D01*
X84458Y-61305D01*
X84364Y-61305D01*
X84301Y-61367D01*
X84301Y-61761D01*
X84695Y-61761D01*
X84757Y-61698D01*
X84757Y-61505D01*
X84757Y-62116D01*
X84757Y-61923D01*
X84695Y-61861D01*
X84301Y-61861D01*
X84301Y-61868D01*
X84201Y-61868D01*
X84201Y-61861D01*
X84201Y-61761D01*
X84201Y-61367D01*
X84139Y-61305D01*
X84045Y-61305D01*
X83946Y-61305D01*
X83854Y-61343D01*
X83783Y-61413D01*
X83746Y-61505D01*
X83746Y-61698D01*
X83808Y-61761D01*
X84201Y-61761D01*
X84201Y-61861D01*
X83808Y-61861D01*
X83746Y-61923D01*
X83746Y-62116D01*
X83783Y-62208D01*
X83854Y-62278D01*
X83855Y-62279D01*
X83823Y-62311D01*
X83746Y-62497D01*
X83745Y-62698D01*
X83822Y-62884D01*
X83930Y-62992D01*
X83823Y-63098D01*
X83746Y-63284D01*
X83745Y-63486D01*
X83822Y-63672D01*
X83930Y-63779D01*
X83823Y-63886D01*
X83746Y-64072D01*
X83745Y-64273D01*
X83822Y-64459D01*
X83965Y-64601D01*
X84150Y-64679D01*
X84352Y-64679D01*
X84538Y-64602D01*
X84680Y-64460D01*
X84683Y-64453D01*
X85196Y-64453D01*
X85304Y-64431D01*
X85304Y-64431D01*
X85394Y-64371D01*
X86812Y-62953D01*
X86812Y-62953D01*
X86852Y-62893D01*
X86872Y-62863D01*
X86872Y-62863D01*
X86894Y-62755D01*
X86894Y-62755D01*
X86894Y-58763D01*
X86936Y-58778D01*
X87137Y-58766D01*
X87269Y-58712D01*
X87291Y-58621D01*
X87007Y-58338D01*
X87002Y-58343D01*
X86931Y-58273D01*
X86937Y-58267D01*
X86931Y-58262D01*
X87002Y-58191D01*
X87007Y-58197D01*
X87291Y-57913D01*
X87290Y-57910D01*
X87294Y-57909D01*
X87401Y-57802D01*
X87473Y-57874D01*
X87366Y-57980D01*
X87364Y-57985D01*
X87361Y-57984D01*
X87078Y-58267D01*
X87361Y-58550D01*
X87364Y-58550D01*
X87366Y-58553D01*
X87508Y-58696D01*
X87694Y-58773D01*
X87895Y-58773D01*
X87908Y-58768D01*
X87908Y-62598D01*
X87930Y-62705D01*
X87990Y-62796D01*
X88473Y-63278D01*
X88470Y-63284D01*
X88470Y-63486D01*
X88547Y-63672D01*
X88654Y-63779D01*
X88547Y-63886D01*
X88470Y-64072D01*
X88470Y-64273D01*
X88547Y-64459D01*
X88689Y-64601D01*
X88875Y-64679D01*
X89076Y-64679D01*
X89262Y-64602D01*
X89405Y-64460D01*
X89482Y-64274D01*
X89482Y-64073D01*
X89479Y-64066D01*
X89686Y-63859D01*
X89686Y-63859D01*
X89726Y-63798D01*
X89746Y-63768D01*
X89746Y-63768D01*
X89768Y-63661D01*
X89768Y-63661D01*
X89768Y-61181D01*
X89746Y-61073D01*
X89746Y-61073D01*
X89726Y-61043D01*
X89686Y-60983D01*
X89686Y-60983D01*
X89256Y-60553D01*
X89256Y-58768D01*
X89269Y-58773D01*
X89470Y-58773D01*
X89656Y-58696D01*
X89689Y-58664D01*
X89689Y-58665D01*
X89759Y-58735D01*
X89851Y-58773D01*
X89951Y-58773D01*
X90462Y-58773D01*
X90554Y-58735D01*
X90625Y-58665D01*
X90663Y-58573D01*
X90663Y-58474D01*
X90663Y-57962D01*
X90625Y-57870D01*
X90555Y-57799D01*
X90553Y-57799D01*
X90586Y-57767D01*
X90663Y-57581D01*
X90663Y-57380D01*
X90663Y-66659D01*
X77113Y-66659D01*
X77071Y-66651D01*
X77058Y-66642D01*
X77049Y-66629D01*
X77041Y-66587D01*
X77041Y-59396D01*
X77049Y-59355D01*
X77058Y-59341D01*
X77071Y-59333D01*
X77113Y-59324D01*
X81968Y-59324D01*
X81994Y-59319D01*
X82020Y-59319D01*
X82141Y-59295D01*
X82238Y-59255D01*
X82239Y-59255D01*
X82239Y-59255D01*
X82340Y-59187D01*
X82340Y-59187D01*
X82415Y-59112D01*
X82483Y-59010D01*
X82524Y-58913D01*
X82524Y-58913D01*
X82524Y-58913D01*
X82547Y-58792D01*
X82547Y-58766D01*
X82553Y-58740D01*
X82553Y-57034D01*
X82561Y-56992D01*
X82570Y-56979D01*
X82582Y-56971D01*
X82625Y-56962D01*
X90603Y-56962D01*
X90644Y-56970D01*
X90658Y-56979D01*
X90666Y-56992D01*
X90675Y-57034D01*
X90675Y-58740D01*
X90680Y-58766D01*
X90680Y-58792D01*
X90704Y-58913D01*
X90744Y-59010D01*
X90744Y-59010D01*
X90744Y-59010D01*
X90812Y-59112D01*
X90812Y-59112D01*
X90887Y-59186D01*
X90989Y-59255D01*
X91086Y-59295D01*
X91086Y-59295D01*
X91086Y-59295D01*
X91207Y-59319D01*
X91233Y-59319D01*
X91259Y-59324D01*
X96115Y-59324D01*
X96156Y-59333D01*
X96170Y-59341D01*
X96178Y-59354D01*
X96187Y-59397D01*
X96187Y-66587D01*
X96187Y-66587D01*
G37*
G54D15*
X96187Y-66587D02*
X96178Y-66629D01*
X96170Y-66642D01*
X96156Y-66651D01*
X96115Y-66659D01*
X94206Y-66659D01*
X94206Y-64073D01*
X94129Y-63887D01*
X94022Y-63779D01*
X94129Y-63672D01*
X94206Y-63486D01*
X94206Y-63285D01*
X94129Y-63099D01*
X94022Y-62992D01*
X94129Y-62885D01*
X94206Y-62699D01*
X94206Y-62498D01*
X94129Y-62312D01*
X94097Y-62279D01*
X94098Y-62278D01*
X94168Y-62208D01*
X94206Y-62116D01*
X94206Y-61505D01*
X94168Y-61413D01*
X94098Y-61343D01*
X94006Y-61305D01*
X93907Y-61305D01*
X93813Y-61305D01*
X93750Y-61367D01*
X93750Y-61761D01*
X94144Y-61761D01*
X94206Y-61698D01*
X94206Y-61505D01*
X94206Y-62116D01*
X94206Y-61923D01*
X94144Y-61861D01*
X93750Y-61861D01*
X93750Y-61868D01*
X93650Y-61868D01*
X93650Y-61861D01*
X93650Y-61761D01*
X93650Y-61367D01*
X93588Y-61305D01*
X93494Y-61305D01*
X93394Y-61305D01*
X93303Y-61343D01*
X93232Y-61413D01*
X93194Y-61505D01*
X93194Y-61698D01*
X93257Y-61761D01*
X93650Y-61761D01*
X93650Y-61861D01*
X93257Y-61861D01*
X93194Y-61923D01*
X93194Y-62116D01*
X93232Y-62208D01*
X93303Y-62278D01*
X93304Y-62279D01*
X93272Y-62311D01*
X93194Y-62497D01*
X93194Y-62698D01*
X93271Y-62884D01*
X93379Y-62992D01*
X93272Y-63098D01*
X93194Y-63284D01*
X93194Y-63486D01*
X93271Y-63672D01*
X93379Y-63779D01*
X93272Y-63886D01*
X93194Y-64072D01*
X93194Y-64273D01*
X93271Y-64459D01*
X93413Y-64601D01*
X93599Y-64679D01*
X93800Y-64679D01*
X93986Y-64602D01*
X94129Y-64460D01*
X94206Y-64274D01*
X94206Y-64073D01*
X94206Y-66659D01*
X90663Y-66659D01*
X90663Y-57380D01*
X90586Y-57194D01*
X90444Y-57051D01*
X90258Y-56974D01*
X90057Y-56974D01*
X89871Y-57051D01*
X89728Y-57193D01*
X89727Y-57197D01*
X89724Y-57197D01*
X89653Y-57267D01*
X89653Y-57126D01*
X89631Y-57035D01*
X89441Y-56969D01*
X89240Y-56981D01*
X89108Y-57035D01*
X89086Y-57126D01*
X89370Y-57409D01*
X89653Y-57126D01*
X89653Y-57267D01*
X89440Y-57480D01*
X89446Y-57485D01*
X89375Y-57556D01*
X89370Y-57551D01*
X89364Y-57556D01*
X89293Y-57485D01*
X89299Y-57480D01*
X89016Y-57197D01*
X89013Y-57197D01*
X89011Y-57194D01*
X88869Y-57051D01*
X88683Y-56974D01*
X88482Y-56974D01*
X88296Y-57051D01*
X88188Y-57158D01*
X88082Y-57051D01*
X87896Y-56974D01*
X87695Y-56974D01*
X87509Y-57051D01*
X87401Y-57158D01*
X87294Y-57051D01*
X87108Y-56974D01*
X86907Y-56974D01*
X86721Y-57051D01*
X86614Y-57158D01*
X86507Y-57051D01*
X86321Y-56974D01*
X86120Y-56974D01*
X85934Y-57051D01*
X85826Y-57158D01*
X85720Y-57051D01*
X85534Y-56974D01*
X85332Y-56974D01*
X85146Y-57051D01*
X85039Y-57158D01*
X84932Y-57051D01*
X84746Y-56974D01*
X84545Y-56974D01*
X84359Y-57051D01*
X84251Y-57158D01*
X84145Y-57051D01*
X83959Y-56974D01*
X83758Y-56974D01*
X83572Y-57051D01*
X83429Y-57193D01*
X83427Y-57197D01*
X83424Y-57197D01*
X83354Y-57267D01*
X83354Y-57126D01*
X83332Y-57035D01*
X83142Y-56969D01*
X82941Y-56981D01*
X82809Y-57035D01*
X82787Y-57126D01*
X83070Y-57409D01*
X83354Y-57126D01*
X83354Y-57267D01*
X83141Y-57480D01*
X83424Y-57763D01*
X83427Y-57762D01*
X83429Y-57766D01*
X83536Y-57874D01*
X83464Y-57945D01*
X83357Y-57839D01*
X83353Y-57837D01*
X83354Y-57834D01*
X83070Y-57551D01*
X83000Y-57621D01*
X83000Y-57480D01*
X82716Y-57197D01*
X82626Y-57219D01*
X82559Y-57409D01*
X82571Y-57610D01*
X82626Y-57741D01*
X82716Y-57763D01*
X83000Y-57480D01*
X83000Y-57621D01*
X82787Y-57834D01*
X82788Y-57837D01*
X82784Y-57838D01*
X82642Y-57980D01*
X82565Y-58166D01*
X82564Y-58367D01*
X82641Y-58553D01*
X82783Y-58696D01*
X82969Y-58773D01*
X83171Y-58773D01*
X83357Y-58696D01*
X83464Y-58589D01*
X83571Y-58696D01*
X83747Y-58769D01*
X80029Y-62488D01*
X79956Y-62312D01*
X79923Y-62279D01*
X79925Y-62278D01*
X79995Y-62208D01*
X80033Y-62116D01*
X80033Y-61505D01*
X79995Y-61413D01*
X79925Y-61343D01*
X79833Y-61305D01*
X79733Y-61305D01*
X79640Y-61305D01*
X79577Y-61367D01*
X79577Y-61761D01*
X79970Y-61761D01*
X80033Y-61698D01*
X80033Y-61505D01*
X80033Y-62116D01*
X80033Y-61923D01*
X79970Y-61861D01*
X79577Y-61861D01*
X79577Y-61868D01*
X79477Y-61868D01*
X79477Y-61861D01*
X79477Y-61761D01*
X79477Y-61367D01*
X79415Y-61305D01*
X79321Y-61305D01*
X79221Y-61305D01*
X79129Y-61343D01*
X79059Y-61413D01*
X79021Y-61505D01*
X79021Y-61698D01*
X79084Y-61761D01*
X79477Y-61761D01*
X79477Y-61861D01*
X79084Y-61861D01*
X79021Y-61923D01*
X79021Y-62116D01*
X79059Y-62208D01*
X79129Y-62278D01*
X79131Y-62279D01*
X79098Y-62311D01*
X79021Y-62497D01*
X79021Y-62698D01*
X79098Y-62884D01*
X79205Y-62992D01*
X79098Y-63098D01*
X79021Y-63284D01*
X79021Y-63486D01*
X79098Y-63672D01*
X79205Y-63779D01*
X79098Y-63886D01*
X79021Y-64072D01*
X79021Y-64273D01*
X79098Y-64459D01*
X79240Y-64601D01*
X79426Y-64679D01*
X79627Y-64679D01*
X79813Y-64602D01*
X79956Y-64460D01*
X79959Y-64453D01*
X81732Y-64453D01*
X81839Y-64431D01*
X81839Y-64431D01*
X81930Y-64371D01*
X83190Y-63111D01*
X83190Y-63111D01*
X83230Y-63050D01*
X83250Y-63020D01*
X83250Y-63020D01*
X83272Y-62913D01*
X83272Y-62913D01*
X83272Y-61297D01*
X85546Y-59022D01*
X85546Y-61695D01*
X84753Y-62488D01*
X84681Y-62312D01*
X84648Y-62279D01*
X84649Y-62278D01*
X84719Y-62208D01*
X84757Y-62116D01*
X84757Y-61505D01*
X84719Y-61413D01*
X84649Y-61343D01*
X84557Y-61305D01*
X84458Y-61305D01*
X84364Y-61305D01*
X84301Y-61367D01*
X84301Y-61761D01*
X84695Y-61761D01*
X84757Y-61698D01*
X84757Y-61505D01*
X84757Y-62116D01*
X84757Y-61923D01*
X84695Y-61861D01*
X84301Y-61861D01*
X84301Y-61868D01*
X84201Y-61868D01*
X84201Y-61861D01*
X84201Y-61761D01*
X84201Y-61367D01*
X84139Y-61305D01*
X84045Y-61305D01*
X83946Y-61305D01*
X83854Y-61343D01*
X83783Y-61413D01*
X83746Y-61505D01*
X83746Y-61698D01*
X83808Y-61761D01*
X84201Y-61761D01*
X84201Y-61861D01*
X83808Y-61861D01*
X83746Y-61923D01*
X83746Y-62116D01*
X83783Y-62208D01*
X83854Y-62278D01*
X83855Y-62279D01*
X83823Y-62311D01*
X83746Y-62497D01*
X83745Y-62698D01*
X83822Y-62884D01*
X83930Y-62992D01*
X83823Y-63098D01*
X83746Y-63284D01*
X83745Y-63486D01*
X83822Y-63672D01*
X83930Y-63779D01*
X83823Y-63886D01*
X83746Y-64072D01*
X83745Y-64273D01*
X83822Y-64459D01*
X83965Y-64601D01*
X84150Y-64679D01*
X84352Y-64679D01*
X84538Y-64602D01*
X84680Y-64460D01*
X84683Y-64453D01*
X85196Y-64453D01*
X85304Y-64431D01*
X85304Y-64431D01*
X85394Y-64371D01*
X86812Y-62953D01*
X86812Y-62953D01*
X86852Y-62893D01*
X86872Y-62863D01*
X86872Y-62863D01*
X86894Y-62755D01*
X86894Y-62755D01*
X86894Y-58763D01*
X86936Y-58778D01*
X87137Y-58766D01*
X87269Y-58712D01*
X87291Y-58621D01*
X87007Y-58338D01*
X87002Y-58343D01*
X86931Y-58273D01*
X86937Y-58267D01*
X86931Y-58262D01*
X87002Y-58191D01*
X87007Y-58197D01*
X87291Y-57913D01*
X87290Y-57910D01*
X87294Y-57909D01*
X87401Y-57802D01*
X87473Y-57874D01*
X87366Y-57980D01*
X87364Y-57985D01*
X87361Y-57984D01*
X87078Y-58267D01*
X87361Y-58550D01*
X87364Y-58550D01*
X87366Y-58553D01*
X87508Y-58696D01*
X87694Y-58773D01*
X87895Y-58773D01*
X87908Y-58768D01*
X87908Y-62598D01*
X87930Y-62705D01*
X87990Y-62796D01*
X88473Y-63278D01*
X88470Y-63284D01*
X88470Y-63486D01*
X88547Y-63672D01*
X88654Y-63779D01*
X88547Y-63886D01*
X88470Y-64072D01*
X88470Y-64273D01*
X88547Y-64459D01*
X88689Y-64601D01*
X88875Y-64679D01*
X89076Y-64679D01*
X89262Y-64602D01*
X89405Y-64460D01*
X89482Y-64274D01*
X89482Y-64073D01*
X89479Y-64066D01*
X89686Y-63859D01*
X89686Y-63859D01*
X89726Y-63798D01*
X89746Y-63768D01*
X89746Y-63768D01*
X89768Y-63661D01*
X89768Y-63661D01*
X89768Y-61181D01*
X89746Y-61073D01*
X89746Y-61073D01*
X89726Y-61043D01*
X89686Y-60983D01*
X89686Y-60983D01*
X89256Y-60553D01*
X89256Y-58768D01*
X89269Y-58773D01*
X89470Y-58773D01*
X89656Y-58696D01*
X89689Y-58664D01*
X89689Y-58665D01*
X89759Y-58735D01*
X89851Y-58773D01*
X89951Y-58773D01*
X90462Y-58773D01*
X90554Y-58735D01*
X90625Y-58665D01*
X90663Y-58573D01*
X90663Y-58474D01*
X90663Y-57962D01*
X90625Y-57870D01*
X90555Y-57799D01*
X90553Y-57799D01*
X90586Y-57767D01*
X90663Y-57581D01*
X90663Y-57380D01*
X90663Y-66659D01*
X77113Y-66659D01*
X77071Y-66651D01*
X77058Y-66642D01*
X77049Y-66629D01*
X77041Y-66587D01*
X77041Y-59396D01*
X77049Y-59355D01*
X77058Y-59341D01*
X77071Y-59333D01*
X77113Y-59324D01*
X81968Y-59324D01*
X81994Y-59319D01*
X82020Y-59319D01*
X82141Y-59295D01*
X82238Y-59255D01*
X82239Y-59255D01*
X82239Y-59255D01*
X82340Y-59187D01*
X82340Y-59187D01*
X82415Y-59112D01*
X82483Y-59010D01*
X82524Y-58913D01*
X82524Y-58913D01*
X82524Y-58913D01*
X82547Y-58792D01*
X82547Y-58766D01*
X82553Y-58740D01*
X82553Y-57034D01*
X82561Y-56992D01*
X82570Y-56979D01*
X82582Y-56971D01*
X82625Y-56962D01*
X90603Y-56962D01*
X90644Y-56970D01*
X90658Y-56979D01*
X90666Y-56992D01*
X90675Y-57034D01*
X90675Y-58740D01*
X90680Y-58766D01*
X90680Y-58792D01*
X90704Y-58913D01*
X90744Y-59010D01*
X90744Y-59010D01*
X90744Y-59010D01*
X90812Y-59112D01*
X90812Y-59112D01*
X90887Y-59186D01*
X90989Y-59255D01*
X91086Y-59295D01*
X91086Y-59295D01*
X91086Y-59295D01*
X91207Y-59319D01*
X91233Y-59319D01*
X91259Y-59324D01*
X96115Y-59324D01*
X96156Y-59333D01*
X96170Y-59341D01*
X96178Y-59354D01*
X96187Y-59397D01*
X96187Y-66587D01*
M02*
