G04 (created by PCBNEW (2013-may-18)-stable) date Sun 16 Aug 2015 12:33:42 AM CST*
%MOIN*%
G04 Gerber Fmt 3.4, Leading zero omitted, Abs format*
%FSLAX34Y34*%
G01*
G70*
G90*
G04 APERTURE LIST*
%ADD10C,0.00590551*%
%ADD11C,0.00787402*%
%ADD12C,0.0001*%
%ADD13C,0.008*%
G04 APERTURE END LIST*
G54D10*
G54D11*
X93925Y-64293D02*
X93925Y-63899D01*
X93832Y-63899D01*
X93775Y-63918D01*
X93738Y-63955D01*
X93719Y-63993D01*
X93700Y-64068D01*
X93700Y-64124D01*
X93719Y-64199D01*
X93738Y-64236D01*
X93775Y-64274D01*
X93832Y-64293D01*
X93925Y-64293D01*
X93382Y-64274D02*
X93419Y-64293D01*
X93494Y-64293D01*
X93532Y-64274D01*
X93550Y-64236D01*
X93550Y-64086D01*
X93532Y-64049D01*
X93494Y-64030D01*
X93419Y-64030D01*
X93382Y-64049D01*
X93363Y-64086D01*
X93363Y-64124D01*
X93550Y-64161D01*
X93213Y-64274D02*
X93175Y-64293D01*
X93100Y-64293D01*
X93063Y-64274D01*
X93044Y-64236D01*
X93044Y-64218D01*
X93063Y-64180D01*
X93100Y-64161D01*
X93157Y-64161D01*
X93194Y-64143D01*
X93213Y-64105D01*
X93213Y-64086D01*
X93194Y-64049D01*
X93157Y-64030D01*
X93100Y-64030D01*
X93063Y-64049D01*
X92875Y-64293D02*
X92875Y-64030D01*
X92875Y-63899D02*
X92894Y-63918D01*
X92875Y-63937D01*
X92857Y-63918D01*
X92875Y-63899D01*
X92875Y-63937D01*
X92519Y-64030D02*
X92519Y-64349D01*
X92538Y-64386D01*
X92557Y-64405D01*
X92594Y-64424D01*
X92650Y-64424D01*
X92688Y-64405D01*
X92519Y-64274D02*
X92557Y-64293D01*
X92632Y-64293D01*
X92669Y-64274D01*
X92688Y-64255D01*
X92707Y-64218D01*
X92707Y-64105D01*
X92688Y-64068D01*
X92669Y-64049D01*
X92632Y-64030D01*
X92557Y-64030D01*
X92519Y-64049D01*
X92332Y-64030D02*
X92332Y-64293D01*
X92332Y-64068D02*
X92313Y-64049D01*
X92275Y-64030D01*
X92219Y-64030D01*
X92182Y-64049D01*
X92163Y-64086D01*
X92163Y-64293D01*
X91826Y-64274D02*
X91863Y-64293D01*
X91938Y-64293D01*
X91976Y-64274D01*
X91994Y-64236D01*
X91994Y-64086D01*
X91976Y-64049D01*
X91938Y-64030D01*
X91863Y-64030D01*
X91826Y-64049D01*
X91807Y-64086D01*
X91807Y-64124D01*
X91994Y-64161D01*
X91469Y-64293D02*
X91469Y-63899D01*
X91469Y-64274D02*
X91507Y-64293D01*
X91582Y-64293D01*
X91619Y-64274D01*
X91638Y-64255D01*
X91657Y-64218D01*
X91657Y-64105D01*
X91638Y-64068D01*
X91619Y-64049D01*
X91582Y-64030D01*
X91507Y-64030D01*
X91469Y-64049D01*
X90982Y-64293D02*
X90982Y-64030D01*
X90982Y-63899D02*
X91001Y-63918D01*
X90982Y-63937D01*
X90963Y-63918D01*
X90982Y-63899D01*
X90982Y-63937D01*
X90794Y-64030D02*
X90794Y-64293D01*
X90794Y-64068D02*
X90776Y-64049D01*
X90738Y-64030D01*
X90682Y-64030D01*
X90644Y-64049D01*
X90626Y-64086D01*
X90626Y-64293D01*
X90194Y-63899D02*
X89970Y-63899D01*
X90082Y-64293D02*
X90082Y-63899D01*
X89670Y-64293D02*
X89670Y-64086D01*
X89688Y-64049D01*
X89726Y-64030D01*
X89801Y-64030D01*
X89838Y-64049D01*
X89670Y-64274D02*
X89707Y-64293D01*
X89801Y-64293D01*
X89838Y-64274D01*
X89857Y-64236D01*
X89857Y-64199D01*
X89838Y-64161D01*
X89801Y-64143D01*
X89707Y-64143D01*
X89670Y-64124D01*
X89482Y-64293D02*
X89482Y-64030D01*
X89482Y-63899D02*
X89501Y-63918D01*
X89482Y-63937D01*
X89463Y-63918D01*
X89482Y-63899D01*
X89482Y-63937D01*
X89332Y-64030D02*
X89257Y-64293D01*
X89182Y-64105D01*
X89107Y-64293D01*
X89032Y-64030D01*
X88713Y-64293D02*
X88713Y-64086D01*
X88732Y-64049D01*
X88770Y-64030D01*
X88845Y-64030D01*
X88882Y-64049D01*
X88713Y-64274D02*
X88751Y-64293D01*
X88845Y-64293D01*
X88882Y-64274D01*
X88901Y-64236D01*
X88901Y-64199D01*
X88882Y-64161D01*
X88845Y-64143D01*
X88751Y-64143D01*
X88713Y-64124D01*
X88526Y-64030D02*
X88526Y-64293D01*
X88526Y-64068D02*
X88507Y-64049D01*
X88470Y-64030D01*
X88413Y-64030D01*
X88376Y-64049D01*
X88357Y-64086D01*
X88357Y-64293D01*
X83967Y-64293D02*
X83967Y-64030D01*
X83967Y-64068D02*
X83948Y-64049D01*
X83910Y-64030D01*
X83854Y-64030D01*
X83817Y-64049D01*
X83798Y-64086D01*
X83798Y-64293D01*
X83798Y-64086D02*
X83779Y-64049D01*
X83742Y-64030D01*
X83685Y-64030D01*
X83648Y-64049D01*
X83629Y-64086D01*
X83629Y-64293D01*
X83385Y-64293D02*
X83423Y-64274D01*
X83442Y-64255D01*
X83460Y-64218D01*
X83460Y-64105D01*
X83442Y-64068D01*
X83423Y-64049D01*
X83385Y-64030D01*
X83329Y-64030D01*
X83292Y-64049D01*
X83273Y-64068D01*
X83254Y-64105D01*
X83254Y-64218D01*
X83273Y-64255D01*
X83292Y-64274D01*
X83329Y-64293D01*
X83385Y-64293D01*
X83029Y-64293D02*
X83067Y-64274D01*
X83085Y-64255D01*
X83104Y-64218D01*
X83104Y-64105D01*
X83085Y-64068D01*
X83067Y-64049D01*
X83029Y-64030D01*
X82973Y-64030D01*
X82935Y-64049D01*
X82917Y-64068D01*
X82898Y-64105D01*
X82898Y-64218D01*
X82917Y-64255D01*
X82935Y-64274D01*
X82973Y-64293D01*
X83029Y-64293D01*
X82729Y-64030D02*
X82729Y-64293D01*
X82729Y-64068D02*
X82710Y-64049D01*
X82673Y-64030D01*
X82617Y-64030D01*
X82579Y-64049D01*
X82560Y-64086D01*
X82560Y-64293D01*
X82373Y-64030D02*
X82373Y-64424D01*
X82373Y-64049D02*
X82335Y-64030D01*
X82260Y-64030D01*
X82223Y-64049D01*
X82204Y-64068D01*
X82185Y-64105D01*
X82185Y-64218D01*
X82204Y-64255D01*
X82223Y-64274D01*
X82260Y-64293D01*
X82335Y-64293D01*
X82373Y-64274D01*
X81848Y-64030D02*
X81848Y-64293D01*
X82017Y-64030D02*
X82017Y-64236D01*
X81998Y-64274D01*
X81961Y-64293D01*
X81904Y-64293D01*
X81867Y-64274D01*
X81848Y-64255D01*
X81661Y-64030D02*
X81661Y-64293D01*
X81661Y-64068D02*
X81642Y-64049D01*
X81604Y-64030D01*
X81548Y-64030D01*
X81511Y-64049D01*
X81492Y-64086D01*
X81492Y-64293D01*
X81136Y-64274D02*
X81173Y-64293D01*
X81248Y-64293D01*
X81286Y-64274D01*
X81304Y-64255D01*
X81323Y-64218D01*
X81323Y-64105D01*
X81304Y-64068D01*
X81286Y-64049D01*
X81248Y-64030D01*
X81173Y-64030D01*
X81136Y-64049D01*
X80967Y-64293D02*
X80967Y-63899D01*
X80798Y-64293D02*
X80798Y-64086D01*
X80817Y-64049D01*
X80854Y-64030D01*
X80911Y-64030D01*
X80948Y-64049D01*
X80967Y-64068D01*
X80611Y-64255D02*
X80592Y-64274D01*
X80611Y-64293D01*
X80629Y-64274D01*
X80611Y-64255D01*
X80611Y-64293D01*
X80367Y-64293D02*
X80404Y-64274D01*
X80423Y-64255D01*
X80442Y-64218D01*
X80442Y-64105D01*
X80423Y-64068D01*
X80404Y-64049D01*
X80367Y-64030D01*
X80311Y-64030D01*
X80273Y-64049D01*
X80254Y-64068D01*
X80236Y-64105D01*
X80236Y-64218D01*
X80254Y-64255D01*
X80273Y-64274D01*
X80311Y-64293D01*
X80367Y-64293D01*
X80067Y-64293D02*
X80067Y-64030D01*
X80067Y-64105D02*
X80048Y-64068D01*
X80029Y-64049D01*
X79992Y-64030D01*
X79955Y-64030D01*
X79655Y-64030D02*
X79655Y-64349D01*
X79673Y-64386D01*
X79692Y-64405D01*
X79730Y-64424D01*
X79786Y-64424D01*
X79823Y-64405D01*
X79655Y-64274D02*
X79692Y-64293D01*
X79767Y-64293D01*
X79805Y-64274D01*
X79823Y-64255D01*
X79842Y-64218D01*
X79842Y-64105D01*
X79823Y-64068D01*
X79805Y-64049D01*
X79767Y-64030D01*
X79692Y-64030D01*
X79655Y-64049D01*
X89122Y-60200D02*
X89141Y-60219D01*
X89197Y-60238D01*
X89235Y-60238D01*
X89291Y-60219D01*
X89328Y-60181D01*
X89347Y-60144D01*
X89366Y-60069D01*
X89366Y-60013D01*
X89347Y-59938D01*
X89328Y-59900D01*
X89291Y-59863D01*
X89235Y-59844D01*
X89197Y-59844D01*
X89141Y-59863D01*
X89122Y-59881D01*
X88953Y-60031D02*
X88822Y-60031D01*
X88766Y-60238D02*
X88953Y-60238D01*
X88953Y-59844D01*
X88766Y-59844D01*
X88372Y-60238D02*
X88503Y-60050D01*
X88597Y-60238D02*
X88597Y-59844D01*
X88447Y-59844D01*
X88410Y-59863D01*
X88391Y-59881D01*
X88372Y-59919D01*
X88372Y-59975D01*
X88391Y-60013D01*
X88410Y-60031D01*
X88447Y-60050D01*
X88597Y-60050D01*
X88203Y-60238D02*
X88203Y-59844D01*
X87979Y-60238D01*
X87979Y-59844D01*
X87416Y-59844D02*
X87341Y-59844D01*
X87304Y-59863D01*
X87266Y-59900D01*
X87247Y-59975D01*
X87247Y-60106D01*
X87266Y-60181D01*
X87304Y-60219D01*
X87341Y-60238D01*
X87416Y-60238D01*
X87454Y-60219D01*
X87491Y-60181D01*
X87510Y-60106D01*
X87510Y-59975D01*
X87491Y-59900D01*
X87454Y-59863D01*
X87416Y-59844D01*
X87079Y-60238D02*
X87079Y-59844D01*
X87079Y-60031D02*
X86854Y-60031D01*
X86854Y-60238D02*
X86854Y-59844D01*
X86479Y-60238D02*
X86666Y-60238D01*
X86666Y-59844D01*
X85841Y-60238D02*
X86066Y-60238D01*
X85954Y-60238D02*
X85954Y-59844D01*
X85991Y-59900D01*
X86029Y-59938D01*
X86066Y-59956D01*
X85673Y-60200D02*
X85654Y-60219D01*
X85673Y-60238D01*
X85691Y-60219D01*
X85673Y-60200D01*
X85673Y-60238D01*
X85504Y-59881D02*
X85485Y-59863D01*
X85448Y-59844D01*
X85354Y-59844D01*
X85316Y-59863D01*
X85298Y-59881D01*
X85279Y-59919D01*
X85279Y-59956D01*
X85298Y-60013D01*
X85523Y-60238D01*
X85279Y-60238D01*
G54D10*
X90629Y-57007D02*
X90629Y-58740D01*
X90629Y-58740D02*
X82598Y-58740D01*
X82598Y-58740D02*
X82598Y-57007D01*
X82598Y-57007D02*
X90629Y-57007D01*
G54D12*
G36*
X91396Y-60498D02*
X91393Y-60550D01*
X91382Y-60638D01*
X91356Y-60680D01*
X91298Y-60696D01*
X91273Y-60699D01*
X91186Y-60722D01*
X91129Y-60783D01*
X91110Y-60820D01*
X91078Y-60897D01*
X91080Y-60952D01*
X91118Y-61018D01*
X91132Y-61037D01*
X91207Y-61143D01*
X91115Y-61239D01*
X91023Y-61336D01*
X90926Y-61267D01*
X90844Y-61225D01*
X90772Y-61213D01*
X90766Y-61214D01*
X90727Y-61212D01*
X90690Y-61175D01*
X90648Y-61091D01*
X90622Y-61027D01*
X90540Y-60822D01*
X90620Y-60728D01*
X90687Y-60612D01*
X90688Y-60501D01*
X90622Y-60391D01*
X90602Y-60369D01*
X90490Y-60290D01*
X90379Y-60278D01*
X90272Y-60331D01*
X90248Y-60353D01*
X90179Y-60462D01*
X90167Y-60583D01*
X90211Y-60695D01*
X90245Y-60735D01*
X90325Y-60809D01*
X90240Y-61023D01*
X90192Y-61136D01*
X90156Y-61199D01*
X90121Y-61222D01*
X90084Y-61219D01*
X89999Y-61228D01*
X89928Y-61268D01*
X89842Y-61335D01*
X89750Y-61239D01*
X89658Y-61143D01*
X89726Y-61032D01*
X89768Y-60952D01*
X89774Y-60889D01*
X89749Y-60815D01*
X89701Y-60737D01*
X89629Y-60704D01*
X89593Y-60699D01*
X89523Y-60687D01*
X89489Y-60655D01*
X89475Y-60584D01*
X89472Y-60547D01*
X89469Y-60458D01*
X89486Y-60414D01*
X89542Y-60394D01*
X89595Y-60385D01*
X89689Y-60361D01*
X89740Y-60315D01*
X89764Y-60264D01*
X89781Y-60181D01*
X89757Y-60109D01*
X89732Y-60071D01*
X89680Y-59988D01*
X89674Y-59930D01*
X89714Y-59873D01*
X89746Y-59841D01*
X89826Y-59766D01*
X89958Y-59842D01*
X90042Y-59887D01*
X90095Y-59900D01*
X90144Y-59882D01*
X90178Y-59861D01*
X90240Y-59801D01*
X90266Y-59740D01*
X90280Y-59638D01*
X90332Y-59586D01*
X90432Y-59572D01*
X90433Y-59572D01*
X90516Y-59576D01*
X90556Y-59603D01*
X90577Y-59672D01*
X90582Y-59702D01*
X90610Y-59799D01*
X90664Y-59854D01*
X90700Y-59872D01*
X90773Y-59893D01*
X90835Y-59879D01*
X90900Y-59838D01*
X91004Y-59764D01*
X91101Y-59856D01*
X91198Y-59949D01*
X91128Y-60062D01*
X91085Y-60145D01*
X91079Y-60210D01*
X91099Y-60270D01*
X91143Y-60340D01*
X91218Y-60378D01*
X91271Y-60389D01*
X91354Y-60406D01*
X91390Y-60435D01*
X91396Y-60498D01*
X91396Y-60498D01*
X91396Y-60498D01*
G37*
G36*
X84065Y-59776D02*
X84051Y-59776D01*
X84024Y-59772D01*
X83994Y-59798D01*
X83954Y-59863D01*
X83901Y-59976D01*
X83846Y-60099D01*
X83793Y-60213D01*
X83749Y-60295D01*
X83719Y-60333D01*
X83712Y-60333D01*
X83691Y-60292D01*
X83680Y-60267D01*
X83680Y-59524D01*
X83656Y-59468D01*
X83615Y-59457D01*
X83546Y-59477D01*
X83520Y-59524D01*
X83530Y-59557D01*
X83580Y-59591D01*
X83640Y-59583D01*
X83678Y-59542D01*
X83680Y-59524D01*
X83680Y-60267D01*
X83652Y-60205D01*
X83603Y-60087D01*
X83582Y-60032D01*
X83522Y-59891D01*
X83475Y-59805D01*
X83435Y-59764D01*
X83410Y-59757D01*
X83383Y-59762D01*
X83365Y-59784D01*
X83354Y-59833D01*
X83349Y-59922D01*
X83347Y-60060D01*
X83347Y-60157D01*
X83348Y-60326D01*
X83351Y-60439D01*
X83358Y-60508D01*
X83372Y-60543D01*
X83394Y-60556D01*
X83412Y-60557D01*
X83447Y-60549D01*
X83468Y-60516D01*
X83480Y-60444D01*
X83487Y-60334D01*
X83497Y-60110D01*
X83585Y-60325D01*
X83635Y-60434D01*
X83684Y-60515D01*
X83720Y-60550D01*
X83721Y-60550D01*
X83764Y-60525D01*
X83821Y-60438D01*
X83873Y-60334D01*
X83977Y-60107D01*
X83978Y-60329D01*
X83986Y-60471D01*
X84006Y-60550D01*
X84022Y-60566D01*
X84038Y-60602D01*
X84015Y-60674D01*
X83960Y-60772D01*
X83879Y-60882D01*
X83780Y-60992D01*
X83620Y-61133D01*
X83455Y-61228D01*
X83305Y-61274D01*
X83305Y-60232D01*
X83286Y-60173D01*
X83206Y-60065D01*
X83099Y-60010D01*
X82980Y-60013D01*
X82864Y-60075D01*
X82843Y-60094D01*
X82774Y-60163D01*
X82738Y-60124D01*
X82738Y-59437D01*
X82716Y-59367D01*
X82661Y-59316D01*
X82589Y-59299D01*
X82529Y-59325D01*
X82492Y-59387D01*
X82480Y-59468D01*
X82499Y-59532D01*
X82502Y-59535D01*
X82563Y-59557D01*
X82644Y-59548D01*
X82709Y-59512D01*
X82712Y-59509D01*
X82738Y-59437D01*
X82738Y-60124D01*
X82710Y-60094D01*
X82603Y-60020D01*
X82487Y-60006D01*
X82378Y-60047D01*
X82291Y-60142D01*
X82274Y-60173D01*
X82249Y-60292D01*
X82277Y-60399D01*
X82344Y-60484D01*
X82437Y-60538D01*
X82544Y-60551D01*
X82651Y-60514D01*
X82698Y-60475D01*
X82780Y-60394D01*
X82862Y-60475D01*
X82964Y-60540D01*
X83073Y-60550D01*
X83174Y-60514D01*
X83255Y-60443D01*
X83304Y-60346D01*
X83305Y-60232D01*
X83305Y-61274D01*
X83269Y-61286D01*
X83206Y-61293D01*
X83206Y-61037D01*
X83175Y-60977D01*
X83104Y-60943D01*
X83077Y-60941D01*
X83010Y-60960D01*
X82986Y-61020D01*
X82999Y-61102D01*
X83051Y-61148D01*
X83122Y-61148D01*
X83182Y-61104D01*
X83206Y-61037D01*
X83206Y-61293D01*
X83043Y-61312D01*
X82980Y-61315D01*
X82802Y-61316D01*
X82672Y-61306D01*
X82569Y-61283D01*
X82522Y-61266D01*
X82472Y-61240D01*
X82472Y-60837D01*
X82442Y-60776D01*
X82371Y-60743D01*
X82344Y-60741D01*
X82274Y-60767D01*
X82247Y-60835D01*
X82260Y-60909D01*
X82305Y-60950D01*
X82375Y-60951D01*
X82442Y-60912D01*
X82449Y-60904D01*
X82472Y-60837D01*
X82472Y-61240D01*
X82343Y-61173D01*
X82172Y-61052D01*
X82033Y-60921D01*
X82003Y-60884D01*
X81939Y-60790D01*
X81885Y-60691D01*
X81848Y-60603D01*
X81834Y-60542D01*
X81846Y-60524D01*
X81865Y-60493D01*
X81877Y-60413D01*
X81880Y-60322D01*
X81881Y-60210D01*
X81890Y-60151D01*
X81913Y-60128D01*
X81957Y-60128D01*
X81972Y-60130D01*
X82023Y-60141D01*
X82053Y-60168D01*
X82069Y-60230D01*
X82080Y-60340D01*
X82095Y-60458D01*
X82116Y-60523D01*
X82149Y-60550D01*
X82155Y-60551D01*
X82190Y-60548D01*
X82208Y-60510D01*
X82213Y-60424D01*
X82214Y-60397D01*
X82218Y-60275D01*
X82229Y-60161D01*
X82234Y-60128D01*
X82243Y-60056D01*
X82222Y-60028D01*
X82184Y-60024D01*
X82128Y-60038D01*
X82114Y-60058D01*
X82090Y-60073D01*
X82040Y-60053D01*
X81949Y-60024D01*
X81873Y-60017D01*
X81812Y-60009D01*
X81784Y-59973D01*
X81787Y-59902D01*
X81822Y-59784D01*
X81849Y-59710D01*
X81958Y-59503D01*
X82117Y-59313D01*
X82311Y-59158D01*
X82402Y-59106D01*
X82526Y-59050D01*
X82645Y-59017D01*
X82787Y-59000D01*
X82869Y-58996D01*
X83168Y-59010D01*
X83431Y-59081D01*
X83659Y-59207D01*
X83849Y-59388D01*
X83911Y-59470D01*
X83974Y-59569D01*
X84025Y-59663D01*
X84057Y-59736D01*
X84065Y-59776D01*
X84065Y-59776D01*
X84065Y-59776D01*
G37*
G36*
X81714Y-60724D02*
X81630Y-60724D01*
X81570Y-60713D01*
X81549Y-60667D01*
X81547Y-60625D01*
X81542Y-60557D01*
X81536Y-60553D01*
X81536Y-60265D01*
X81511Y-60188D01*
X81451Y-60142D01*
X81367Y-60144D01*
X81363Y-60145D01*
X81312Y-60195D01*
X81290Y-60276D01*
X81302Y-60355D01*
X81314Y-60374D01*
X81386Y-60419D01*
X81463Y-60408D01*
X81514Y-60356D01*
X81536Y-60265D01*
X81536Y-60553D01*
X81516Y-60543D01*
X81471Y-60560D01*
X81367Y-60574D01*
X81260Y-60540D01*
X81178Y-60466D01*
X81175Y-60461D01*
X81142Y-60416D01*
X81119Y-60428D01*
X81098Y-60468D01*
X81071Y-60506D01*
X81026Y-60529D01*
X80947Y-60541D01*
X80822Y-60546D01*
X80583Y-60552D01*
X80571Y-60330D01*
X80560Y-60107D01*
X80553Y-60332D01*
X80548Y-60451D01*
X80539Y-60519D01*
X80518Y-60549D01*
X80480Y-60557D01*
X80464Y-60557D01*
X80415Y-60552D01*
X80391Y-60527D01*
X80381Y-60464D01*
X80380Y-60378D01*
X80369Y-60240D01*
X80336Y-60162D01*
X80330Y-60157D01*
X80268Y-60132D01*
X80219Y-60168D01*
X80189Y-60259D01*
X80180Y-60378D01*
X80178Y-60481D01*
X80166Y-60535D01*
X80137Y-60554D01*
X80093Y-60557D01*
X80032Y-60549D01*
X80020Y-60511D01*
X80028Y-60470D01*
X80050Y-60383D01*
X79973Y-60470D01*
X79922Y-60520D01*
X79876Y-60545D01*
X79876Y-60307D01*
X79869Y-60217D01*
X79831Y-60158D01*
X79759Y-60133D01*
X79697Y-60137D01*
X79638Y-60165D01*
X79616Y-60222D01*
X79614Y-60272D01*
X79625Y-60353D01*
X79652Y-60400D01*
X79655Y-60402D01*
X79760Y-60419D01*
X79840Y-60384D01*
X79876Y-60307D01*
X79876Y-60545D01*
X79867Y-60550D01*
X79790Y-60563D01*
X79672Y-60564D01*
X79605Y-60562D01*
X79447Y-60557D01*
X79447Y-60378D01*
X79436Y-60240D01*
X79402Y-60162D01*
X79397Y-60157D01*
X79334Y-60132D01*
X79286Y-60168D01*
X79256Y-60259D01*
X79247Y-60378D01*
X79244Y-60482D01*
X79231Y-60536D01*
X79202Y-60556D01*
X79180Y-60557D01*
X79146Y-60551D01*
X79126Y-60524D01*
X79116Y-60461D01*
X79114Y-60350D01*
X79114Y-60311D01*
X79120Y-60156D01*
X79143Y-60058D01*
X79189Y-60007D01*
X79265Y-59994D01*
X79330Y-60001D01*
X79447Y-60020D01*
X79447Y-59888D01*
X79451Y-59804D01*
X79473Y-59766D01*
X79527Y-59757D01*
X79545Y-59757D01*
X79609Y-59762D01*
X79632Y-59790D01*
X79626Y-59862D01*
X79624Y-59874D01*
X79605Y-59991D01*
X79758Y-59991D01*
X79865Y-59999D01*
X79933Y-60030D01*
X79970Y-60069D01*
X80029Y-60148D01*
X80064Y-60077D01*
X80126Y-60018D01*
X80222Y-59995D01*
X80325Y-60013D01*
X80345Y-60023D01*
X80397Y-60042D01*
X80413Y-60033D01*
X80443Y-60021D01*
X80520Y-60016D01*
X80580Y-60019D01*
X80747Y-60030D01*
X80747Y-60190D01*
X80762Y-60317D01*
X80803Y-60396D01*
X80867Y-60419D01*
X80896Y-60412D01*
X80928Y-60377D01*
X80944Y-60295D01*
X80947Y-60208D01*
X80949Y-60103D01*
X80960Y-60048D01*
X80988Y-60027D01*
X81030Y-60024D01*
X81092Y-60036D01*
X81113Y-60087D01*
X81115Y-60116D01*
X81116Y-60207D01*
X81165Y-60118D01*
X81206Y-60057D01*
X81260Y-60021D01*
X81342Y-60002D01*
X81470Y-59996D01*
X81522Y-59996D01*
X81714Y-59996D01*
X81714Y-60360D01*
X81714Y-60724D01*
X81714Y-60724D01*
X81714Y-60724D01*
G37*
G36*
X81814Y-60441D02*
X81797Y-60457D01*
X81780Y-60441D01*
X81797Y-60424D01*
X81814Y-60441D01*
X81814Y-60441D01*
X81814Y-60441D01*
G37*
G36*
X84114Y-60407D02*
X84097Y-60424D01*
X84080Y-60407D01*
X84097Y-60391D01*
X84114Y-60407D01*
X84114Y-60407D01*
X84114Y-60407D01*
G37*
G36*
X81773Y-60150D02*
X81769Y-60166D01*
X81757Y-60170D01*
X81752Y-60124D01*
X81757Y-60077D01*
X81769Y-60082D01*
X81773Y-60150D01*
X81773Y-60150D01*
X81773Y-60150D01*
G37*
G36*
X84114Y-59907D02*
X84097Y-59924D01*
X84080Y-59907D01*
X84097Y-59891D01*
X84114Y-59907D01*
X84114Y-59907D01*
X84114Y-59907D01*
G37*
G36*
X82677Y-60272D02*
X82658Y-60338D01*
X82614Y-60391D01*
X82551Y-60444D01*
X82499Y-60450D01*
X82439Y-60421D01*
X82395Y-60362D01*
X82381Y-60275D01*
X82401Y-60191D01*
X82420Y-60164D01*
X82495Y-60127D01*
X82580Y-60135D01*
X82643Y-60183D01*
X82646Y-60188D01*
X82677Y-60272D01*
X82677Y-60272D01*
X82677Y-60272D01*
G37*
G36*
X83176Y-60238D02*
X83175Y-60328D01*
X83141Y-60403D01*
X83116Y-60423D01*
X83052Y-60452D01*
X83008Y-60445D01*
X82952Y-60395D01*
X82947Y-60391D01*
X82891Y-60318D01*
X82888Y-60250D01*
X82915Y-60188D01*
X82975Y-60137D01*
X83059Y-60126D01*
X83136Y-60160D01*
X83140Y-60164D01*
X83176Y-60238D01*
X83176Y-60238D01*
X83176Y-60238D01*
G37*
G54D13*
X90492Y-59217D02*
X90492Y-58817D01*
X90339Y-58817D01*
X90301Y-58836D01*
X90282Y-58855D01*
X90263Y-58893D01*
X90263Y-58950D01*
X90282Y-58988D01*
X90301Y-59007D01*
X90339Y-59026D01*
X90492Y-59026D01*
X89882Y-59217D02*
X90111Y-59217D01*
X89996Y-59217D02*
X89996Y-58817D01*
X90034Y-58874D01*
X90073Y-58912D01*
X90111Y-58931D01*
M02*
