G04 (created by PCBNEW (2013-may-18)-stable) date Sun 16 Aug 2015 06:42:24 PM CST*
%MOIN*%
G04 Gerber Fmt 3.4, Leading zero omitted, Abs format*
%FSLAX34Y34*%
G01*
G70*
G90*
G04 APERTURE LIST*
%ADD10C,0.00590551*%
%ADD11C,0.00787402*%
%ADD12C,0.0001*%
%ADD13C,0.008*%
G04 APERTURE END LIST*
G54D10*
G54D11*
X95697Y-65907D02*
X95697Y-65513D01*
X95603Y-65513D01*
X95547Y-65532D01*
X95509Y-65569D01*
X95491Y-65607D01*
X95472Y-65682D01*
X95472Y-65738D01*
X95491Y-65813D01*
X95509Y-65851D01*
X95547Y-65888D01*
X95603Y-65907D01*
X95697Y-65907D01*
X95153Y-65888D02*
X95191Y-65907D01*
X95266Y-65907D01*
X95303Y-65888D01*
X95322Y-65851D01*
X95322Y-65701D01*
X95303Y-65663D01*
X95266Y-65644D01*
X95191Y-65644D01*
X95153Y-65663D01*
X95134Y-65701D01*
X95134Y-65738D01*
X95322Y-65776D01*
X94985Y-65888D02*
X94947Y-65907D01*
X94872Y-65907D01*
X94835Y-65888D01*
X94816Y-65851D01*
X94816Y-65832D01*
X94835Y-65794D01*
X94872Y-65776D01*
X94928Y-65776D01*
X94966Y-65757D01*
X94985Y-65719D01*
X94985Y-65701D01*
X94966Y-65663D01*
X94928Y-65644D01*
X94872Y-65644D01*
X94835Y-65663D01*
X94647Y-65907D02*
X94647Y-65644D01*
X94647Y-65513D02*
X94666Y-65532D01*
X94647Y-65551D01*
X94628Y-65532D01*
X94647Y-65513D01*
X94647Y-65551D01*
X94291Y-65644D02*
X94291Y-65963D01*
X94310Y-66001D01*
X94328Y-66019D01*
X94366Y-66038D01*
X94422Y-66038D01*
X94460Y-66019D01*
X94291Y-65888D02*
X94328Y-65907D01*
X94403Y-65907D01*
X94441Y-65888D01*
X94460Y-65869D01*
X94478Y-65832D01*
X94478Y-65719D01*
X94460Y-65682D01*
X94441Y-65663D01*
X94403Y-65644D01*
X94328Y-65644D01*
X94291Y-65663D01*
X94103Y-65644D02*
X94103Y-65907D01*
X94103Y-65682D02*
X94085Y-65663D01*
X94047Y-65644D01*
X93991Y-65644D01*
X93953Y-65663D01*
X93935Y-65701D01*
X93935Y-65907D01*
X93597Y-65888D02*
X93635Y-65907D01*
X93710Y-65907D01*
X93747Y-65888D01*
X93766Y-65851D01*
X93766Y-65701D01*
X93747Y-65663D01*
X93710Y-65644D01*
X93635Y-65644D01*
X93597Y-65663D01*
X93578Y-65701D01*
X93578Y-65738D01*
X93766Y-65776D01*
X93241Y-65907D02*
X93241Y-65513D01*
X93241Y-65888D02*
X93278Y-65907D01*
X93353Y-65907D01*
X93391Y-65888D01*
X93410Y-65869D01*
X93428Y-65832D01*
X93428Y-65719D01*
X93410Y-65682D01*
X93391Y-65663D01*
X93353Y-65644D01*
X93278Y-65644D01*
X93241Y-65663D01*
X92754Y-65907D02*
X92754Y-65644D01*
X92754Y-65513D02*
X92772Y-65532D01*
X92754Y-65551D01*
X92735Y-65532D01*
X92754Y-65513D01*
X92754Y-65551D01*
X92566Y-65644D02*
X92566Y-65907D01*
X92566Y-65682D02*
X92547Y-65663D01*
X92510Y-65644D01*
X92454Y-65644D01*
X92416Y-65663D01*
X92397Y-65701D01*
X92397Y-65907D01*
X91966Y-65513D02*
X91741Y-65513D01*
X91854Y-65907D02*
X91854Y-65513D01*
X91441Y-65907D02*
X91441Y-65701D01*
X91460Y-65663D01*
X91497Y-65644D01*
X91572Y-65644D01*
X91610Y-65663D01*
X91441Y-65888D02*
X91479Y-65907D01*
X91572Y-65907D01*
X91610Y-65888D01*
X91629Y-65851D01*
X91629Y-65813D01*
X91610Y-65776D01*
X91572Y-65757D01*
X91479Y-65757D01*
X91441Y-65738D01*
X91254Y-65907D02*
X91254Y-65644D01*
X91254Y-65513D02*
X91272Y-65532D01*
X91254Y-65551D01*
X91235Y-65532D01*
X91254Y-65513D01*
X91254Y-65551D01*
X91104Y-65644D02*
X91029Y-65907D01*
X90954Y-65719D01*
X90879Y-65907D01*
X90804Y-65644D01*
X90485Y-65907D02*
X90485Y-65701D01*
X90504Y-65663D01*
X90541Y-65644D01*
X90616Y-65644D01*
X90654Y-65663D01*
X90485Y-65888D02*
X90523Y-65907D01*
X90616Y-65907D01*
X90654Y-65888D01*
X90673Y-65851D01*
X90673Y-65813D01*
X90654Y-65776D01*
X90616Y-65757D01*
X90523Y-65757D01*
X90485Y-65738D01*
X90298Y-65644D02*
X90298Y-65907D01*
X90298Y-65682D02*
X90279Y-65663D01*
X90241Y-65644D01*
X90185Y-65644D01*
X90148Y-65663D01*
X90129Y-65701D01*
X90129Y-65907D01*
X85778Y-60986D02*
X85778Y-60723D01*
X85778Y-60761D02*
X85759Y-60742D01*
X85721Y-60723D01*
X85665Y-60723D01*
X85628Y-60742D01*
X85609Y-60779D01*
X85609Y-60986D01*
X85609Y-60779D02*
X85590Y-60742D01*
X85553Y-60723D01*
X85496Y-60723D01*
X85459Y-60742D01*
X85440Y-60779D01*
X85440Y-60986D01*
X85196Y-60986D02*
X85234Y-60967D01*
X85253Y-60948D01*
X85271Y-60911D01*
X85271Y-60798D01*
X85253Y-60761D01*
X85234Y-60742D01*
X85196Y-60723D01*
X85140Y-60723D01*
X85103Y-60742D01*
X85084Y-60761D01*
X85065Y-60798D01*
X85065Y-60911D01*
X85084Y-60948D01*
X85103Y-60967D01*
X85140Y-60986D01*
X85196Y-60986D01*
X84840Y-60986D02*
X84878Y-60967D01*
X84896Y-60948D01*
X84915Y-60911D01*
X84915Y-60798D01*
X84896Y-60761D01*
X84878Y-60742D01*
X84840Y-60723D01*
X84784Y-60723D01*
X84746Y-60742D01*
X84728Y-60761D01*
X84709Y-60798D01*
X84709Y-60911D01*
X84728Y-60948D01*
X84746Y-60967D01*
X84784Y-60986D01*
X84840Y-60986D01*
X84540Y-60723D02*
X84540Y-60986D01*
X84540Y-60761D02*
X84521Y-60742D01*
X84484Y-60723D01*
X84428Y-60723D01*
X84390Y-60742D01*
X84371Y-60779D01*
X84371Y-60986D01*
X84184Y-60723D02*
X84184Y-61117D01*
X84184Y-60742D02*
X84146Y-60723D01*
X84071Y-60723D01*
X84034Y-60742D01*
X84015Y-60761D01*
X83997Y-60798D01*
X83997Y-60911D01*
X84015Y-60948D01*
X84034Y-60967D01*
X84071Y-60986D01*
X84146Y-60986D01*
X84184Y-60967D01*
X83659Y-60723D02*
X83659Y-60986D01*
X83828Y-60723D02*
X83828Y-60929D01*
X83809Y-60967D01*
X83772Y-60986D01*
X83715Y-60986D01*
X83678Y-60967D01*
X83659Y-60948D01*
X83472Y-60723D02*
X83472Y-60986D01*
X83472Y-60761D02*
X83453Y-60742D01*
X83415Y-60723D01*
X83359Y-60723D01*
X83322Y-60742D01*
X83303Y-60779D01*
X83303Y-60986D01*
X82947Y-60967D02*
X82984Y-60986D01*
X83059Y-60986D01*
X83097Y-60967D01*
X83115Y-60948D01*
X83134Y-60911D01*
X83134Y-60798D01*
X83115Y-60761D01*
X83097Y-60742D01*
X83059Y-60723D01*
X82984Y-60723D01*
X82947Y-60742D01*
X82778Y-60986D02*
X82778Y-60592D01*
X82609Y-60986D02*
X82609Y-60779D01*
X82628Y-60742D01*
X82665Y-60723D01*
X82722Y-60723D01*
X82759Y-60742D01*
X82778Y-60761D01*
X82422Y-60948D02*
X82403Y-60967D01*
X82422Y-60986D01*
X82440Y-60967D01*
X82422Y-60948D01*
X82422Y-60986D01*
X82178Y-60986D02*
X82215Y-60967D01*
X82234Y-60948D01*
X82253Y-60911D01*
X82253Y-60798D01*
X82234Y-60761D01*
X82215Y-60742D01*
X82178Y-60723D01*
X82122Y-60723D01*
X82084Y-60742D01*
X82065Y-60761D01*
X82047Y-60798D01*
X82047Y-60911D01*
X82065Y-60948D01*
X82084Y-60967D01*
X82122Y-60986D01*
X82178Y-60986D01*
X81878Y-60986D02*
X81878Y-60723D01*
X81878Y-60798D02*
X81859Y-60761D01*
X81841Y-60742D01*
X81803Y-60723D01*
X81766Y-60723D01*
X81466Y-60723D02*
X81466Y-61042D01*
X81484Y-61079D01*
X81503Y-61098D01*
X81541Y-61117D01*
X81597Y-61117D01*
X81634Y-61098D01*
X81466Y-60967D02*
X81503Y-60986D01*
X81578Y-60986D01*
X81616Y-60967D01*
X81634Y-60948D01*
X81653Y-60911D01*
X81653Y-60798D01*
X81634Y-60761D01*
X81616Y-60742D01*
X81578Y-60723D01*
X81503Y-60723D01*
X81466Y-60742D01*
X81799Y-65869D02*
X81818Y-65888D01*
X81874Y-65907D01*
X81912Y-65907D01*
X81968Y-65888D01*
X82005Y-65851D01*
X82024Y-65813D01*
X82043Y-65738D01*
X82043Y-65682D01*
X82024Y-65607D01*
X82005Y-65569D01*
X81968Y-65532D01*
X81912Y-65513D01*
X81874Y-65513D01*
X81818Y-65532D01*
X81799Y-65551D01*
X81631Y-65701D02*
X81499Y-65701D01*
X81443Y-65907D02*
X81631Y-65907D01*
X81631Y-65513D01*
X81443Y-65513D01*
X81049Y-65907D02*
X81181Y-65719D01*
X81274Y-65907D02*
X81274Y-65513D01*
X81124Y-65513D01*
X81087Y-65532D01*
X81068Y-65551D01*
X81049Y-65588D01*
X81049Y-65644D01*
X81068Y-65682D01*
X81087Y-65701D01*
X81124Y-65719D01*
X81274Y-65719D01*
X80881Y-65907D02*
X80881Y-65513D01*
X80656Y-65907D01*
X80656Y-65513D01*
X80093Y-65513D02*
X80018Y-65513D01*
X79981Y-65532D01*
X79943Y-65569D01*
X79925Y-65644D01*
X79925Y-65776D01*
X79943Y-65851D01*
X79981Y-65888D01*
X80018Y-65907D01*
X80093Y-65907D01*
X80131Y-65888D01*
X80168Y-65851D01*
X80187Y-65776D01*
X80187Y-65644D01*
X80168Y-65569D01*
X80131Y-65532D01*
X80093Y-65513D01*
X79756Y-65907D02*
X79756Y-65513D01*
X79756Y-65701D02*
X79531Y-65701D01*
X79531Y-65907D02*
X79531Y-65513D01*
X79156Y-65907D02*
X79343Y-65907D01*
X79343Y-65513D01*
X78518Y-65907D02*
X78743Y-65907D01*
X78631Y-65907D02*
X78631Y-65513D01*
X78668Y-65569D01*
X78706Y-65607D01*
X78743Y-65626D01*
X78350Y-65869D02*
X78331Y-65888D01*
X78350Y-65907D01*
X78368Y-65888D01*
X78350Y-65869D01*
X78350Y-65907D01*
X78181Y-65551D02*
X78162Y-65532D01*
X78125Y-65513D01*
X78031Y-65513D01*
X77994Y-65532D01*
X77975Y-65551D01*
X77956Y-65588D01*
X77956Y-65626D01*
X77975Y-65682D01*
X78200Y-65907D01*
X77956Y-65907D01*
G54D10*
X90629Y-57007D02*
X90629Y-58740D01*
X90629Y-58740D02*
X82598Y-58740D01*
X82598Y-58740D02*
X82598Y-57007D01*
X82598Y-57007D02*
X90629Y-57007D01*
G54D12*
G36*
X84388Y-65616D02*
X84385Y-65668D01*
X84374Y-65756D01*
X84348Y-65798D01*
X84290Y-65814D01*
X84265Y-65817D01*
X84178Y-65840D01*
X84121Y-65901D01*
X84102Y-65938D01*
X84070Y-66015D01*
X84072Y-66070D01*
X84110Y-66136D01*
X84124Y-66155D01*
X84199Y-66261D01*
X84107Y-66357D01*
X84015Y-66454D01*
X83918Y-66385D01*
X83836Y-66343D01*
X83764Y-66331D01*
X83758Y-66332D01*
X83719Y-66330D01*
X83682Y-66293D01*
X83640Y-66209D01*
X83614Y-66145D01*
X83532Y-65940D01*
X83612Y-65846D01*
X83679Y-65730D01*
X83680Y-65619D01*
X83614Y-65509D01*
X83594Y-65487D01*
X83482Y-65408D01*
X83371Y-65396D01*
X83264Y-65449D01*
X83240Y-65471D01*
X83171Y-65580D01*
X83159Y-65701D01*
X83203Y-65813D01*
X83237Y-65853D01*
X83317Y-65927D01*
X83232Y-66141D01*
X83184Y-66254D01*
X83148Y-66317D01*
X83113Y-66340D01*
X83076Y-66337D01*
X82991Y-66346D01*
X82920Y-66386D01*
X82834Y-66453D01*
X82742Y-66357D01*
X82650Y-66261D01*
X82718Y-66150D01*
X82760Y-66070D01*
X82766Y-66007D01*
X82741Y-65933D01*
X82693Y-65855D01*
X82621Y-65822D01*
X82585Y-65817D01*
X82515Y-65805D01*
X82481Y-65773D01*
X82467Y-65702D01*
X82464Y-65665D01*
X82461Y-65576D01*
X82478Y-65532D01*
X82534Y-65512D01*
X82587Y-65503D01*
X82681Y-65479D01*
X82732Y-65433D01*
X82756Y-65382D01*
X82773Y-65299D01*
X82749Y-65227D01*
X82724Y-65189D01*
X82672Y-65106D01*
X82666Y-65048D01*
X82706Y-64991D01*
X82738Y-64959D01*
X82818Y-64884D01*
X82950Y-64960D01*
X83034Y-65005D01*
X83087Y-65018D01*
X83136Y-65000D01*
X83170Y-64979D01*
X83232Y-64919D01*
X83258Y-64858D01*
X83272Y-64756D01*
X83324Y-64704D01*
X83424Y-64690D01*
X83425Y-64690D01*
X83508Y-64694D01*
X83548Y-64721D01*
X83569Y-64790D01*
X83574Y-64820D01*
X83602Y-64917D01*
X83656Y-64972D01*
X83692Y-64990D01*
X83765Y-65011D01*
X83827Y-64997D01*
X83892Y-64956D01*
X83996Y-64882D01*
X84093Y-64974D01*
X84190Y-65067D01*
X84120Y-65180D01*
X84077Y-65263D01*
X84071Y-65328D01*
X84091Y-65388D01*
X84135Y-65458D01*
X84210Y-65496D01*
X84263Y-65507D01*
X84346Y-65524D01*
X84382Y-65553D01*
X84388Y-65616D01*
X84388Y-65616D01*
X84388Y-65616D01*
G37*
G36*
X88592Y-59697D02*
X88578Y-59697D01*
X88551Y-59693D01*
X88521Y-59719D01*
X88481Y-59784D01*
X88428Y-59897D01*
X88373Y-60020D01*
X88320Y-60134D01*
X88276Y-60216D01*
X88246Y-60254D01*
X88239Y-60254D01*
X88218Y-60213D01*
X88207Y-60188D01*
X88207Y-59445D01*
X88183Y-59389D01*
X88142Y-59378D01*
X88073Y-59398D01*
X88047Y-59445D01*
X88057Y-59478D01*
X88107Y-59512D01*
X88167Y-59504D01*
X88205Y-59463D01*
X88207Y-59445D01*
X88207Y-60188D01*
X88179Y-60126D01*
X88130Y-60008D01*
X88109Y-59953D01*
X88049Y-59812D01*
X88002Y-59726D01*
X87962Y-59685D01*
X87937Y-59678D01*
X87910Y-59683D01*
X87892Y-59705D01*
X87881Y-59754D01*
X87876Y-59843D01*
X87874Y-59981D01*
X87874Y-60078D01*
X87875Y-60247D01*
X87878Y-60360D01*
X87885Y-60429D01*
X87899Y-60464D01*
X87921Y-60477D01*
X87939Y-60478D01*
X87974Y-60470D01*
X87995Y-60437D01*
X88007Y-60365D01*
X88014Y-60255D01*
X88024Y-60031D01*
X88112Y-60246D01*
X88162Y-60355D01*
X88211Y-60436D01*
X88247Y-60471D01*
X88248Y-60471D01*
X88291Y-60446D01*
X88348Y-60359D01*
X88400Y-60255D01*
X88504Y-60028D01*
X88505Y-60250D01*
X88513Y-60392D01*
X88533Y-60471D01*
X88549Y-60487D01*
X88565Y-60523D01*
X88542Y-60595D01*
X88487Y-60693D01*
X88406Y-60803D01*
X88307Y-60913D01*
X88147Y-61054D01*
X87982Y-61149D01*
X87832Y-61195D01*
X87832Y-60153D01*
X87813Y-60094D01*
X87733Y-59986D01*
X87626Y-59931D01*
X87507Y-59934D01*
X87391Y-59996D01*
X87370Y-60015D01*
X87301Y-60084D01*
X87265Y-60045D01*
X87265Y-59358D01*
X87243Y-59288D01*
X87188Y-59237D01*
X87116Y-59220D01*
X87056Y-59246D01*
X87019Y-59308D01*
X87007Y-59389D01*
X87026Y-59453D01*
X87029Y-59456D01*
X87090Y-59478D01*
X87171Y-59469D01*
X87236Y-59433D01*
X87239Y-59430D01*
X87265Y-59358D01*
X87265Y-60045D01*
X87237Y-60015D01*
X87130Y-59941D01*
X87014Y-59927D01*
X86905Y-59968D01*
X86818Y-60063D01*
X86801Y-60094D01*
X86776Y-60213D01*
X86804Y-60320D01*
X86871Y-60405D01*
X86964Y-60459D01*
X87071Y-60472D01*
X87178Y-60435D01*
X87225Y-60396D01*
X87307Y-60315D01*
X87389Y-60396D01*
X87491Y-60461D01*
X87600Y-60471D01*
X87701Y-60435D01*
X87782Y-60364D01*
X87831Y-60267D01*
X87832Y-60153D01*
X87832Y-61195D01*
X87796Y-61207D01*
X87733Y-61214D01*
X87733Y-60958D01*
X87702Y-60898D01*
X87631Y-60864D01*
X87604Y-60862D01*
X87537Y-60881D01*
X87513Y-60941D01*
X87526Y-61023D01*
X87578Y-61069D01*
X87649Y-61069D01*
X87709Y-61025D01*
X87733Y-60958D01*
X87733Y-61214D01*
X87570Y-61233D01*
X87507Y-61236D01*
X87329Y-61237D01*
X87199Y-61227D01*
X87096Y-61204D01*
X87049Y-61187D01*
X86999Y-61161D01*
X86999Y-60758D01*
X86969Y-60697D01*
X86898Y-60664D01*
X86871Y-60662D01*
X86801Y-60688D01*
X86774Y-60756D01*
X86787Y-60830D01*
X86832Y-60871D01*
X86902Y-60872D01*
X86969Y-60833D01*
X86976Y-60825D01*
X86999Y-60758D01*
X86999Y-61161D01*
X86870Y-61094D01*
X86699Y-60973D01*
X86560Y-60842D01*
X86530Y-60805D01*
X86466Y-60711D01*
X86412Y-60612D01*
X86375Y-60524D01*
X86361Y-60463D01*
X86373Y-60445D01*
X86392Y-60414D01*
X86404Y-60334D01*
X86407Y-60243D01*
X86408Y-60131D01*
X86417Y-60072D01*
X86440Y-60049D01*
X86484Y-60049D01*
X86499Y-60051D01*
X86550Y-60062D01*
X86580Y-60089D01*
X86596Y-60151D01*
X86607Y-60261D01*
X86622Y-60379D01*
X86643Y-60444D01*
X86676Y-60471D01*
X86682Y-60472D01*
X86717Y-60469D01*
X86735Y-60431D01*
X86740Y-60345D01*
X86741Y-60318D01*
X86745Y-60196D01*
X86756Y-60082D01*
X86761Y-60049D01*
X86770Y-59977D01*
X86749Y-59949D01*
X86711Y-59945D01*
X86655Y-59959D01*
X86641Y-59979D01*
X86617Y-59994D01*
X86567Y-59974D01*
X86476Y-59945D01*
X86400Y-59938D01*
X86339Y-59930D01*
X86311Y-59894D01*
X86314Y-59823D01*
X86349Y-59705D01*
X86376Y-59631D01*
X86485Y-59424D01*
X86644Y-59234D01*
X86838Y-59079D01*
X86929Y-59027D01*
X87053Y-58971D01*
X87172Y-58938D01*
X87314Y-58921D01*
X87396Y-58917D01*
X87695Y-58931D01*
X87958Y-59002D01*
X88186Y-59128D01*
X88376Y-59309D01*
X88438Y-59391D01*
X88501Y-59490D01*
X88552Y-59584D01*
X88584Y-59657D01*
X88592Y-59697D01*
X88592Y-59697D01*
X88592Y-59697D01*
G37*
G36*
X86241Y-60645D02*
X86157Y-60645D01*
X86097Y-60634D01*
X86076Y-60588D01*
X86074Y-60546D01*
X86069Y-60478D01*
X86063Y-60474D01*
X86063Y-60186D01*
X86038Y-60109D01*
X85978Y-60063D01*
X85894Y-60065D01*
X85890Y-60066D01*
X85839Y-60116D01*
X85817Y-60197D01*
X85829Y-60276D01*
X85841Y-60295D01*
X85913Y-60340D01*
X85990Y-60329D01*
X86041Y-60277D01*
X86063Y-60186D01*
X86063Y-60474D01*
X86043Y-60464D01*
X85998Y-60481D01*
X85894Y-60495D01*
X85787Y-60461D01*
X85705Y-60387D01*
X85702Y-60382D01*
X85669Y-60337D01*
X85646Y-60349D01*
X85625Y-60389D01*
X85598Y-60427D01*
X85553Y-60450D01*
X85474Y-60462D01*
X85349Y-60467D01*
X85110Y-60473D01*
X85098Y-60251D01*
X85087Y-60028D01*
X85080Y-60253D01*
X85075Y-60372D01*
X85066Y-60440D01*
X85045Y-60470D01*
X85007Y-60478D01*
X84991Y-60478D01*
X84942Y-60473D01*
X84918Y-60448D01*
X84908Y-60385D01*
X84907Y-60299D01*
X84896Y-60161D01*
X84863Y-60083D01*
X84857Y-60078D01*
X84795Y-60053D01*
X84746Y-60089D01*
X84716Y-60180D01*
X84707Y-60299D01*
X84705Y-60402D01*
X84693Y-60456D01*
X84664Y-60475D01*
X84620Y-60478D01*
X84559Y-60470D01*
X84547Y-60432D01*
X84555Y-60391D01*
X84577Y-60304D01*
X84500Y-60391D01*
X84449Y-60441D01*
X84403Y-60466D01*
X84403Y-60228D01*
X84396Y-60138D01*
X84358Y-60079D01*
X84286Y-60054D01*
X84224Y-60058D01*
X84165Y-60086D01*
X84143Y-60143D01*
X84141Y-60193D01*
X84152Y-60274D01*
X84179Y-60321D01*
X84182Y-60323D01*
X84287Y-60340D01*
X84367Y-60305D01*
X84403Y-60228D01*
X84403Y-60466D01*
X84394Y-60471D01*
X84317Y-60484D01*
X84199Y-60485D01*
X84132Y-60483D01*
X83974Y-60478D01*
X83974Y-60299D01*
X83963Y-60161D01*
X83929Y-60083D01*
X83924Y-60078D01*
X83861Y-60053D01*
X83813Y-60089D01*
X83783Y-60180D01*
X83774Y-60299D01*
X83771Y-60403D01*
X83758Y-60457D01*
X83729Y-60477D01*
X83707Y-60478D01*
X83673Y-60472D01*
X83653Y-60445D01*
X83643Y-60382D01*
X83641Y-60271D01*
X83641Y-60232D01*
X83647Y-60077D01*
X83670Y-59979D01*
X83716Y-59928D01*
X83792Y-59915D01*
X83857Y-59922D01*
X83974Y-59941D01*
X83974Y-59809D01*
X83978Y-59725D01*
X84000Y-59687D01*
X84054Y-59678D01*
X84072Y-59678D01*
X84136Y-59683D01*
X84159Y-59711D01*
X84153Y-59783D01*
X84151Y-59795D01*
X84132Y-59912D01*
X84285Y-59912D01*
X84392Y-59920D01*
X84460Y-59951D01*
X84497Y-59990D01*
X84556Y-60069D01*
X84591Y-59998D01*
X84653Y-59939D01*
X84749Y-59916D01*
X84852Y-59934D01*
X84872Y-59944D01*
X84924Y-59963D01*
X84940Y-59954D01*
X84970Y-59942D01*
X85047Y-59937D01*
X85107Y-59940D01*
X85274Y-59951D01*
X85274Y-60111D01*
X85289Y-60238D01*
X85330Y-60317D01*
X85394Y-60340D01*
X85423Y-60333D01*
X85455Y-60298D01*
X85471Y-60216D01*
X85474Y-60129D01*
X85476Y-60024D01*
X85487Y-59969D01*
X85515Y-59948D01*
X85557Y-59945D01*
X85619Y-59957D01*
X85640Y-60008D01*
X85642Y-60037D01*
X85643Y-60128D01*
X85692Y-60039D01*
X85733Y-59978D01*
X85787Y-59942D01*
X85869Y-59923D01*
X85997Y-59917D01*
X86049Y-59917D01*
X86241Y-59917D01*
X86241Y-60281D01*
X86241Y-60645D01*
X86241Y-60645D01*
X86241Y-60645D01*
G37*
G36*
X86341Y-60362D02*
X86324Y-60378D01*
X86307Y-60362D01*
X86324Y-60345D01*
X86341Y-60362D01*
X86341Y-60362D01*
X86341Y-60362D01*
G37*
G36*
X88641Y-60328D02*
X88624Y-60345D01*
X88607Y-60328D01*
X88624Y-60312D01*
X88641Y-60328D01*
X88641Y-60328D01*
X88641Y-60328D01*
G37*
G36*
X86300Y-60071D02*
X86296Y-60087D01*
X86284Y-60091D01*
X86279Y-60045D01*
X86284Y-59998D01*
X86296Y-60003D01*
X86300Y-60071D01*
X86300Y-60071D01*
X86300Y-60071D01*
G37*
G36*
X88641Y-59828D02*
X88624Y-59845D01*
X88607Y-59828D01*
X88624Y-59812D01*
X88641Y-59828D01*
X88641Y-59828D01*
X88641Y-59828D01*
G37*
G36*
X87204Y-60193D02*
X87185Y-60259D01*
X87141Y-60312D01*
X87078Y-60365D01*
X87026Y-60371D01*
X86966Y-60342D01*
X86922Y-60283D01*
X86908Y-60196D01*
X86928Y-60112D01*
X86947Y-60085D01*
X87022Y-60048D01*
X87107Y-60056D01*
X87170Y-60104D01*
X87173Y-60109D01*
X87204Y-60193D01*
X87204Y-60193D01*
X87204Y-60193D01*
G37*
G36*
X87703Y-60159D02*
X87702Y-60249D01*
X87668Y-60324D01*
X87643Y-60344D01*
X87579Y-60373D01*
X87535Y-60366D01*
X87479Y-60316D01*
X87474Y-60312D01*
X87418Y-60239D01*
X87415Y-60171D01*
X87442Y-60109D01*
X87502Y-60058D01*
X87586Y-60047D01*
X87663Y-60081D01*
X87667Y-60085D01*
X87703Y-60159D01*
X87703Y-60159D01*
X87703Y-60159D01*
G37*
G54D13*
X90492Y-59217D02*
X90492Y-58817D01*
X90339Y-58817D01*
X90301Y-58836D01*
X90282Y-58855D01*
X90263Y-58893D01*
X90263Y-58950D01*
X90282Y-58988D01*
X90301Y-59007D01*
X90339Y-59026D01*
X90492Y-59026D01*
X89882Y-59217D02*
X90111Y-59217D01*
X89996Y-59217D02*
X89996Y-58817D01*
X90034Y-58874D01*
X90073Y-58912D01*
X90111Y-58931D01*
M02*
