M48
INCH,TZ
T1C0.025
T2C0.031
%
G90
G05
T1
X081417Y-062559
X082559Y-063740
X085276Y-062559
X086614Y-063819
X090630Y-061969
X090630Y-062992
T2
X080512Y-061024
X080512Y-061811
X080512Y-062598
X080512Y-063386
X083071Y-057480
X083071Y-058268
X083858Y-057480
X083858Y-058268
X084449Y-061024
X084449Y-061811
X084449Y-062598
X084449Y-063386
X084646Y-057480
X084646Y-058268
X085433Y-057480
X085433Y-058268
X086220Y-057480
X086220Y-058268
X087008Y-057480
X087008Y-058268
X087795Y-057480
X087795Y-058268
X088386Y-061024
X088386Y-061811
X088386Y-062598
X088386Y-063386
X088583Y-057480
X088583Y-058268
X089370Y-057480
X089370Y-058268
X090157Y-057480
X090157Y-058268
X092323Y-061024
X092323Y-061811
X092323Y-062598
X092323Y-063386
T0
M30
