M48
INCH,TZ
T1C0.016
T2C0.031
%
G90
G05
T1
X082283Y-065118
X082441Y-061811
X086181Y-061102
X086811Y-065748
X091732Y-062795
X091732Y-063780
X091732Y-064961
T2
X079528Y-061811
X079528Y-062598
X079528Y-063386
X079528Y-064173
X083071Y-057480
X083071Y-058268
X083858Y-057480
X083858Y-058268
X084252Y-061811
X084252Y-062598
X084252Y-063386
X084252Y-064173
X084646Y-057480
X084646Y-058268
X085433Y-057480
X085433Y-058268
X086220Y-057480
X086220Y-058268
X087008Y-057480
X087008Y-058268
X087795Y-057480
X087795Y-058268
X088583Y-057480
X088583Y-058268
X088976Y-061811
X088976Y-062598
X088976Y-063386
X088976Y-064173
X089370Y-057480
X089370Y-058268
X090157Y-057480
X090157Y-058268
X093701Y-061811
X093701Y-062598
X093701Y-063386
X093701Y-064173
T0
M30
