G04 (created by PCBNEW (2013-may-18)-stable) date Sun 16 Aug 2015 12:33:42 AM CST*
%MOIN*%
G04 Gerber Fmt 3.4, Leading zero omitted, Abs format*
%FSLAX34Y34*%
G01*
G70*
G90*
G04 APERTURE LIST*
%ADD10C,0.00590551*%
%ADD11R,0.0511811X0.0511811*%
%ADD12C,0.0511811*%
%ADD13C,0.035*%
%ADD14C,0.01*%
%ADD15C,0.006*%
G04 APERTURE END LIST*
G54D10*
G54D11*
X88385Y-61023D03*
G54D12*
X88385Y-61811D03*
X88385Y-62598D03*
X88385Y-63385D03*
G54D11*
X92322Y-61023D03*
G54D12*
X92322Y-61811D03*
X92322Y-62598D03*
X92322Y-63385D03*
G54D11*
X84448Y-61023D03*
G54D12*
X84448Y-61811D03*
X84448Y-62598D03*
X84448Y-63385D03*
G54D11*
X80511Y-61023D03*
G54D12*
X80511Y-61811D03*
X80511Y-62598D03*
X80511Y-63385D03*
G54D11*
X90157Y-58267D03*
G54D12*
X90157Y-57480D03*
X89370Y-58267D03*
X89370Y-57480D03*
X88582Y-58267D03*
X88582Y-57480D03*
X87795Y-58267D03*
X87795Y-57480D03*
X87007Y-58267D03*
X87007Y-57480D03*
X86220Y-58267D03*
X86220Y-57480D03*
X85433Y-58267D03*
X85433Y-57480D03*
X84645Y-58267D03*
X84645Y-57480D03*
X83858Y-58267D03*
X83858Y-57480D03*
X83070Y-58267D03*
X83070Y-57480D03*
G54D13*
X86614Y-63818D03*
X85275Y-62559D03*
X82559Y-63740D03*
X90629Y-61968D03*
X90629Y-62992D03*
X81417Y-62559D03*
G54D14*
X84448Y-61811D02*
X80511Y-61811D01*
X88385Y-61811D02*
X84448Y-61811D01*
X90590Y-60984D02*
X90669Y-60984D01*
X91496Y-61811D02*
X92322Y-61811D01*
X90669Y-60984D02*
X91496Y-61811D01*
X87007Y-57480D02*
X87007Y-57440D01*
X89763Y-61811D02*
X88385Y-61811D01*
X90590Y-60984D02*
X89763Y-61811D01*
X90590Y-57283D02*
X90590Y-60984D01*
X90314Y-57007D02*
X90590Y-57283D01*
X87440Y-57007D02*
X90314Y-57007D01*
X87007Y-57440D02*
X87440Y-57007D01*
G54D15*
X88385Y-63385D02*
X92322Y-63385D01*
X88385Y-62598D02*
X92322Y-62598D01*
G54D14*
X86614Y-63818D02*
X86535Y-63818D01*
X86535Y-63818D02*
X85275Y-62559D01*
X82559Y-63740D02*
X82559Y-63700D01*
X82559Y-63700D02*
X81417Y-62559D01*
G54D10*
G36*
X89446Y-57485D02*
X89375Y-57556D01*
X89370Y-57551D01*
X89086Y-57834D01*
X89087Y-57837D01*
X89083Y-57838D01*
X88976Y-57945D01*
X88904Y-57873D01*
X89011Y-57767D01*
X89013Y-57762D01*
X89016Y-57763D01*
X89299Y-57480D01*
X89293Y-57474D01*
X89364Y-57404D01*
X89370Y-57409D01*
X89375Y-57404D01*
X89446Y-57474D01*
X89440Y-57480D01*
X89446Y-57485D01*
X89446Y-57485D01*
G37*
G54D14*
X89446Y-57485D02*
X89375Y-57556D01*
X89370Y-57551D01*
X89086Y-57834D01*
X89087Y-57837D01*
X89083Y-57838D01*
X88976Y-57945D01*
X88904Y-57873D01*
X89011Y-57767D01*
X89013Y-57762D01*
X89016Y-57763D01*
X89299Y-57480D01*
X89293Y-57474D01*
X89364Y-57404D01*
X89370Y-57409D01*
X89375Y-57404D01*
X89446Y-57474D01*
X89440Y-57480D01*
X89446Y-57485D01*
G54D10*
G36*
X92001Y-62204D02*
X91894Y-62311D01*
X91891Y-62318D01*
X88817Y-62318D01*
X88814Y-62312D01*
X88707Y-62204D01*
X88801Y-62111D01*
X89763Y-62111D01*
X89763Y-62111D01*
X89878Y-62088D01*
X89878Y-62088D01*
X89975Y-62023D01*
X90629Y-61369D01*
X91283Y-62023D01*
X91283Y-62023D01*
X91381Y-62088D01*
X91496Y-62111D01*
X91907Y-62111D01*
X92001Y-62204D01*
X92001Y-62204D01*
G37*
G54D14*
X92001Y-62204D02*
X91894Y-62311D01*
X91891Y-62318D01*
X88817Y-62318D01*
X88814Y-62312D01*
X88707Y-62204D01*
X88801Y-62111D01*
X89763Y-62111D01*
X89763Y-62111D01*
X89878Y-62088D01*
X89878Y-62088D01*
X89975Y-62023D01*
X90629Y-61369D01*
X91283Y-62023D01*
X91283Y-62023D01*
X91381Y-62088D01*
X91496Y-62111D01*
X91907Y-62111D01*
X92001Y-62204D01*
G54D10*
G36*
X92001Y-62992D02*
X91894Y-63098D01*
X91891Y-63105D01*
X88817Y-63105D01*
X88814Y-63099D01*
X88707Y-62992D01*
X88814Y-62885D01*
X88817Y-62878D01*
X91891Y-62878D01*
X91893Y-62884D01*
X92001Y-62992D01*
X92001Y-62992D01*
G37*
G54D14*
X92001Y-62992D02*
X91894Y-63098D01*
X91891Y-63105D01*
X88817Y-63105D01*
X88814Y-63099D01*
X88707Y-62992D01*
X88814Y-62885D01*
X88817Y-62878D01*
X91891Y-62878D01*
X91893Y-62884D01*
X92001Y-62992D01*
G54D10*
G36*
X94218Y-64618D02*
X94210Y-64661D01*
X94201Y-64673D01*
X94188Y-64682D01*
X94146Y-64690D01*
X79082Y-64690D01*
X79039Y-64682D01*
X79027Y-64674D01*
X79018Y-64660D01*
X79009Y-64619D01*
X79009Y-59396D01*
X79018Y-59355D01*
X79027Y-59341D01*
X79039Y-59333D01*
X79082Y-59324D01*
X81968Y-59324D01*
X81994Y-59319D01*
X82020Y-59319D01*
X82141Y-59295D01*
X82238Y-59255D01*
X82239Y-59255D01*
X82239Y-59255D01*
X82340Y-59187D01*
X82340Y-59187D01*
X82415Y-59112D01*
X82483Y-59010D01*
X82524Y-58913D01*
X82524Y-58913D01*
X82524Y-58913D01*
X82547Y-58792D01*
X82547Y-58766D01*
X82553Y-58740D01*
X82553Y-57034D01*
X82561Y-56992D01*
X82570Y-56979D01*
X82582Y-56971D01*
X82625Y-56962D01*
X87061Y-56962D01*
X87050Y-56974D01*
X86907Y-56974D01*
X86721Y-57051D01*
X86614Y-57158D01*
X86507Y-57051D01*
X86321Y-56974D01*
X86120Y-56974D01*
X85934Y-57051D01*
X85826Y-57158D01*
X85720Y-57051D01*
X85534Y-56974D01*
X85332Y-56974D01*
X85146Y-57051D01*
X85039Y-57158D01*
X84932Y-57051D01*
X84746Y-56974D01*
X84545Y-56974D01*
X84359Y-57051D01*
X84251Y-57158D01*
X84145Y-57051D01*
X83959Y-56974D01*
X83758Y-56974D01*
X83572Y-57051D01*
X83429Y-57193D01*
X83427Y-57197D01*
X83424Y-57197D01*
X83354Y-57267D01*
X83354Y-57126D01*
X83332Y-57035D01*
X83142Y-56969D01*
X82941Y-56981D01*
X82809Y-57035D01*
X82787Y-57126D01*
X83070Y-57409D01*
X83354Y-57126D01*
X83354Y-57267D01*
X83141Y-57480D01*
X83424Y-57763D01*
X83427Y-57762D01*
X83429Y-57766D01*
X83536Y-57874D01*
X83464Y-57945D01*
X83357Y-57839D01*
X83353Y-57837D01*
X83354Y-57834D01*
X83070Y-57551D01*
X83000Y-57621D01*
X83000Y-57480D01*
X82716Y-57197D01*
X82626Y-57219D01*
X82559Y-57409D01*
X82571Y-57610D01*
X82626Y-57741D01*
X82716Y-57763D01*
X83000Y-57480D01*
X83000Y-57621D01*
X82787Y-57834D01*
X82788Y-57837D01*
X82784Y-57838D01*
X82642Y-57980D01*
X82565Y-58166D01*
X82564Y-58367D01*
X82641Y-58553D01*
X82783Y-58696D01*
X82969Y-58773D01*
X83171Y-58773D01*
X83357Y-58696D01*
X83464Y-58589D01*
X83571Y-58696D01*
X83757Y-58773D01*
X83958Y-58773D01*
X84144Y-58696D01*
X84252Y-58589D01*
X84358Y-58696D01*
X84544Y-58773D01*
X84745Y-58773D01*
X84931Y-58696D01*
X85039Y-58589D01*
X85146Y-58696D01*
X85331Y-58773D01*
X85533Y-58773D01*
X85719Y-58696D01*
X85826Y-58589D01*
X85933Y-58696D01*
X86119Y-58773D01*
X86320Y-58773D01*
X86506Y-58696D01*
X86649Y-58554D01*
X86650Y-58550D01*
X86653Y-58550D01*
X86937Y-58267D01*
X86653Y-57984D01*
X86651Y-57985D01*
X86649Y-57981D01*
X86542Y-57873D01*
X86614Y-57802D01*
X86720Y-57908D01*
X86725Y-57910D01*
X86724Y-57913D01*
X87007Y-58197D01*
X87291Y-57913D01*
X87290Y-57910D01*
X87294Y-57909D01*
X87401Y-57802D01*
X87473Y-57874D01*
X87366Y-57980D01*
X87364Y-57985D01*
X87361Y-57984D01*
X87078Y-58267D01*
X87361Y-58550D01*
X87364Y-58550D01*
X87366Y-58553D01*
X87508Y-58696D01*
X87694Y-58773D01*
X87895Y-58773D01*
X88081Y-58696D01*
X88189Y-58589D01*
X88295Y-58696D01*
X88481Y-58773D01*
X88682Y-58773D01*
X88868Y-58696D01*
X88976Y-58589D01*
X89083Y-58696D01*
X89269Y-58773D01*
X89470Y-58773D01*
X89656Y-58696D01*
X89689Y-58664D01*
X89689Y-58665D01*
X89759Y-58735D01*
X89851Y-58773D01*
X89951Y-58773D01*
X90290Y-58773D01*
X90290Y-60859D01*
X89639Y-61511D01*
X88801Y-61511D01*
X88782Y-61491D01*
X88783Y-61491D01*
X88853Y-61420D01*
X88891Y-61329D01*
X88891Y-60718D01*
X88853Y-60626D01*
X88783Y-60555D01*
X88691Y-60517D01*
X88592Y-60517D01*
X88498Y-60517D01*
X88435Y-60580D01*
X88435Y-60973D01*
X88829Y-60973D01*
X88891Y-60911D01*
X88891Y-60718D01*
X88891Y-61329D01*
X88891Y-61136D01*
X88829Y-61073D01*
X88435Y-61073D01*
X88435Y-61081D01*
X88335Y-61081D01*
X88335Y-61073D01*
X88335Y-60973D01*
X88335Y-60580D01*
X88273Y-60517D01*
X88179Y-60517D01*
X88079Y-60517D01*
X87988Y-60555D01*
X87917Y-60626D01*
X87879Y-60718D01*
X87879Y-60911D01*
X87942Y-60973D01*
X88335Y-60973D01*
X88335Y-61073D01*
X87942Y-61073D01*
X87879Y-61136D01*
X87879Y-61329D01*
X87917Y-61420D01*
X87988Y-61491D01*
X87989Y-61491D01*
X87970Y-61511D01*
X87291Y-61511D01*
X87291Y-58621D01*
X87007Y-58338D01*
X86724Y-58621D01*
X86746Y-58712D01*
X86936Y-58778D01*
X87137Y-58766D01*
X87269Y-58712D01*
X87291Y-58621D01*
X87291Y-61511D01*
X84864Y-61511D01*
X84845Y-61491D01*
X84846Y-61491D01*
X84916Y-61420D01*
X84954Y-61329D01*
X84954Y-60718D01*
X84916Y-60626D01*
X84846Y-60555D01*
X84754Y-60517D01*
X84655Y-60517D01*
X84561Y-60517D01*
X84498Y-60580D01*
X84498Y-60973D01*
X84892Y-60973D01*
X84954Y-60911D01*
X84954Y-60718D01*
X84954Y-61329D01*
X84954Y-61136D01*
X84892Y-61073D01*
X84498Y-61073D01*
X84498Y-61081D01*
X84398Y-61081D01*
X84398Y-61073D01*
X84398Y-60973D01*
X84398Y-60580D01*
X84336Y-60517D01*
X84242Y-60517D01*
X84142Y-60517D01*
X84051Y-60555D01*
X83980Y-60626D01*
X83942Y-60718D01*
X83942Y-60911D01*
X84005Y-60973D01*
X84398Y-60973D01*
X84398Y-61073D01*
X84005Y-61073D01*
X83942Y-61136D01*
X83942Y-61329D01*
X83980Y-61420D01*
X84051Y-61491D01*
X84052Y-61491D01*
X84033Y-61511D01*
X80927Y-61511D01*
X80908Y-61491D01*
X80909Y-61491D01*
X80979Y-61420D01*
X81017Y-61329D01*
X81017Y-60718D01*
X80979Y-60626D01*
X80909Y-60555D01*
X80817Y-60517D01*
X80718Y-60517D01*
X80624Y-60517D01*
X80561Y-60580D01*
X80561Y-60973D01*
X80955Y-60973D01*
X81017Y-60911D01*
X81017Y-60718D01*
X81017Y-61329D01*
X81017Y-61136D01*
X80955Y-61073D01*
X80561Y-61073D01*
X80561Y-61081D01*
X80461Y-61081D01*
X80461Y-61073D01*
X80461Y-60973D01*
X80461Y-60580D01*
X80399Y-60517D01*
X80305Y-60517D01*
X80205Y-60517D01*
X80114Y-60555D01*
X80043Y-60626D01*
X80005Y-60718D01*
X80005Y-60911D01*
X80068Y-60973D01*
X80461Y-60973D01*
X80461Y-61073D01*
X80068Y-61073D01*
X80005Y-61136D01*
X80005Y-61329D01*
X80043Y-61420D01*
X80114Y-61491D01*
X80115Y-61491D01*
X80083Y-61524D01*
X80005Y-61709D01*
X80005Y-61911D01*
X80082Y-62097D01*
X80190Y-62204D01*
X80083Y-62311D01*
X80005Y-62497D01*
X80005Y-62698D01*
X80082Y-62884D01*
X80190Y-62992D01*
X80083Y-63098D01*
X80005Y-63284D01*
X80005Y-63486D01*
X80082Y-63672D01*
X80224Y-63814D01*
X80410Y-63891D01*
X80612Y-63891D01*
X80798Y-63814D01*
X80940Y-63672D01*
X81017Y-63486D01*
X81017Y-63285D01*
X80940Y-63099D01*
X80833Y-62992D01*
X80940Y-62885D01*
X81017Y-62699D01*
X81017Y-62498D01*
X80940Y-62312D01*
X80833Y-62204D01*
X80927Y-62111D01*
X84033Y-62111D01*
X84127Y-62204D01*
X84020Y-62311D01*
X83943Y-62497D01*
X83942Y-62698D01*
X84019Y-62884D01*
X84127Y-62992D01*
X84020Y-63098D01*
X83943Y-63284D01*
X83942Y-63486D01*
X84019Y-63672D01*
X84161Y-63814D01*
X84347Y-63891D01*
X84549Y-63891D01*
X84735Y-63814D01*
X84877Y-63672D01*
X84954Y-63486D01*
X84954Y-63285D01*
X84877Y-63099D01*
X84770Y-62992D01*
X84877Y-62885D01*
X84954Y-62699D01*
X84954Y-62498D01*
X84877Y-62312D01*
X84770Y-62204D01*
X84864Y-62111D01*
X87970Y-62111D01*
X88064Y-62204D01*
X87957Y-62311D01*
X87880Y-62497D01*
X87879Y-62698D01*
X87956Y-62884D01*
X88064Y-62992D01*
X87957Y-63098D01*
X87880Y-63284D01*
X87879Y-63486D01*
X87956Y-63672D01*
X88098Y-63814D01*
X88284Y-63891D01*
X88486Y-63891D01*
X88672Y-63814D01*
X88814Y-63672D01*
X88817Y-63665D01*
X91891Y-63665D01*
X91893Y-63672D01*
X92035Y-63814D01*
X92221Y-63891D01*
X92423Y-63891D01*
X92609Y-63814D01*
X92751Y-63672D01*
X92828Y-63486D01*
X92828Y-63285D01*
X92751Y-63099D01*
X92644Y-62992D01*
X92751Y-62885D01*
X92828Y-62699D01*
X92828Y-62498D01*
X92751Y-62312D01*
X92644Y-62204D01*
X92751Y-62097D01*
X92828Y-61912D01*
X92828Y-61710D01*
X92751Y-61524D01*
X92719Y-61491D01*
X92720Y-61491D01*
X92790Y-61420D01*
X92828Y-61329D01*
X92828Y-60718D01*
X92790Y-60626D01*
X92720Y-60555D01*
X92628Y-60517D01*
X92529Y-60517D01*
X92435Y-60517D01*
X92372Y-60580D01*
X92372Y-60973D01*
X92766Y-60973D01*
X92828Y-60911D01*
X92828Y-60718D01*
X92828Y-61329D01*
X92828Y-61136D01*
X92766Y-61073D01*
X92372Y-61073D01*
X92372Y-61081D01*
X92272Y-61081D01*
X92272Y-61073D01*
X92272Y-60973D01*
X92272Y-60580D01*
X92210Y-60517D01*
X92116Y-60517D01*
X92016Y-60517D01*
X91925Y-60555D01*
X91854Y-60626D01*
X91816Y-60718D01*
X91816Y-60911D01*
X91879Y-60973D01*
X92272Y-60973D01*
X92272Y-61073D01*
X91879Y-61073D01*
X91816Y-61136D01*
X91816Y-61329D01*
X91854Y-61420D01*
X91925Y-61491D01*
X91926Y-61491D01*
X91907Y-61511D01*
X91620Y-61511D01*
X90890Y-60781D01*
X90890Y-59189D01*
X90989Y-59255D01*
X91086Y-59295D01*
X91086Y-59295D01*
X91086Y-59295D01*
X91207Y-59319D01*
X91233Y-59319D01*
X91259Y-59324D01*
X94146Y-59324D01*
X94188Y-59333D01*
X94201Y-59341D01*
X94210Y-59354D01*
X94218Y-59397D01*
X94218Y-64618D01*
X94218Y-64618D01*
G37*
G54D14*
X94218Y-64618D02*
X94210Y-64661D01*
X94201Y-64673D01*
X94188Y-64682D01*
X94146Y-64690D01*
X79082Y-64690D01*
X79039Y-64682D01*
X79027Y-64674D01*
X79018Y-64660D01*
X79009Y-64619D01*
X79009Y-59396D01*
X79018Y-59355D01*
X79027Y-59341D01*
X79039Y-59333D01*
X79082Y-59324D01*
X81968Y-59324D01*
X81994Y-59319D01*
X82020Y-59319D01*
X82141Y-59295D01*
X82238Y-59255D01*
X82239Y-59255D01*
X82239Y-59255D01*
X82340Y-59187D01*
X82340Y-59187D01*
X82415Y-59112D01*
X82483Y-59010D01*
X82524Y-58913D01*
X82524Y-58913D01*
X82524Y-58913D01*
X82547Y-58792D01*
X82547Y-58766D01*
X82553Y-58740D01*
X82553Y-57034D01*
X82561Y-56992D01*
X82570Y-56979D01*
X82582Y-56971D01*
X82625Y-56962D01*
X87061Y-56962D01*
X87050Y-56974D01*
X86907Y-56974D01*
X86721Y-57051D01*
X86614Y-57158D01*
X86507Y-57051D01*
X86321Y-56974D01*
X86120Y-56974D01*
X85934Y-57051D01*
X85826Y-57158D01*
X85720Y-57051D01*
X85534Y-56974D01*
X85332Y-56974D01*
X85146Y-57051D01*
X85039Y-57158D01*
X84932Y-57051D01*
X84746Y-56974D01*
X84545Y-56974D01*
X84359Y-57051D01*
X84251Y-57158D01*
X84145Y-57051D01*
X83959Y-56974D01*
X83758Y-56974D01*
X83572Y-57051D01*
X83429Y-57193D01*
X83427Y-57197D01*
X83424Y-57197D01*
X83354Y-57267D01*
X83354Y-57126D01*
X83332Y-57035D01*
X83142Y-56969D01*
X82941Y-56981D01*
X82809Y-57035D01*
X82787Y-57126D01*
X83070Y-57409D01*
X83354Y-57126D01*
X83354Y-57267D01*
X83141Y-57480D01*
X83424Y-57763D01*
X83427Y-57762D01*
X83429Y-57766D01*
X83536Y-57874D01*
X83464Y-57945D01*
X83357Y-57839D01*
X83353Y-57837D01*
X83354Y-57834D01*
X83070Y-57551D01*
X83000Y-57621D01*
X83000Y-57480D01*
X82716Y-57197D01*
X82626Y-57219D01*
X82559Y-57409D01*
X82571Y-57610D01*
X82626Y-57741D01*
X82716Y-57763D01*
X83000Y-57480D01*
X83000Y-57621D01*
X82787Y-57834D01*
X82788Y-57837D01*
X82784Y-57838D01*
X82642Y-57980D01*
X82565Y-58166D01*
X82564Y-58367D01*
X82641Y-58553D01*
X82783Y-58696D01*
X82969Y-58773D01*
X83171Y-58773D01*
X83357Y-58696D01*
X83464Y-58589D01*
X83571Y-58696D01*
X83757Y-58773D01*
X83958Y-58773D01*
X84144Y-58696D01*
X84252Y-58589D01*
X84358Y-58696D01*
X84544Y-58773D01*
X84745Y-58773D01*
X84931Y-58696D01*
X85039Y-58589D01*
X85146Y-58696D01*
X85331Y-58773D01*
X85533Y-58773D01*
X85719Y-58696D01*
X85826Y-58589D01*
X85933Y-58696D01*
X86119Y-58773D01*
X86320Y-58773D01*
X86506Y-58696D01*
X86649Y-58554D01*
X86650Y-58550D01*
X86653Y-58550D01*
X86937Y-58267D01*
X86653Y-57984D01*
X86651Y-57985D01*
X86649Y-57981D01*
X86542Y-57873D01*
X86614Y-57802D01*
X86720Y-57908D01*
X86725Y-57910D01*
X86724Y-57913D01*
X87007Y-58197D01*
X87291Y-57913D01*
X87290Y-57910D01*
X87294Y-57909D01*
X87401Y-57802D01*
X87473Y-57874D01*
X87366Y-57980D01*
X87364Y-57985D01*
X87361Y-57984D01*
X87078Y-58267D01*
X87361Y-58550D01*
X87364Y-58550D01*
X87366Y-58553D01*
X87508Y-58696D01*
X87694Y-58773D01*
X87895Y-58773D01*
X88081Y-58696D01*
X88189Y-58589D01*
X88295Y-58696D01*
X88481Y-58773D01*
X88682Y-58773D01*
X88868Y-58696D01*
X88976Y-58589D01*
X89083Y-58696D01*
X89269Y-58773D01*
X89470Y-58773D01*
X89656Y-58696D01*
X89689Y-58664D01*
X89689Y-58665D01*
X89759Y-58735D01*
X89851Y-58773D01*
X89951Y-58773D01*
X90290Y-58773D01*
X90290Y-60859D01*
X89639Y-61511D01*
X88801Y-61511D01*
X88782Y-61491D01*
X88783Y-61491D01*
X88853Y-61420D01*
X88891Y-61329D01*
X88891Y-60718D01*
X88853Y-60626D01*
X88783Y-60555D01*
X88691Y-60517D01*
X88592Y-60517D01*
X88498Y-60517D01*
X88435Y-60580D01*
X88435Y-60973D01*
X88829Y-60973D01*
X88891Y-60911D01*
X88891Y-60718D01*
X88891Y-61329D01*
X88891Y-61136D01*
X88829Y-61073D01*
X88435Y-61073D01*
X88435Y-61081D01*
X88335Y-61081D01*
X88335Y-61073D01*
X88335Y-60973D01*
X88335Y-60580D01*
X88273Y-60517D01*
X88179Y-60517D01*
X88079Y-60517D01*
X87988Y-60555D01*
X87917Y-60626D01*
X87879Y-60718D01*
X87879Y-60911D01*
X87942Y-60973D01*
X88335Y-60973D01*
X88335Y-61073D01*
X87942Y-61073D01*
X87879Y-61136D01*
X87879Y-61329D01*
X87917Y-61420D01*
X87988Y-61491D01*
X87989Y-61491D01*
X87970Y-61511D01*
X87291Y-61511D01*
X87291Y-58621D01*
X87007Y-58338D01*
X86724Y-58621D01*
X86746Y-58712D01*
X86936Y-58778D01*
X87137Y-58766D01*
X87269Y-58712D01*
X87291Y-58621D01*
X87291Y-61511D01*
X84864Y-61511D01*
X84845Y-61491D01*
X84846Y-61491D01*
X84916Y-61420D01*
X84954Y-61329D01*
X84954Y-60718D01*
X84916Y-60626D01*
X84846Y-60555D01*
X84754Y-60517D01*
X84655Y-60517D01*
X84561Y-60517D01*
X84498Y-60580D01*
X84498Y-60973D01*
X84892Y-60973D01*
X84954Y-60911D01*
X84954Y-60718D01*
X84954Y-61329D01*
X84954Y-61136D01*
X84892Y-61073D01*
X84498Y-61073D01*
X84498Y-61081D01*
X84398Y-61081D01*
X84398Y-61073D01*
X84398Y-60973D01*
X84398Y-60580D01*
X84336Y-60517D01*
X84242Y-60517D01*
X84142Y-60517D01*
X84051Y-60555D01*
X83980Y-60626D01*
X83942Y-60718D01*
X83942Y-60911D01*
X84005Y-60973D01*
X84398Y-60973D01*
X84398Y-61073D01*
X84005Y-61073D01*
X83942Y-61136D01*
X83942Y-61329D01*
X83980Y-61420D01*
X84051Y-61491D01*
X84052Y-61491D01*
X84033Y-61511D01*
X80927Y-61511D01*
X80908Y-61491D01*
X80909Y-61491D01*
X80979Y-61420D01*
X81017Y-61329D01*
X81017Y-60718D01*
X80979Y-60626D01*
X80909Y-60555D01*
X80817Y-60517D01*
X80718Y-60517D01*
X80624Y-60517D01*
X80561Y-60580D01*
X80561Y-60973D01*
X80955Y-60973D01*
X81017Y-60911D01*
X81017Y-60718D01*
X81017Y-61329D01*
X81017Y-61136D01*
X80955Y-61073D01*
X80561Y-61073D01*
X80561Y-61081D01*
X80461Y-61081D01*
X80461Y-61073D01*
X80461Y-60973D01*
X80461Y-60580D01*
X80399Y-60517D01*
X80305Y-60517D01*
X80205Y-60517D01*
X80114Y-60555D01*
X80043Y-60626D01*
X80005Y-60718D01*
X80005Y-60911D01*
X80068Y-60973D01*
X80461Y-60973D01*
X80461Y-61073D01*
X80068Y-61073D01*
X80005Y-61136D01*
X80005Y-61329D01*
X80043Y-61420D01*
X80114Y-61491D01*
X80115Y-61491D01*
X80083Y-61524D01*
X80005Y-61709D01*
X80005Y-61911D01*
X80082Y-62097D01*
X80190Y-62204D01*
X80083Y-62311D01*
X80005Y-62497D01*
X80005Y-62698D01*
X80082Y-62884D01*
X80190Y-62992D01*
X80083Y-63098D01*
X80005Y-63284D01*
X80005Y-63486D01*
X80082Y-63672D01*
X80224Y-63814D01*
X80410Y-63891D01*
X80612Y-63891D01*
X80798Y-63814D01*
X80940Y-63672D01*
X81017Y-63486D01*
X81017Y-63285D01*
X80940Y-63099D01*
X80833Y-62992D01*
X80940Y-62885D01*
X81017Y-62699D01*
X81017Y-62498D01*
X80940Y-62312D01*
X80833Y-62204D01*
X80927Y-62111D01*
X84033Y-62111D01*
X84127Y-62204D01*
X84020Y-62311D01*
X83943Y-62497D01*
X83942Y-62698D01*
X84019Y-62884D01*
X84127Y-62992D01*
X84020Y-63098D01*
X83943Y-63284D01*
X83942Y-63486D01*
X84019Y-63672D01*
X84161Y-63814D01*
X84347Y-63891D01*
X84549Y-63891D01*
X84735Y-63814D01*
X84877Y-63672D01*
X84954Y-63486D01*
X84954Y-63285D01*
X84877Y-63099D01*
X84770Y-62992D01*
X84877Y-62885D01*
X84954Y-62699D01*
X84954Y-62498D01*
X84877Y-62312D01*
X84770Y-62204D01*
X84864Y-62111D01*
X87970Y-62111D01*
X88064Y-62204D01*
X87957Y-62311D01*
X87880Y-62497D01*
X87879Y-62698D01*
X87956Y-62884D01*
X88064Y-62992D01*
X87957Y-63098D01*
X87880Y-63284D01*
X87879Y-63486D01*
X87956Y-63672D01*
X88098Y-63814D01*
X88284Y-63891D01*
X88486Y-63891D01*
X88672Y-63814D01*
X88814Y-63672D01*
X88817Y-63665D01*
X91891Y-63665D01*
X91893Y-63672D01*
X92035Y-63814D01*
X92221Y-63891D01*
X92423Y-63891D01*
X92609Y-63814D01*
X92751Y-63672D01*
X92828Y-63486D01*
X92828Y-63285D01*
X92751Y-63099D01*
X92644Y-62992D01*
X92751Y-62885D01*
X92828Y-62699D01*
X92828Y-62498D01*
X92751Y-62312D01*
X92644Y-62204D01*
X92751Y-62097D01*
X92828Y-61912D01*
X92828Y-61710D01*
X92751Y-61524D01*
X92719Y-61491D01*
X92720Y-61491D01*
X92790Y-61420D01*
X92828Y-61329D01*
X92828Y-60718D01*
X92790Y-60626D01*
X92720Y-60555D01*
X92628Y-60517D01*
X92529Y-60517D01*
X92435Y-60517D01*
X92372Y-60580D01*
X92372Y-60973D01*
X92766Y-60973D01*
X92828Y-60911D01*
X92828Y-60718D01*
X92828Y-61329D01*
X92828Y-61136D01*
X92766Y-61073D01*
X92372Y-61073D01*
X92372Y-61081D01*
X92272Y-61081D01*
X92272Y-61073D01*
X92272Y-60973D01*
X92272Y-60580D01*
X92210Y-60517D01*
X92116Y-60517D01*
X92016Y-60517D01*
X91925Y-60555D01*
X91854Y-60626D01*
X91816Y-60718D01*
X91816Y-60911D01*
X91879Y-60973D01*
X92272Y-60973D01*
X92272Y-61073D01*
X91879Y-61073D01*
X91816Y-61136D01*
X91816Y-61329D01*
X91854Y-61420D01*
X91925Y-61491D01*
X91926Y-61491D01*
X91907Y-61511D01*
X91620Y-61511D01*
X90890Y-60781D01*
X90890Y-59189D01*
X90989Y-59255D01*
X91086Y-59295D01*
X91086Y-59295D01*
X91086Y-59295D01*
X91207Y-59319D01*
X91233Y-59319D01*
X91259Y-59324D01*
X94146Y-59324D01*
X94188Y-59333D01*
X94201Y-59341D01*
X94210Y-59354D01*
X94218Y-59397D01*
X94218Y-64618D01*
M02*
