G04 (created by PCBNEW (2013-may-18)-stable) date Sun 16 Aug 2015 12:26:19 AM CST*
%MOIN*%
G04 Gerber Fmt 3.4, Leading zero omitted, Abs format*
%FSLAX34Y34*%
G01*
G70*
G90*
G04 APERTURE LIST*
%ADD10C,0.00590551*%
%ADD11C,0.00787402*%
%ADD12C,0.011811*%
G04 APERTURE END LIST*
G54D10*
G54D11*
X81552Y-59465D02*
X81507Y-59443D01*
X81439Y-59443D01*
X81372Y-59465D01*
X81327Y-59510D01*
X81304Y-59555D01*
X81282Y-59645D01*
X81282Y-59713D01*
X81304Y-59803D01*
X81327Y-59848D01*
X81372Y-59893D01*
X81439Y-59915D01*
X81484Y-59915D01*
X81552Y-59893D01*
X81574Y-59870D01*
X81574Y-59713D01*
X81484Y-59713D01*
X81777Y-59915D02*
X81777Y-59600D01*
X81777Y-59690D02*
X81799Y-59645D01*
X81822Y-59623D01*
X81867Y-59600D01*
X81912Y-59600D01*
X82137Y-59915D02*
X82092Y-59893D01*
X82069Y-59870D01*
X82047Y-59825D01*
X82047Y-59690D01*
X82069Y-59645D01*
X82092Y-59623D01*
X82137Y-59600D01*
X82204Y-59600D01*
X82249Y-59623D01*
X82272Y-59645D01*
X82294Y-59690D01*
X82294Y-59825D01*
X82272Y-59870D01*
X82249Y-59893D01*
X82204Y-59915D01*
X82137Y-59915D01*
X82452Y-59600D02*
X82564Y-59915D01*
X82677Y-59600D01*
X83037Y-59893D02*
X82992Y-59915D01*
X82902Y-59915D01*
X82857Y-59893D01*
X82834Y-59848D01*
X82834Y-59668D01*
X82857Y-59623D01*
X82902Y-59600D01*
X82992Y-59600D01*
X83037Y-59623D01*
X83059Y-59668D01*
X83059Y-59713D01*
X82834Y-59758D01*
X83622Y-59915D02*
X83622Y-59443D01*
X83622Y-59668D02*
X83892Y-59668D01*
X83892Y-59915D02*
X83892Y-59443D01*
X84319Y-59915D02*
X84319Y-59668D01*
X84296Y-59623D01*
X84251Y-59600D01*
X84161Y-59600D01*
X84116Y-59623D01*
X84319Y-59893D02*
X84274Y-59915D01*
X84161Y-59915D01*
X84116Y-59893D01*
X84094Y-59848D01*
X84094Y-59803D01*
X84116Y-59758D01*
X84161Y-59735D01*
X84274Y-59735D01*
X84319Y-59713D01*
X84476Y-59600D02*
X84656Y-59600D01*
X84544Y-59443D02*
X84544Y-59848D01*
X84566Y-59893D01*
X84611Y-59915D01*
X84656Y-59915D01*
X85106Y-59600D02*
X85286Y-59600D01*
X85174Y-59915D02*
X85174Y-59510D01*
X85196Y-59465D01*
X85241Y-59443D01*
X85286Y-59443D01*
X85511Y-59915D02*
X85466Y-59893D01*
X85444Y-59870D01*
X85421Y-59825D01*
X85421Y-59690D01*
X85444Y-59645D01*
X85466Y-59623D01*
X85511Y-59600D01*
X85579Y-59600D01*
X85624Y-59623D01*
X85646Y-59645D01*
X85669Y-59690D01*
X85669Y-59825D01*
X85646Y-59870D01*
X85624Y-59893D01*
X85579Y-59915D01*
X85511Y-59915D01*
X85871Y-59915D02*
X85871Y-59600D01*
X85871Y-59690D02*
X85894Y-59645D01*
X85916Y-59623D01*
X85961Y-59600D01*
X86006Y-59600D01*
X86456Y-59443D02*
X86614Y-59915D01*
X86771Y-59443D01*
X86929Y-59915D02*
X86929Y-59443D01*
X87131Y-59780D02*
X87356Y-59780D01*
X87086Y-59915D02*
X87244Y-59443D01*
X87401Y-59915D01*
X87851Y-59443D02*
X88008Y-59915D01*
X88166Y-59443D01*
X88301Y-59780D02*
X88526Y-59780D01*
X88256Y-59915D02*
X88413Y-59443D01*
X88571Y-59915D01*
X88886Y-59668D02*
X88953Y-59690D01*
X88976Y-59713D01*
X88998Y-59758D01*
X88998Y-59825D01*
X88976Y-59870D01*
X88953Y-59893D01*
X88908Y-59915D01*
X88728Y-59915D01*
X88728Y-59443D01*
X88886Y-59443D01*
X88931Y-59465D01*
X88953Y-59488D01*
X88976Y-59533D01*
X88976Y-59578D01*
X88953Y-59623D01*
X88931Y-59645D01*
X88886Y-59668D01*
X88728Y-59668D01*
X89201Y-59735D02*
X89561Y-59735D01*
X89853Y-59645D02*
X89808Y-59623D01*
X89786Y-59600D01*
X89763Y-59555D01*
X89763Y-59533D01*
X89786Y-59488D01*
X89808Y-59465D01*
X89853Y-59443D01*
X89943Y-59443D01*
X89988Y-59465D01*
X90011Y-59488D01*
X90033Y-59533D01*
X90033Y-59555D01*
X90011Y-59600D01*
X89988Y-59623D01*
X89943Y-59645D01*
X89853Y-59645D01*
X89808Y-59668D01*
X89786Y-59690D01*
X89763Y-59735D01*
X89763Y-59825D01*
X89786Y-59870D01*
X89808Y-59893D01*
X89853Y-59915D01*
X89943Y-59915D01*
X89988Y-59893D01*
X90011Y-59870D01*
X90033Y-59825D01*
X90033Y-59735D01*
X90011Y-59690D01*
X89988Y-59668D01*
X89943Y-59645D01*
X90213Y-59488D02*
X90236Y-59465D01*
X90281Y-59443D01*
X90393Y-59443D01*
X90438Y-59465D01*
X90461Y-59488D01*
X90483Y-59533D01*
X90483Y-59578D01*
X90461Y-59645D01*
X90191Y-59915D01*
X90483Y-59915D01*
X90776Y-59443D02*
X90821Y-59443D01*
X90866Y-59465D01*
X90888Y-59488D01*
X90911Y-59533D01*
X90933Y-59623D01*
X90933Y-59735D01*
X90911Y-59825D01*
X90888Y-59870D01*
X90866Y-59893D01*
X90821Y-59915D01*
X90776Y-59915D01*
X90731Y-59893D01*
X90708Y-59870D01*
X90686Y-59825D01*
X90663Y-59735D01*
X90663Y-59623D01*
X90686Y-59533D01*
X90708Y-59488D01*
X90731Y-59465D01*
X90776Y-59443D01*
X91451Y-59600D02*
X91563Y-59915D01*
X91676Y-59600D01*
X92103Y-59915D02*
X91833Y-59915D01*
X91968Y-59915D02*
X91968Y-59443D01*
X91923Y-59510D01*
X91878Y-59555D01*
X91833Y-59578D01*
X81831Y-60929D02*
X81812Y-60967D01*
X81812Y-61023D01*
X81831Y-61079D01*
X81869Y-61117D01*
X81906Y-61136D01*
X81981Y-61154D01*
X82037Y-61154D01*
X82112Y-61136D01*
X82150Y-61117D01*
X82187Y-61079D01*
X82206Y-61023D01*
X82206Y-60986D01*
X82187Y-60929D01*
X82169Y-60911D01*
X82037Y-60911D01*
X82037Y-60986D01*
X82206Y-60742D02*
X81812Y-60742D01*
X82206Y-60517D01*
X81812Y-60517D01*
X82206Y-60329D02*
X81812Y-60329D01*
X81812Y-60236D01*
X81831Y-60179D01*
X81869Y-60142D01*
X81906Y-60123D01*
X81981Y-60104D01*
X82037Y-60104D01*
X82112Y-60123D01*
X82150Y-60142D01*
X82187Y-60179D01*
X82206Y-60236D01*
X82206Y-60329D01*
X81812Y-61767D02*
X81812Y-61955D01*
X82000Y-61974D01*
X81981Y-61955D01*
X81962Y-61917D01*
X81962Y-61824D01*
X81981Y-61786D01*
X82000Y-61767D01*
X82037Y-61749D01*
X82131Y-61749D01*
X82169Y-61767D01*
X82187Y-61786D01*
X82206Y-61824D01*
X82206Y-61917D01*
X82187Y-61955D01*
X82169Y-61974D01*
X81812Y-61636D02*
X82206Y-61505D01*
X81812Y-61374D01*
X82206Y-62889D02*
X81812Y-62889D01*
X81812Y-62795D01*
X81831Y-62739D01*
X81869Y-62701D01*
X81906Y-62682D01*
X81981Y-62664D01*
X82037Y-62664D01*
X82112Y-62682D01*
X82150Y-62701D01*
X82187Y-62739D01*
X82206Y-62795D01*
X82206Y-62889D01*
X82206Y-62476D02*
X82206Y-62401D01*
X82187Y-62364D01*
X82169Y-62345D01*
X82112Y-62307D01*
X82037Y-62289D01*
X81887Y-62289D01*
X81850Y-62307D01*
X81831Y-62326D01*
X81812Y-62364D01*
X81812Y-62439D01*
X81831Y-62476D01*
X81850Y-62495D01*
X81887Y-62514D01*
X81981Y-62514D01*
X82019Y-62495D01*
X82037Y-62476D01*
X82056Y-62439D01*
X82056Y-62364D01*
X82037Y-62326D01*
X82019Y-62307D01*
X81981Y-62289D01*
X82206Y-63794D02*
X81812Y-63794D01*
X81812Y-63700D01*
X81831Y-63644D01*
X81869Y-63607D01*
X81906Y-63588D01*
X81981Y-63569D01*
X82037Y-63569D01*
X82112Y-63588D01*
X82150Y-63607D01*
X82187Y-63644D01*
X82206Y-63700D01*
X82206Y-63794D01*
X81981Y-63344D02*
X81962Y-63382D01*
X81944Y-63400D01*
X81906Y-63419D01*
X81887Y-63419D01*
X81850Y-63400D01*
X81831Y-63382D01*
X81812Y-63344D01*
X81812Y-63269D01*
X81831Y-63232D01*
X81850Y-63213D01*
X81887Y-63194D01*
X81906Y-63194D01*
X81944Y-63213D01*
X81962Y-63232D01*
X81981Y-63269D01*
X81981Y-63344D01*
X82000Y-63382D01*
X82019Y-63400D01*
X82056Y-63419D01*
X82131Y-63419D01*
X82169Y-63400D01*
X82187Y-63382D01*
X82206Y-63344D01*
X82206Y-63269D01*
X82187Y-63232D01*
X82169Y-63213D01*
X82131Y-63194D01*
X82056Y-63194D01*
X82019Y-63213D01*
X82000Y-63232D01*
X81981Y-63269D01*
X85768Y-60929D02*
X85749Y-60967D01*
X85749Y-61023D01*
X85768Y-61079D01*
X85806Y-61117D01*
X85843Y-61136D01*
X85918Y-61154D01*
X85974Y-61154D01*
X86049Y-61136D01*
X86087Y-61117D01*
X86124Y-61079D01*
X86143Y-61023D01*
X86143Y-60986D01*
X86124Y-60929D01*
X86106Y-60911D01*
X85974Y-60911D01*
X85974Y-60986D01*
X86143Y-60742D02*
X85749Y-60742D01*
X86143Y-60517D01*
X85749Y-60517D01*
X86143Y-60329D02*
X85749Y-60329D01*
X85749Y-60236D01*
X85768Y-60179D01*
X85806Y-60142D01*
X85843Y-60123D01*
X85918Y-60104D01*
X85974Y-60104D01*
X86049Y-60123D01*
X86087Y-60142D01*
X86124Y-60179D01*
X86143Y-60236D01*
X86143Y-60329D01*
X85749Y-61767D02*
X85749Y-61955D01*
X85937Y-61974D01*
X85918Y-61955D01*
X85899Y-61917D01*
X85899Y-61824D01*
X85918Y-61786D01*
X85937Y-61767D01*
X85974Y-61749D01*
X86068Y-61749D01*
X86106Y-61767D01*
X86124Y-61786D01*
X86143Y-61824D01*
X86143Y-61917D01*
X86124Y-61955D01*
X86106Y-61974D01*
X85749Y-61636D02*
X86143Y-61505D01*
X85749Y-61374D01*
X86143Y-62928D02*
X85749Y-62928D01*
X85749Y-62834D01*
X85768Y-62778D01*
X85806Y-62740D01*
X85843Y-62722D01*
X85918Y-62703D01*
X85974Y-62703D01*
X86049Y-62722D01*
X86087Y-62740D01*
X86124Y-62778D01*
X86143Y-62834D01*
X86143Y-62928D01*
X85787Y-62553D02*
X85768Y-62534D01*
X85749Y-62497D01*
X85749Y-62403D01*
X85768Y-62365D01*
X85787Y-62347D01*
X85824Y-62328D01*
X85862Y-62328D01*
X85918Y-62347D01*
X86143Y-62572D01*
X86143Y-62328D01*
X86143Y-63833D02*
X85749Y-63833D01*
X85749Y-63740D01*
X85768Y-63683D01*
X85806Y-63646D01*
X85843Y-63627D01*
X85918Y-63608D01*
X85974Y-63608D01*
X86049Y-63627D01*
X86087Y-63646D01*
X86124Y-63683D01*
X86143Y-63740D01*
X86143Y-63833D01*
X86143Y-63233D02*
X86143Y-63458D01*
X86143Y-63346D02*
X85749Y-63346D01*
X85806Y-63383D01*
X85843Y-63421D01*
X85862Y-63458D01*
X89666Y-60890D02*
X89647Y-60928D01*
X89647Y-60984D01*
X89666Y-61040D01*
X89703Y-61077D01*
X89741Y-61096D01*
X89816Y-61115D01*
X89872Y-61115D01*
X89947Y-61096D01*
X89985Y-61077D01*
X90022Y-61040D01*
X90041Y-60984D01*
X90041Y-60946D01*
X90022Y-60890D01*
X90003Y-60871D01*
X89872Y-60871D01*
X89872Y-60946D01*
X90041Y-60703D02*
X89647Y-60703D01*
X90041Y-60478D01*
X89647Y-60478D01*
X90041Y-60290D02*
X89647Y-60290D01*
X89647Y-60196D01*
X89666Y-60140D01*
X89703Y-60103D01*
X89741Y-60084D01*
X89816Y-60065D01*
X89872Y-60065D01*
X89947Y-60084D01*
X89985Y-60103D01*
X90022Y-60140D01*
X90041Y-60196D01*
X90041Y-60290D01*
X89647Y-61689D02*
X89647Y-61876D01*
X89835Y-61895D01*
X89816Y-61876D01*
X89797Y-61839D01*
X89797Y-61745D01*
X89816Y-61707D01*
X89835Y-61689D01*
X89872Y-61670D01*
X89966Y-61670D01*
X90003Y-61689D01*
X90022Y-61707D01*
X90041Y-61745D01*
X90041Y-61839D01*
X90022Y-61876D01*
X90003Y-61895D01*
X89647Y-61557D02*
X90041Y-61426D01*
X89647Y-61295D01*
X90022Y-63076D02*
X90041Y-63020D01*
X90041Y-62926D01*
X90022Y-62889D01*
X90003Y-62870D01*
X89966Y-62851D01*
X89928Y-62851D01*
X89891Y-62870D01*
X89872Y-62889D01*
X89853Y-62926D01*
X89835Y-63001D01*
X89816Y-63038D01*
X89797Y-63057D01*
X89760Y-63076D01*
X89722Y-63076D01*
X89685Y-63057D01*
X89666Y-63038D01*
X89647Y-63001D01*
X89647Y-62907D01*
X89666Y-62851D01*
X90041Y-62682D02*
X89647Y-62682D01*
X89647Y-62589D01*
X89666Y-62532D01*
X89703Y-62495D01*
X89741Y-62476D01*
X89816Y-62457D01*
X89872Y-62457D01*
X89947Y-62476D01*
X89985Y-62495D01*
X90022Y-62532D01*
X90041Y-62589D01*
X90041Y-62682D01*
X89928Y-62307D02*
X89928Y-62120D01*
X90041Y-62345D02*
X89647Y-62214D01*
X90041Y-62082D01*
X90022Y-64169D02*
X90041Y-64113D01*
X90041Y-64019D01*
X90022Y-63982D01*
X90003Y-63963D01*
X89966Y-63944D01*
X89928Y-63944D01*
X89891Y-63963D01*
X89872Y-63982D01*
X89853Y-64019D01*
X89835Y-64094D01*
X89816Y-64131D01*
X89797Y-64150D01*
X89760Y-64169D01*
X89722Y-64169D01*
X89685Y-64150D01*
X89666Y-64131D01*
X89647Y-64094D01*
X89647Y-64000D01*
X89666Y-63944D01*
X90003Y-63550D02*
X90022Y-63569D01*
X90041Y-63625D01*
X90041Y-63663D01*
X90022Y-63719D01*
X89985Y-63757D01*
X89947Y-63775D01*
X89872Y-63794D01*
X89816Y-63794D01*
X89741Y-63775D01*
X89703Y-63757D01*
X89666Y-63719D01*
X89647Y-63663D01*
X89647Y-63625D01*
X89666Y-63569D01*
X89685Y-63550D01*
X90041Y-63194D02*
X90041Y-63382D01*
X89647Y-63382D01*
X93603Y-60890D02*
X93584Y-60928D01*
X93584Y-60984D01*
X93603Y-61040D01*
X93640Y-61077D01*
X93678Y-61096D01*
X93753Y-61115D01*
X93809Y-61115D01*
X93884Y-61096D01*
X93922Y-61077D01*
X93959Y-61040D01*
X93978Y-60984D01*
X93978Y-60946D01*
X93959Y-60890D01*
X93940Y-60871D01*
X93809Y-60871D01*
X93809Y-60946D01*
X93978Y-60703D02*
X93584Y-60703D01*
X93978Y-60478D01*
X93584Y-60478D01*
X93978Y-60290D02*
X93584Y-60290D01*
X93584Y-60196D01*
X93603Y-60140D01*
X93640Y-60103D01*
X93678Y-60084D01*
X93753Y-60065D01*
X93809Y-60065D01*
X93884Y-60084D01*
X93922Y-60103D01*
X93959Y-60140D01*
X93978Y-60196D01*
X93978Y-60290D01*
X93584Y-61689D02*
X93584Y-61876D01*
X93772Y-61895D01*
X93753Y-61876D01*
X93734Y-61839D01*
X93734Y-61745D01*
X93753Y-61707D01*
X93772Y-61689D01*
X93809Y-61670D01*
X93903Y-61670D01*
X93940Y-61689D01*
X93959Y-61707D01*
X93978Y-61745D01*
X93978Y-61839D01*
X93959Y-61876D01*
X93940Y-61895D01*
X93584Y-61557D02*
X93978Y-61426D01*
X93584Y-61295D01*
X93959Y-63076D02*
X93978Y-63020D01*
X93978Y-62926D01*
X93959Y-62889D01*
X93940Y-62870D01*
X93903Y-62851D01*
X93865Y-62851D01*
X93828Y-62870D01*
X93809Y-62889D01*
X93790Y-62926D01*
X93772Y-63001D01*
X93753Y-63038D01*
X93734Y-63057D01*
X93697Y-63076D01*
X93659Y-63076D01*
X93622Y-63057D01*
X93603Y-63038D01*
X93584Y-63001D01*
X93584Y-62907D01*
X93603Y-62851D01*
X93978Y-62682D02*
X93584Y-62682D01*
X93584Y-62589D01*
X93603Y-62532D01*
X93640Y-62495D01*
X93678Y-62476D01*
X93753Y-62457D01*
X93809Y-62457D01*
X93884Y-62476D01*
X93922Y-62495D01*
X93959Y-62532D01*
X93978Y-62589D01*
X93978Y-62682D01*
X93865Y-62307D02*
X93865Y-62120D01*
X93978Y-62345D02*
X93584Y-62214D01*
X93978Y-62082D01*
X93959Y-64208D02*
X93978Y-64152D01*
X93978Y-64058D01*
X93959Y-64021D01*
X93940Y-64002D01*
X93903Y-63983D01*
X93865Y-63983D01*
X93828Y-64002D01*
X93809Y-64021D01*
X93790Y-64058D01*
X93772Y-64133D01*
X93753Y-64171D01*
X93734Y-64190D01*
X93697Y-64208D01*
X93659Y-64208D01*
X93622Y-64190D01*
X93603Y-64171D01*
X93584Y-64133D01*
X93584Y-64040D01*
X93603Y-63983D01*
X93940Y-63590D02*
X93959Y-63608D01*
X93978Y-63665D01*
X93978Y-63702D01*
X93959Y-63758D01*
X93922Y-63796D01*
X93884Y-63815D01*
X93809Y-63833D01*
X93753Y-63833D01*
X93678Y-63815D01*
X93640Y-63796D01*
X93603Y-63758D01*
X93584Y-63702D01*
X93584Y-63665D01*
X93603Y-63608D01*
X93622Y-63590D01*
X93978Y-63233D02*
X93978Y-63421D01*
X93584Y-63421D01*
G54D12*
X80163Y-64758D02*
X80163Y-64285D01*
X80275Y-64285D01*
X80343Y-64308D01*
X80388Y-64353D01*
X80410Y-64398D01*
X80433Y-64488D01*
X80433Y-64555D01*
X80410Y-64645D01*
X80388Y-64690D01*
X80343Y-64735D01*
X80275Y-64758D01*
X80163Y-64758D01*
X80703Y-64488D02*
X80658Y-64465D01*
X80635Y-64443D01*
X80613Y-64398D01*
X80613Y-64375D01*
X80635Y-64330D01*
X80658Y-64308D01*
X80703Y-64285D01*
X80793Y-64285D01*
X80838Y-64308D01*
X80860Y-64330D01*
X80883Y-64375D01*
X80883Y-64398D01*
X80860Y-64443D01*
X80838Y-64465D01*
X80793Y-64488D01*
X80703Y-64488D01*
X80658Y-64510D01*
X80635Y-64533D01*
X80613Y-64578D01*
X80613Y-64668D01*
X80635Y-64713D01*
X80658Y-64735D01*
X80703Y-64758D01*
X80793Y-64758D01*
X80838Y-64735D01*
X80860Y-64713D01*
X80883Y-64668D01*
X80883Y-64578D01*
X80860Y-64533D01*
X80838Y-64510D01*
X80793Y-64488D01*
X84139Y-64758D02*
X84139Y-64285D01*
X84251Y-64285D01*
X84319Y-64308D01*
X84364Y-64353D01*
X84386Y-64398D01*
X84409Y-64488D01*
X84409Y-64555D01*
X84386Y-64645D01*
X84364Y-64690D01*
X84319Y-64735D01*
X84251Y-64758D01*
X84139Y-64758D01*
X84859Y-64758D02*
X84589Y-64758D01*
X84724Y-64758D02*
X84724Y-64285D01*
X84679Y-64353D01*
X84634Y-64398D01*
X84589Y-64420D01*
X87924Y-64758D02*
X87924Y-64285D01*
X88127Y-64330D02*
X88149Y-64308D01*
X88194Y-64285D01*
X88307Y-64285D01*
X88352Y-64308D01*
X88374Y-64330D01*
X88397Y-64375D01*
X88397Y-64420D01*
X88374Y-64488D01*
X88104Y-64758D01*
X88397Y-64758D01*
X88869Y-64713D02*
X88847Y-64735D01*
X88779Y-64758D01*
X88734Y-64758D01*
X88667Y-64735D01*
X88622Y-64690D01*
X88599Y-64645D01*
X88577Y-64555D01*
X88577Y-64488D01*
X88599Y-64398D01*
X88622Y-64353D01*
X88667Y-64308D01*
X88734Y-64285D01*
X88779Y-64285D01*
X88847Y-64308D01*
X88869Y-64330D01*
X91979Y-64758D02*
X91979Y-64285D01*
X92182Y-64330D02*
X92204Y-64308D01*
X92249Y-64285D01*
X92362Y-64285D01*
X92407Y-64308D01*
X92429Y-64330D01*
X92452Y-64375D01*
X92452Y-64420D01*
X92429Y-64488D01*
X92159Y-64758D01*
X92452Y-64758D01*
X92924Y-64713D02*
X92902Y-64735D01*
X92834Y-64758D01*
X92789Y-64758D01*
X92722Y-64735D01*
X92677Y-64690D01*
X92654Y-64645D01*
X92632Y-64555D01*
X92632Y-64488D01*
X92654Y-64398D01*
X92677Y-64353D01*
X92722Y-64308D01*
X92789Y-64285D01*
X92834Y-64285D01*
X92902Y-64308D01*
X92924Y-64330D01*
G54D10*
X89547Y-60236D02*
X87539Y-60236D01*
X87539Y-60236D02*
X87539Y-64173D01*
X87539Y-64173D02*
X89547Y-64173D01*
X89547Y-64173D02*
X89547Y-63385D01*
X89547Y-63385D02*
X89232Y-63385D01*
X89232Y-63385D02*
X89232Y-62893D01*
X89232Y-62893D02*
X89547Y-62893D01*
X89547Y-62893D02*
X89547Y-61515D01*
X89547Y-61515D02*
X89232Y-61515D01*
X89232Y-61515D02*
X89232Y-61023D01*
X89232Y-61023D02*
X89547Y-61023D01*
X89547Y-61023D02*
X89547Y-60236D01*
X93484Y-60236D02*
X91476Y-60236D01*
X91476Y-60236D02*
X91476Y-64173D01*
X91476Y-64173D02*
X93484Y-64173D01*
X93484Y-64173D02*
X93484Y-63385D01*
X93484Y-63385D02*
X93169Y-63385D01*
X93169Y-63385D02*
X93169Y-62893D01*
X93169Y-62893D02*
X93484Y-62893D01*
X93484Y-62893D02*
X93484Y-61515D01*
X93484Y-61515D02*
X93169Y-61515D01*
X93169Y-61515D02*
X93169Y-61023D01*
X93169Y-61023D02*
X93484Y-61023D01*
X93484Y-61023D02*
X93484Y-60236D01*
X85610Y-60236D02*
X83602Y-60236D01*
X83602Y-60236D02*
X83602Y-64173D01*
X83602Y-64173D02*
X85610Y-64173D01*
X85610Y-64173D02*
X85610Y-63385D01*
X85610Y-63385D02*
X85295Y-63385D01*
X85295Y-63385D02*
X85295Y-62893D01*
X85295Y-62893D02*
X85610Y-62893D01*
X85610Y-62893D02*
X85610Y-61515D01*
X85610Y-61515D02*
X85295Y-61515D01*
X85295Y-61515D02*
X85295Y-61023D01*
X85295Y-61023D02*
X85610Y-61023D01*
X85610Y-61023D02*
X85610Y-60236D01*
X81673Y-60236D02*
X79665Y-60236D01*
X79665Y-60236D02*
X79665Y-64173D01*
X79665Y-64173D02*
X81673Y-64173D01*
X81673Y-64173D02*
X81673Y-63385D01*
X81673Y-63385D02*
X81358Y-63385D01*
X81358Y-63385D02*
X81358Y-62893D01*
X81358Y-62893D02*
X81673Y-62893D01*
X81673Y-62893D02*
X81673Y-61515D01*
X81673Y-61515D02*
X81358Y-61515D01*
X81358Y-61515D02*
X81358Y-61023D01*
X81358Y-61023D02*
X81673Y-61023D01*
X81673Y-61023D02*
X81673Y-60236D01*
M02*
