G04 (created by PCBNEW (2013-may-18)-stable) date Mon 21 Sep 2015 01:58:13 PM CST*
%MOIN*%
G04 Gerber Fmt 3.4, Leading zero omitted, Abs format*
%FSLAX34Y34*%
G01*
G70*
G90*
G04 APERTURE LIST*
%ADD10C,0.00590551*%
%ADD11R,0.0511811X0.0511811*%
%ADD12C,0.0511811*%
%ADD13R,0.06X0.06*%
%ADD14C,0.06*%
%ADD15C,0.018*%
%ADD16C,0.01*%
G04 APERTURE END LIST*
G54D10*
G54D11*
X56417Y-43543D03*
G54D12*
X56417Y-42755D03*
X56417Y-41968D03*
X56417Y-41181D03*
G54D11*
X53346Y-43551D03*
G54D12*
X53346Y-42763D03*
X53346Y-41976D03*
X53346Y-41188D03*
G54D11*
X65629Y-43551D03*
G54D12*
X65629Y-42763D03*
X65629Y-41976D03*
X65629Y-41188D03*
G54D13*
X52055Y-39370D03*
G54D14*
X53055Y-39370D03*
X54055Y-39370D03*
X55055Y-39370D03*
X56055Y-39370D03*
X57055Y-39370D03*
X58055Y-39370D03*
X59055Y-39370D03*
X60055Y-39370D03*
X61055Y-39370D03*
X62055Y-39370D03*
X63055Y-39370D03*
X64055Y-39370D03*
X65055Y-39370D03*
X66055Y-39370D03*
G54D13*
X52055Y-45370D03*
G54D14*
X53055Y-45370D03*
X54055Y-45370D03*
X55055Y-45370D03*
X56055Y-45370D03*
X57055Y-45370D03*
X58055Y-45370D03*
X59055Y-45370D03*
X60055Y-45370D03*
X61055Y-45370D03*
X62055Y-45370D03*
X63055Y-45370D03*
X64055Y-45370D03*
X65055Y-45370D03*
X66055Y-45370D03*
G54D11*
X62559Y-43551D03*
G54D12*
X62559Y-42763D03*
X62559Y-41976D03*
X62559Y-41188D03*
G54D11*
X59488Y-43551D03*
G54D12*
X59488Y-42763D03*
X59488Y-41976D03*
X59488Y-41188D03*
G54D15*
X66023Y-40118D03*
X63858Y-40118D03*
X60708Y-40157D03*
X57559Y-41653D03*
X56535Y-40314D03*
X52559Y-40433D03*
G54D16*
X63055Y-45370D02*
X63055Y-41685D01*
X63055Y-41685D02*
X62559Y-41188D01*
X62055Y-45370D02*
X62055Y-42480D01*
X62055Y-42480D02*
X62559Y-41976D01*
X58055Y-45370D02*
X58055Y-42622D01*
X58055Y-42622D02*
X59488Y-41188D01*
X59055Y-45370D02*
X59078Y-45370D01*
X60236Y-42724D02*
X59488Y-41976D01*
X60236Y-44212D02*
X60236Y-42724D01*
X59078Y-45370D02*
X60236Y-44212D01*
X63858Y-40118D02*
X65236Y-40118D01*
X65236Y-40118D02*
X66023Y-40118D01*
X60748Y-40118D02*
X63858Y-40118D01*
X60708Y-40157D02*
X60748Y-40118D01*
X57244Y-41220D02*
X56535Y-40314D01*
X57559Y-41653D02*
X57244Y-41220D01*
X56811Y-43543D02*
X57362Y-42992D01*
X57362Y-42992D02*
X57480Y-42125D01*
X57480Y-42125D02*
X57559Y-41653D01*
X56417Y-43543D02*
X56811Y-43543D01*
X53346Y-43551D02*
X56409Y-43551D01*
X56409Y-43551D02*
X56417Y-43543D01*
X53346Y-43551D02*
X53196Y-43551D01*
X52559Y-42913D02*
X52559Y-40433D01*
X53196Y-43551D02*
X52559Y-42913D01*
X53055Y-45370D02*
X53055Y-43842D01*
X53055Y-43842D02*
X53346Y-43551D01*
G54D10*
G36*
X59936Y-44088D02*
X59438Y-44586D01*
X59438Y-43994D01*
X59438Y-43601D01*
X59044Y-43601D01*
X58982Y-43663D01*
X58982Y-43856D01*
X59020Y-43948D01*
X59090Y-44018D01*
X59182Y-44057D01*
X59281Y-44057D01*
X59375Y-44057D01*
X59438Y-43994D01*
X59438Y-44586D01*
X59192Y-44831D01*
X59164Y-44820D01*
X58946Y-44819D01*
X58743Y-44903D01*
X58589Y-45058D01*
X58555Y-45139D01*
X58521Y-45058D01*
X58367Y-44904D01*
X58355Y-44899D01*
X58355Y-42746D01*
X58994Y-42106D01*
X59059Y-42262D01*
X59166Y-42370D01*
X59059Y-42476D01*
X58982Y-42662D01*
X58982Y-42863D01*
X59059Y-43049D01*
X59091Y-43082D01*
X59090Y-43083D01*
X59020Y-43153D01*
X58982Y-43245D01*
X58982Y-43438D01*
X59044Y-43501D01*
X59438Y-43501D01*
X59438Y-43493D01*
X59538Y-43493D01*
X59538Y-43501D01*
X59546Y-43501D01*
X59546Y-43601D01*
X59538Y-43601D01*
X59538Y-43994D01*
X59600Y-44057D01*
X59694Y-44057D01*
X59794Y-44057D01*
X59885Y-44018D01*
X59936Y-43968D01*
X59936Y-44088D01*
X59936Y-44088D01*
G37*
G54D16*
X59936Y-44088D02*
X59438Y-44586D01*
X59438Y-43994D01*
X59438Y-43601D01*
X59044Y-43601D01*
X58982Y-43663D01*
X58982Y-43856D01*
X59020Y-43948D01*
X59090Y-44018D01*
X59182Y-44057D01*
X59281Y-44057D01*
X59375Y-44057D01*
X59438Y-43994D01*
X59438Y-44586D01*
X59192Y-44831D01*
X59164Y-44820D01*
X58946Y-44819D01*
X58743Y-44903D01*
X58589Y-45058D01*
X58555Y-45139D01*
X58521Y-45058D01*
X58367Y-44904D01*
X58355Y-44899D01*
X58355Y-42746D01*
X58994Y-42106D01*
X59059Y-42262D01*
X59166Y-42370D01*
X59059Y-42476D01*
X58982Y-42662D01*
X58982Y-42863D01*
X59059Y-43049D01*
X59091Y-43082D01*
X59090Y-43083D01*
X59020Y-43153D01*
X58982Y-43245D01*
X58982Y-43438D01*
X59044Y-43501D01*
X59438Y-43501D01*
X59438Y-43493D01*
X59538Y-43493D01*
X59538Y-43501D01*
X59546Y-43501D01*
X59546Y-43601D01*
X59538Y-43601D01*
X59538Y-43994D01*
X59600Y-44057D01*
X59694Y-44057D01*
X59794Y-44057D01*
X59885Y-44018D01*
X59936Y-43968D01*
X59936Y-44088D01*
G54D10*
G36*
X62755Y-44898D02*
X62743Y-44903D01*
X62589Y-45058D01*
X62555Y-45139D01*
X62521Y-45058D01*
X62367Y-44904D01*
X62355Y-44899D01*
X62355Y-44057D01*
X62446Y-44057D01*
X62509Y-43994D01*
X62509Y-43601D01*
X62501Y-43601D01*
X62501Y-43501D01*
X62509Y-43501D01*
X62509Y-43493D01*
X62609Y-43493D01*
X62609Y-43501D01*
X62616Y-43501D01*
X62616Y-43601D01*
X62609Y-43601D01*
X62609Y-43994D01*
X62671Y-44057D01*
X62755Y-44057D01*
X62755Y-44898D01*
X62755Y-44898D01*
G37*
G54D16*
X62755Y-44898D02*
X62743Y-44903D01*
X62589Y-45058D01*
X62555Y-45139D01*
X62521Y-45058D01*
X62367Y-44904D01*
X62355Y-44899D01*
X62355Y-44057D01*
X62446Y-44057D01*
X62509Y-43994D01*
X62509Y-43601D01*
X62501Y-43601D01*
X62501Y-43501D01*
X62509Y-43501D01*
X62509Y-43493D01*
X62609Y-43493D01*
X62609Y-43501D01*
X62616Y-43501D01*
X62616Y-43601D01*
X62609Y-43601D01*
X62609Y-43994D01*
X62671Y-44057D01*
X62755Y-44057D01*
X62755Y-44898D01*
G54D10*
G36*
X66383Y-44920D02*
X66367Y-44904D01*
X66164Y-44820D01*
X66135Y-44820D01*
X66135Y-42663D01*
X66059Y-42477D01*
X65951Y-42370D01*
X66058Y-42263D01*
X66135Y-42077D01*
X66135Y-41876D01*
X66059Y-41690D01*
X65951Y-41582D01*
X66058Y-41475D01*
X66135Y-41290D01*
X66135Y-41088D01*
X66059Y-40902D01*
X65916Y-40760D01*
X65730Y-40683D01*
X65529Y-40682D01*
X65343Y-40759D01*
X65201Y-40902D01*
X65124Y-41087D01*
X65123Y-41289D01*
X65200Y-41475D01*
X65308Y-41582D01*
X65201Y-41689D01*
X65124Y-41875D01*
X65123Y-42076D01*
X65200Y-42262D01*
X65308Y-42370D01*
X65201Y-42476D01*
X65124Y-42662D01*
X65123Y-42863D01*
X65200Y-43049D01*
X65233Y-43082D01*
X65232Y-43083D01*
X65161Y-43153D01*
X65123Y-43245D01*
X65124Y-43438D01*
X65186Y-43501D01*
X65579Y-43501D01*
X65579Y-43493D01*
X65679Y-43493D01*
X65679Y-43501D01*
X66073Y-43501D01*
X66135Y-43438D01*
X66135Y-43245D01*
X66097Y-43153D01*
X66027Y-43083D01*
X66026Y-43082D01*
X66058Y-43050D01*
X66135Y-42864D01*
X66135Y-42663D01*
X66135Y-44820D01*
X66135Y-44820D01*
X66135Y-43856D01*
X66135Y-43663D01*
X66073Y-43601D01*
X65679Y-43601D01*
X65679Y-43994D01*
X65742Y-44057D01*
X65836Y-44057D01*
X65935Y-44057D01*
X66027Y-44018D01*
X66097Y-43948D01*
X66135Y-43856D01*
X66135Y-44820D01*
X65946Y-44819D01*
X65743Y-44903D01*
X65589Y-45058D01*
X65579Y-45080D01*
X65579Y-43994D01*
X65579Y-43601D01*
X65186Y-43601D01*
X65124Y-43663D01*
X65123Y-43856D01*
X65161Y-43948D01*
X65232Y-44018D01*
X65324Y-44057D01*
X65423Y-44057D01*
X65517Y-44057D01*
X65579Y-43994D01*
X65579Y-45080D01*
X65555Y-45139D01*
X65521Y-45058D01*
X65367Y-44904D01*
X65164Y-44820D01*
X64946Y-44819D01*
X64743Y-44903D01*
X64589Y-45058D01*
X64555Y-45139D01*
X64521Y-45058D01*
X64367Y-44904D01*
X64164Y-44820D01*
X63946Y-44819D01*
X63743Y-44903D01*
X63589Y-45058D01*
X63555Y-45139D01*
X63521Y-45058D01*
X63367Y-44904D01*
X63355Y-44899D01*
X63355Y-41685D01*
X63332Y-41570D01*
X63267Y-41472D01*
X63064Y-41270D01*
X63065Y-41088D01*
X62988Y-40902D01*
X62846Y-40760D01*
X62660Y-40683D01*
X62458Y-40682D01*
X62272Y-40759D01*
X62130Y-40902D01*
X62053Y-41087D01*
X62053Y-41289D01*
X62129Y-41475D01*
X62237Y-41582D01*
X62130Y-41689D01*
X62053Y-41875D01*
X62053Y-42058D01*
X61842Y-42268D01*
X61777Y-42365D01*
X61755Y-42480D01*
X61755Y-44898D01*
X61743Y-44903D01*
X61589Y-45058D01*
X61555Y-45139D01*
X61521Y-45058D01*
X61367Y-44904D01*
X61164Y-44820D01*
X60946Y-44819D01*
X60743Y-44903D01*
X60589Y-45058D01*
X60555Y-45139D01*
X60521Y-45058D01*
X60367Y-44904D01*
X60164Y-44820D01*
X60053Y-44820D01*
X60448Y-44424D01*
X60448Y-44424D01*
X60513Y-44327D01*
X60536Y-44212D01*
X60536Y-44212D01*
X60536Y-42724D01*
X60536Y-42724D01*
X60513Y-42609D01*
X60448Y-42512D01*
X60448Y-42512D01*
X59994Y-42057D01*
X59994Y-41876D01*
X59917Y-41690D01*
X59809Y-41582D01*
X59916Y-41475D01*
X59994Y-41290D01*
X59994Y-41088D01*
X59917Y-40902D01*
X59775Y-40760D01*
X59589Y-40683D01*
X59387Y-40682D01*
X59201Y-40759D01*
X59059Y-40902D01*
X58982Y-41087D01*
X58982Y-41270D01*
X57842Y-42409D01*
X57777Y-42507D01*
X57755Y-42622D01*
X57755Y-44898D01*
X57743Y-44903D01*
X57589Y-45058D01*
X57555Y-45139D01*
X57521Y-45058D01*
X57367Y-44904D01*
X57164Y-44820D01*
X56946Y-44819D01*
X56923Y-44829D01*
X56923Y-42655D01*
X56846Y-42469D01*
X56739Y-42362D01*
X56845Y-42255D01*
X56923Y-42069D01*
X56923Y-41868D01*
X56846Y-41682D01*
X56739Y-41574D01*
X56845Y-41468D01*
X56923Y-41282D01*
X56923Y-41080D01*
X56846Y-40894D01*
X56704Y-40752D01*
X56518Y-40675D01*
X56317Y-40675D01*
X56131Y-40751D01*
X55988Y-40894D01*
X55911Y-41080D01*
X55911Y-41281D01*
X55988Y-41467D01*
X56095Y-41574D01*
X55988Y-41681D01*
X55911Y-41867D01*
X55911Y-42068D01*
X55988Y-42254D01*
X56095Y-42362D01*
X55988Y-42468D01*
X55911Y-42654D01*
X55911Y-42856D01*
X55988Y-43042D01*
X56021Y-43075D01*
X56019Y-43075D01*
X55949Y-43145D01*
X55911Y-43237D01*
X55911Y-43430D01*
X55973Y-43493D01*
X56367Y-43493D01*
X56367Y-43485D01*
X56467Y-43485D01*
X56467Y-43493D01*
X56860Y-43493D01*
X56923Y-43430D01*
X56923Y-43237D01*
X56885Y-43145D01*
X56815Y-43075D01*
X56813Y-43075D01*
X56845Y-43042D01*
X56923Y-42856D01*
X56923Y-42655D01*
X56923Y-44829D01*
X56923Y-44829D01*
X56923Y-43848D01*
X56923Y-43655D01*
X56860Y-43593D01*
X56467Y-43593D01*
X56467Y-43986D01*
X56529Y-44049D01*
X56623Y-44049D01*
X56723Y-44049D01*
X56815Y-44011D01*
X56885Y-43940D01*
X56923Y-43848D01*
X56923Y-44829D01*
X56743Y-44903D01*
X56589Y-45058D01*
X56555Y-45139D01*
X56521Y-45058D01*
X56367Y-44904D01*
X56367Y-43986D01*
X56367Y-43593D01*
X55973Y-43593D01*
X55911Y-43655D01*
X55911Y-43848D01*
X55949Y-43940D01*
X56019Y-44011D01*
X56111Y-44049D01*
X56210Y-44049D01*
X56304Y-44049D01*
X56367Y-43986D01*
X56367Y-44904D01*
X56367Y-44904D01*
X56164Y-44820D01*
X55946Y-44819D01*
X55743Y-44903D01*
X55589Y-45058D01*
X55555Y-45139D01*
X55521Y-45058D01*
X55370Y-44907D01*
X55370Y-39755D01*
X55055Y-39440D01*
X54739Y-39755D01*
X54767Y-39851D01*
X54973Y-39924D01*
X55191Y-39913D01*
X55342Y-39851D01*
X55370Y-39755D01*
X55370Y-44907D01*
X55367Y-44904D01*
X55164Y-44820D01*
X54946Y-44819D01*
X54743Y-44903D01*
X54589Y-45058D01*
X54555Y-45139D01*
X54521Y-45058D01*
X54367Y-44904D01*
X54164Y-44820D01*
X53946Y-44819D01*
X53852Y-44858D01*
X53852Y-42663D01*
X53775Y-42477D01*
X53668Y-42370D01*
X53775Y-42263D01*
X53852Y-42077D01*
X53852Y-41876D01*
X53775Y-41690D01*
X53668Y-41582D01*
X53775Y-41475D01*
X53852Y-41290D01*
X53852Y-41088D01*
X53775Y-40902D01*
X53633Y-40760D01*
X53447Y-40683D01*
X53246Y-40682D01*
X53060Y-40759D01*
X52917Y-40902D01*
X52840Y-41087D01*
X52840Y-41289D01*
X52917Y-41475D01*
X53024Y-41582D01*
X52917Y-41689D01*
X52840Y-41875D01*
X52840Y-42076D01*
X52917Y-42262D01*
X53024Y-42370D01*
X52917Y-42476D01*
X52840Y-42662D01*
X52840Y-42863D01*
X52917Y-43049D01*
X52950Y-43082D01*
X52948Y-43083D01*
X52878Y-43153D01*
X52840Y-43245D01*
X52840Y-43438D01*
X52903Y-43501D01*
X53296Y-43501D01*
X53296Y-43493D01*
X53396Y-43493D01*
X53396Y-43501D01*
X53789Y-43501D01*
X53852Y-43438D01*
X53852Y-43245D01*
X53814Y-43153D01*
X53744Y-43083D01*
X53742Y-43082D01*
X53775Y-43050D01*
X53852Y-42864D01*
X53852Y-42663D01*
X53852Y-44858D01*
X53852Y-44858D01*
X53852Y-43856D01*
X53852Y-43663D01*
X53789Y-43601D01*
X53396Y-43601D01*
X53396Y-43994D01*
X53458Y-44057D01*
X53552Y-44057D01*
X53652Y-44057D01*
X53744Y-44018D01*
X53814Y-43948D01*
X53852Y-43856D01*
X53852Y-44858D01*
X53743Y-44903D01*
X53589Y-45058D01*
X53557Y-45133D01*
X53536Y-45082D01*
X53441Y-45054D01*
X53370Y-45125D01*
X53370Y-44984D01*
X53342Y-44888D01*
X53296Y-44872D01*
X53296Y-43994D01*
X53296Y-43601D01*
X52903Y-43601D01*
X52840Y-43663D01*
X52840Y-43856D01*
X52878Y-43948D01*
X52948Y-44018D01*
X53040Y-44057D01*
X53140Y-44057D01*
X53233Y-44057D01*
X53296Y-43994D01*
X53296Y-44872D01*
X53136Y-44815D01*
X52918Y-44826D01*
X52767Y-44888D01*
X52739Y-44984D01*
X53055Y-45299D01*
X53370Y-44984D01*
X53370Y-45125D01*
X53125Y-45370D01*
X53131Y-45375D01*
X53060Y-45446D01*
X53055Y-45440D01*
X53049Y-45446D01*
X52978Y-45375D01*
X52984Y-45370D01*
X52669Y-45054D01*
X52605Y-45073D01*
X52605Y-45020D01*
X52567Y-44928D01*
X52496Y-44858D01*
X52405Y-44820D01*
X52305Y-44820D01*
X51726Y-44820D01*
X51726Y-39920D01*
X51804Y-39920D01*
X52404Y-39920D01*
X52496Y-39882D01*
X52566Y-39811D01*
X52605Y-39720D01*
X52605Y-39697D01*
X52743Y-39836D01*
X52945Y-39919D01*
X53164Y-39920D01*
X53366Y-39836D01*
X53521Y-39682D01*
X53555Y-39600D01*
X53588Y-39681D01*
X53743Y-39836D01*
X53945Y-39919D01*
X54164Y-39920D01*
X54366Y-39836D01*
X54521Y-39682D01*
X54552Y-39606D01*
X54573Y-39657D01*
X54669Y-39685D01*
X54984Y-39370D01*
X54978Y-39364D01*
X55049Y-39293D01*
X55055Y-39299D01*
X55060Y-39293D01*
X55131Y-39364D01*
X55125Y-39370D01*
X55441Y-39685D01*
X55536Y-39657D01*
X55556Y-39602D01*
X55588Y-39681D01*
X55743Y-39836D01*
X55945Y-39919D01*
X56164Y-39920D01*
X56366Y-39836D01*
X56521Y-39682D01*
X56555Y-39600D01*
X56588Y-39681D01*
X56743Y-39836D01*
X56945Y-39919D01*
X57164Y-39920D01*
X57366Y-39836D01*
X57521Y-39682D01*
X57555Y-39600D01*
X57588Y-39681D01*
X57743Y-39836D01*
X57945Y-39919D01*
X58164Y-39920D01*
X58366Y-39836D01*
X58521Y-39682D01*
X58555Y-39600D01*
X58588Y-39681D01*
X58743Y-39836D01*
X58945Y-39919D01*
X59164Y-39920D01*
X59366Y-39836D01*
X59521Y-39682D01*
X59555Y-39600D01*
X59588Y-39681D01*
X59743Y-39836D01*
X59945Y-39919D01*
X60164Y-39920D01*
X60366Y-39836D01*
X60521Y-39682D01*
X60555Y-39600D01*
X60588Y-39681D01*
X60743Y-39836D01*
X60945Y-39919D01*
X61164Y-39920D01*
X61366Y-39836D01*
X61521Y-39682D01*
X61555Y-39600D01*
X61588Y-39681D01*
X61743Y-39836D01*
X61945Y-39919D01*
X62164Y-39920D01*
X62366Y-39836D01*
X62521Y-39682D01*
X62555Y-39600D01*
X62588Y-39681D01*
X62743Y-39836D01*
X62945Y-39919D01*
X63164Y-39920D01*
X63366Y-39836D01*
X63521Y-39682D01*
X63555Y-39600D01*
X63588Y-39681D01*
X63743Y-39836D01*
X63945Y-39919D01*
X64164Y-39920D01*
X64366Y-39836D01*
X64521Y-39682D01*
X64555Y-39600D01*
X64588Y-39681D01*
X64743Y-39836D01*
X64945Y-39919D01*
X65164Y-39920D01*
X65366Y-39836D01*
X65521Y-39682D01*
X65555Y-39600D01*
X65588Y-39681D01*
X65743Y-39836D01*
X65945Y-39919D01*
X66164Y-39920D01*
X66366Y-39836D01*
X66383Y-39819D01*
X66383Y-44920D01*
X66383Y-44920D01*
G37*
G54D16*
X66383Y-44920D02*
X66367Y-44904D01*
X66164Y-44820D01*
X66135Y-44820D01*
X66135Y-42663D01*
X66059Y-42477D01*
X65951Y-42370D01*
X66058Y-42263D01*
X66135Y-42077D01*
X66135Y-41876D01*
X66059Y-41690D01*
X65951Y-41582D01*
X66058Y-41475D01*
X66135Y-41290D01*
X66135Y-41088D01*
X66059Y-40902D01*
X65916Y-40760D01*
X65730Y-40683D01*
X65529Y-40682D01*
X65343Y-40759D01*
X65201Y-40902D01*
X65124Y-41087D01*
X65123Y-41289D01*
X65200Y-41475D01*
X65308Y-41582D01*
X65201Y-41689D01*
X65124Y-41875D01*
X65123Y-42076D01*
X65200Y-42262D01*
X65308Y-42370D01*
X65201Y-42476D01*
X65124Y-42662D01*
X65123Y-42863D01*
X65200Y-43049D01*
X65233Y-43082D01*
X65232Y-43083D01*
X65161Y-43153D01*
X65123Y-43245D01*
X65124Y-43438D01*
X65186Y-43501D01*
X65579Y-43501D01*
X65579Y-43493D01*
X65679Y-43493D01*
X65679Y-43501D01*
X66073Y-43501D01*
X66135Y-43438D01*
X66135Y-43245D01*
X66097Y-43153D01*
X66027Y-43083D01*
X66026Y-43082D01*
X66058Y-43050D01*
X66135Y-42864D01*
X66135Y-42663D01*
X66135Y-44820D01*
X66135Y-44820D01*
X66135Y-43856D01*
X66135Y-43663D01*
X66073Y-43601D01*
X65679Y-43601D01*
X65679Y-43994D01*
X65742Y-44057D01*
X65836Y-44057D01*
X65935Y-44057D01*
X66027Y-44018D01*
X66097Y-43948D01*
X66135Y-43856D01*
X66135Y-44820D01*
X65946Y-44819D01*
X65743Y-44903D01*
X65589Y-45058D01*
X65579Y-45080D01*
X65579Y-43994D01*
X65579Y-43601D01*
X65186Y-43601D01*
X65124Y-43663D01*
X65123Y-43856D01*
X65161Y-43948D01*
X65232Y-44018D01*
X65324Y-44057D01*
X65423Y-44057D01*
X65517Y-44057D01*
X65579Y-43994D01*
X65579Y-45080D01*
X65555Y-45139D01*
X65521Y-45058D01*
X65367Y-44904D01*
X65164Y-44820D01*
X64946Y-44819D01*
X64743Y-44903D01*
X64589Y-45058D01*
X64555Y-45139D01*
X64521Y-45058D01*
X64367Y-44904D01*
X64164Y-44820D01*
X63946Y-44819D01*
X63743Y-44903D01*
X63589Y-45058D01*
X63555Y-45139D01*
X63521Y-45058D01*
X63367Y-44904D01*
X63355Y-44899D01*
X63355Y-41685D01*
X63332Y-41570D01*
X63267Y-41472D01*
X63064Y-41270D01*
X63065Y-41088D01*
X62988Y-40902D01*
X62846Y-40760D01*
X62660Y-40683D01*
X62458Y-40682D01*
X62272Y-40759D01*
X62130Y-40902D01*
X62053Y-41087D01*
X62053Y-41289D01*
X62129Y-41475D01*
X62237Y-41582D01*
X62130Y-41689D01*
X62053Y-41875D01*
X62053Y-42058D01*
X61842Y-42268D01*
X61777Y-42365D01*
X61755Y-42480D01*
X61755Y-44898D01*
X61743Y-44903D01*
X61589Y-45058D01*
X61555Y-45139D01*
X61521Y-45058D01*
X61367Y-44904D01*
X61164Y-44820D01*
X60946Y-44819D01*
X60743Y-44903D01*
X60589Y-45058D01*
X60555Y-45139D01*
X60521Y-45058D01*
X60367Y-44904D01*
X60164Y-44820D01*
X60053Y-44820D01*
X60448Y-44424D01*
X60448Y-44424D01*
X60513Y-44327D01*
X60536Y-44212D01*
X60536Y-44212D01*
X60536Y-42724D01*
X60536Y-42724D01*
X60513Y-42609D01*
X60448Y-42512D01*
X60448Y-42512D01*
X59994Y-42057D01*
X59994Y-41876D01*
X59917Y-41690D01*
X59809Y-41582D01*
X59916Y-41475D01*
X59994Y-41290D01*
X59994Y-41088D01*
X59917Y-40902D01*
X59775Y-40760D01*
X59589Y-40683D01*
X59387Y-40682D01*
X59201Y-40759D01*
X59059Y-40902D01*
X58982Y-41087D01*
X58982Y-41270D01*
X57842Y-42409D01*
X57777Y-42507D01*
X57755Y-42622D01*
X57755Y-44898D01*
X57743Y-44903D01*
X57589Y-45058D01*
X57555Y-45139D01*
X57521Y-45058D01*
X57367Y-44904D01*
X57164Y-44820D01*
X56946Y-44819D01*
X56923Y-44829D01*
X56923Y-42655D01*
X56846Y-42469D01*
X56739Y-42362D01*
X56845Y-42255D01*
X56923Y-42069D01*
X56923Y-41868D01*
X56846Y-41682D01*
X56739Y-41574D01*
X56845Y-41468D01*
X56923Y-41282D01*
X56923Y-41080D01*
X56846Y-40894D01*
X56704Y-40752D01*
X56518Y-40675D01*
X56317Y-40675D01*
X56131Y-40751D01*
X55988Y-40894D01*
X55911Y-41080D01*
X55911Y-41281D01*
X55988Y-41467D01*
X56095Y-41574D01*
X55988Y-41681D01*
X55911Y-41867D01*
X55911Y-42068D01*
X55988Y-42254D01*
X56095Y-42362D01*
X55988Y-42468D01*
X55911Y-42654D01*
X55911Y-42856D01*
X55988Y-43042D01*
X56021Y-43075D01*
X56019Y-43075D01*
X55949Y-43145D01*
X55911Y-43237D01*
X55911Y-43430D01*
X55973Y-43493D01*
X56367Y-43493D01*
X56367Y-43485D01*
X56467Y-43485D01*
X56467Y-43493D01*
X56860Y-43493D01*
X56923Y-43430D01*
X56923Y-43237D01*
X56885Y-43145D01*
X56815Y-43075D01*
X56813Y-43075D01*
X56845Y-43042D01*
X56923Y-42856D01*
X56923Y-42655D01*
X56923Y-44829D01*
X56923Y-44829D01*
X56923Y-43848D01*
X56923Y-43655D01*
X56860Y-43593D01*
X56467Y-43593D01*
X56467Y-43986D01*
X56529Y-44049D01*
X56623Y-44049D01*
X56723Y-44049D01*
X56815Y-44011D01*
X56885Y-43940D01*
X56923Y-43848D01*
X56923Y-44829D01*
X56743Y-44903D01*
X56589Y-45058D01*
X56555Y-45139D01*
X56521Y-45058D01*
X56367Y-44904D01*
X56367Y-43986D01*
X56367Y-43593D01*
X55973Y-43593D01*
X55911Y-43655D01*
X55911Y-43848D01*
X55949Y-43940D01*
X56019Y-44011D01*
X56111Y-44049D01*
X56210Y-44049D01*
X56304Y-44049D01*
X56367Y-43986D01*
X56367Y-44904D01*
X56367Y-44904D01*
X56164Y-44820D01*
X55946Y-44819D01*
X55743Y-44903D01*
X55589Y-45058D01*
X55555Y-45139D01*
X55521Y-45058D01*
X55370Y-44907D01*
X55370Y-39755D01*
X55055Y-39440D01*
X54739Y-39755D01*
X54767Y-39851D01*
X54973Y-39924D01*
X55191Y-39913D01*
X55342Y-39851D01*
X55370Y-39755D01*
X55370Y-44907D01*
X55367Y-44904D01*
X55164Y-44820D01*
X54946Y-44819D01*
X54743Y-44903D01*
X54589Y-45058D01*
X54555Y-45139D01*
X54521Y-45058D01*
X54367Y-44904D01*
X54164Y-44820D01*
X53946Y-44819D01*
X53852Y-44858D01*
X53852Y-42663D01*
X53775Y-42477D01*
X53668Y-42370D01*
X53775Y-42263D01*
X53852Y-42077D01*
X53852Y-41876D01*
X53775Y-41690D01*
X53668Y-41582D01*
X53775Y-41475D01*
X53852Y-41290D01*
X53852Y-41088D01*
X53775Y-40902D01*
X53633Y-40760D01*
X53447Y-40683D01*
X53246Y-40682D01*
X53060Y-40759D01*
X52917Y-40902D01*
X52840Y-41087D01*
X52840Y-41289D01*
X52917Y-41475D01*
X53024Y-41582D01*
X52917Y-41689D01*
X52840Y-41875D01*
X52840Y-42076D01*
X52917Y-42262D01*
X53024Y-42370D01*
X52917Y-42476D01*
X52840Y-42662D01*
X52840Y-42863D01*
X52917Y-43049D01*
X52950Y-43082D01*
X52948Y-43083D01*
X52878Y-43153D01*
X52840Y-43245D01*
X52840Y-43438D01*
X52903Y-43501D01*
X53296Y-43501D01*
X53296Y-43493D01*
X53396Y-43493D01*
X53396Y-43501D01*
X53789Y-43501D01*
X53852Y-43438D01*
X53852Y-43245D01*
X53814Y-43153D01*
X53744Y-43083D01*
X53742Y-43082D01*
X53775Y-43050D01*
X53852Y-42864D01*
X53852Y-42663D01*
X53852Y-44858D01*
X53852Y-44858D01*
X53852Y-43856D01*
X53852Y-43663D01*
X53789Y-43601D01*
X53396Y-43601D01*
X53396Y-43994D01*
X53458Y-44057D01*
X53552Y-44057D01*
X53652Y-44057D01*
X53744Y-44018D01*
X53814Y-43948D01*
X53852Y-43856D01*
X53852Y-44858D01*
X53743Y-44903D01*
X53589Y-45058D01*
X53557Y-45133D01*
X53536Y-45082D01*
X53441Y-45054D01*
X53370Y-45125D01*
X53370Y-44984D01*
X53342Y-44888D01*
X53296Y-44872D01*
X53296Y-43994D01*
X53296Y-43601D01*
X52903Y-43601D01*
X52840Y-43663D01*
X52840Y-43856D01*
X52878Y-43948D01*
X52948Y-44018D01*
X53040Y-44057D01*
X53140Y-44057D01*
X53233Y-44057D01*
X53296Y-43994D01*
X53296Y-44872D01*
X53136Y-44815D01*
X52918Y-44826D01*
X52767Y-44888D01*
X52739Y-44984D01*
X53055Y-45299D01*
X53370Y-44984D01*
X53370Y-45125D01*
X53125Y-45370D01*
X53131Y-45375D01*
X53060Y-45446D01*
X53055Y-45440D01*
X53049Y-45446D01*
X52978Y-45375D01*
X52984Y-45370D01*
X52669Y-45054D01*
X52605Y-45073D01*
X52605Y-45020D01*
X52567Y-44928D01*
X52496Y-44858D01*
X52405Y-44820D01*
X52305Y-44820D01*
X51726Y-44820D01*
X51726Y-39920D01*
X51804Y-39920D01*
X52404Y-39920D01*
X52496Y-39882D01*
X52566Y-39811D01*
X52605Y-39720D01*
X52605Y-39697D01*
X52743Y-39836D01*
X52945Y-39919D01*
X53164Y-39920D01*
X53366Y-39836D01*
X53521Y-39682D01*
X53555Y-39600D01*
X53588Y-39681D01*
X53743Y-39836D01*
X53945Y-39919D01*
X54164Y-39920D01*
X54366Y-39836D01*
X54521Y-39682D01*
X54552Y-39606D01*
X54573Y-39657D01*
X54669Y-39685D01*
X54984Y-39370D01*
X54978Y-39364D01*
X55049Y-39293D01*
X55055Y-39299D01*
X55060Y-39293D01*
X55131Y-39364D01*
X55125Y-39370D01*
X55441Y-39685D01*
X55536Y-39657D01*
X55556Y-39602D01*
X55588Y-39681D01*
X55743Y-39836D01*
X55945Y-39919D01*
X56164Y-39920D01*
X56366Y-39836D01*
X56521Y-39682D01*
X56555Y-39600D01*
X56588Y-39681D01*
X56743Y-39836D01*
X56945Y-39919D01*
X57164Y-39920D01*
X57366Y-39836D01*
X57521Y-39682D01*
X57555Y-39600D01*
X57588Y-39681D01*
X57743Y-39836D01*
X57945Y-39919D01*
X58164Y-39920D01*
X58366Y-39836D01*
X58521Y-39682D01*
X58555Y-39600D01*
X58588Y-39681D01*
X58743Y-39836D01*
X58945Y-39919D01*
X59164Y-39920D01*
X59366Y-39836D01*
X59521Y-39682D01*
X59555Y-39600D01*
X59588Y-39681D01*
X59743Y-39836D01*
X59945Y-39919D01*
X60164Y-39920D01*
X60366Y-39836D01*
X60521Y-39682D01*
X60555Y-39600D01*
X60588Y-39681D01*
X60743Y-39836D01*
X60945Y-39919D01*
X61164Y-39920D01*
X61366Y-39836D01*
X61521Y-39682D01*
X61555Y-39600D01*
X61588Y-39681D01*
X61743Y-39836D01*
X61945Y-39919D01*
X62164Y-39920D01*
X62366Y-39836D01*
X62521Y-39682D01*
X62555Y-39600D01*
X62588Y-39681D01*
X62743Y-39836D01*
X62945Y-39919D01*
X63164Y-39920D01*
X63366Y-39836D01*
X63521Y-39682D01*
X63555Y-39600D01*
X63588Y-39681D01*
X63743Y-39836D01*
X63945Y-39919D01*
X64164Y-39920D01*
X64366Y-39836D01*
X64521Y-39682D01*
X64555Y-39600D01*
X64588Y-39681D01*
X64743Y-39836D01*
X64945Y-39919D01*
X65164Y-39920D01*
X65366Y-39836D01*
X65521Y-39682D01*
X65555Y-39600D01*
X65588Y-39681D01*
X65743Y-39836D01*
X65945Y-39919D01*
X66164Y-39920D01*
X66366Y-39836D01*
X66383Y-39819D01*
X66383Y-44920D01*
M02*
