G04 (created by PCBNEW (2013-may-18)-stable) date Mon 21 Sep 2015 01:58:13 PM CST*
%MOIN*%
G04 Gerber Fmt 3.4, Leading zero omitted, Abs format*
%FSLAX34Y34*%
G01*
G70*
G90*
G04 APERTURE LIST*
%ADD10C,0.00590551*%
%ADD11C,0.00787402*%
%ADD12C,0.00606299*%
%ADD13C,0.006*%
G04 APERTURE END LIST*
G54D10*
G54D11*
X54550Y-39900D02*
X55550Y-39900D01*
X54550Y-38850D02*
X54550Y-39900D01*
X55550Y-38850D02*
X54550Y-38850D01*
X54550Y-45900D02*
X54550Y-44850D01*
X55550Y-45900D02*
X54550Y-45900D01*
X55550Y-44850D02*
X55550Y-45900D01*
X54550Y-44850D02*
X55550Y-44850D01*
X53550Y-45900D02*
X52550Y-45900D01*
X53550Y-44850D02*
X53550Y-45900D01*
X52550Y-44850D02*
X53550Y-44850D01*
X52550Y-45900D02*
X52550Y-44850D01*
X63550Y-45900D02*
X61550Y-45900D01*
X63550Y-44850D02*
X63550Y-45900D01*
X61550Y-44850D02*
X63550Y-44850D01*
X61550Y-45900D02*
X61550Y-44850D01*
X64550Y-39900D02*
X62550Y-39900D01*
X64550Y-38850D02*
X64550Y-39900D01*
X62550Y-38850D02*
X64550Y-38850D01*
X62550Y-39900D02*
X62550Y-38850D01*
X55550Y-39900D02*
X55550Y-38850D01*
X57550Y-39900D02*
X55550Y-39900D01*
X57550Y-38850D02*
X57550Y-39900D01*
X55550Y-38850D02*
X57550Y-38850D01*
X51550Y-39900D02*
X51550Y-38850D01*
X53550Y-39900D02*
X51550Y-39900D01*
X53550Y-38850D02*
X53550Y-39900D01*
X51550Y-38850D02*
X53550Y-38850D01*
G54D12*
X52900Y-39984D02*
X52863Y-39965D01*
X52806Y-39965D01*
X52750Y-39984D01*
X52713Y-40021D01*
X52694Y-40059D01*
X52675Y-40134D01*
X52675Y-40190D01*
X52694Y-40265D01*
X52713Y-40303D01*
X52750Y-40340D01*
X52806Y-40359D01*
X52844Y-40359D01*
X52900Y-40340D01*
X52919Y-40321D01*
X52919Y-40190D01*
X52844Y-40190D01*
X53088Y-40359D02*
X53088Y-40096D01*
X53088Y-40171D02*
X53106Y-40134D01*
X53125Y-40115D01*
X53162Y-40096D01*
X53200Y-40096D01*
X53387Y-40359D02*
X53350Y-40340D01*
X53331Y-40321D01*
X53312Y-40284D01*
X53312Y-40171D01*
X53331Y-40134D01*
X53350Y-40115D01*
X53387Y-40096D01*
X53444Y-40096D01*
X53481Y-40115D01*
X53500Y-40134D01*
X53519Y-40171D01*
X53519Y-40284D01*
X53500Y-40321D01*
X53481Y-40340D01*
X53444Y-40359D01*
X53387Y-40359D01*
X53650Y-40096D02*
X53744Y-40359D01*
X53837Y-40096D01*
X54137Y-40340D02*
X54100Y-40359D01*
X54025Y-40359D01*
X53987Y-40340D01*
X53969Y-40303D01*
X53969Y-40153D01*
X53987Y-40115D01*
X54025Y-40096D01*
X54100Y-40096D01*
X54137Y-40115D01*
X54156Y-40153D01*
X54156Y-40190D01*
X53969Y-40228D01*
X54325Y-40359D02*
X54325Y-39965D01*
X54325Y-40153D02*
X54550Y-40153D01*
X54550Y-40359D02*
X54550Y-39965D01*
X54906Y-40359D02*
X54906Y-40153D01*
X54887Y-40115D01*
X54850Y-40096D01*
X54775Y-40096D01*
X54737Y-40115D01*
X54906Y-40340D02*
X54869Y-40359D01*
X54775Y-40359D01*
X54737Y-40340D01*
X54719Y-40303D01*
X54719Y-40265D01*
X54737Y-40228D01*
X54775Y-40209D01*
X54869Y-40209D01*
X54906Y-40190D01*
X55037Y-40096D02*
X55187Y-40096D01*
X55094Y-39965D02*
X55094Y-40303D01*
X55112Y-40340D01*
X55150Y-40359D01*
X55187Y-40359D01*
X55562Y-40096D02*
X55712Y-40096D01*
X55618Y-40359D02*
X55618Y-40021D01*
X55637Y-39984D01*
X55675Y-39965D01*
X55712Y-39965D01*
X55900Y-40359D02*
X55862Y-40340D01*
X55843Y-40321D01*
X55825Y-40284D01*
X55825Y-40171D01*
X55843Y-40134D01*
X55862Y-40115D01*
X55900Y-40096D01*
X55956Y-40096D01*
X55993Y-40115D01*
X56012Y-40134D01*
X56031Y-40171D01*
X56031Y-40284D01*
X56012Y-40321D01*
X55993Y-40340D01*
X55956Y-40359D01*
X55900Y-40359D01*
X56200Y-40359D02*
X56200Y-40096D01*
X56200Y-40171D02*
X56218Y-40134D01*
X56237Y-40115D01*
X56275Y-40096D01*
X56312Y-40096D01*
X56725Y-40246D02*
X56912Y-40246D01*
X56687Y-40359D02*
X56818Y-39965D01*
X56950Y-40359D01*
X57081Y-40359D02*
X57081Y-40096D01*
X57081Y-40171D02*
X57100Y-40134D01*
X57118Y-40115D01*
X57156Y-40096D01*
X57193Y-40096D01*
X57493Y-40359D02*
X57493Y-39965D01*
X57493Y-40340D02*
X57456Y-40359D01*
X57381Y-40359D01*
X57343Y-40340D01*
X57324Y-40321D01*
X57306Y-40284D01*
X57306Y-40171D01*
X57324Y-40134D01*
X57343Y-40115D01*
X57381Y-40096D01*
X57456Y-40096D01*
X57493Y-40115D01*
X57849Y-40096D02*
X57849Y-40359D01*
X57681Y-40096D02*
X57681Y-40303D01*
X57699Y-40340D01*
X57737Y-40359D01*
X57793Y-40359D01*
X57831Y-40340D01*
X57849Y-40321D01*
X58037Y-40359D02*
X58037Y-40096D01*
X58037Y-39965D02*
X58018Y-39984D01*
X58037Y-40003D01*
X58056Y-39984D01*
X58037Y-39965D01*
X58037Y-40003D01*
X58224Y-40096D02*
X58224Y-40359D01*
X58224Y-40134D02*
X58243Y-40115D01*
X58281Y-40096D01*
X58337Y-40096D01*
X58374Y-40115D01*
X58393Y-40153D01*
X58393Y-40359D01*
X58637Y-40359D02*
X58599Y-40340D01*
X58581Y-40321D01*
X58562Y-40284D01*
X58562Y-40171D01*
X58581Y-40134D01*
X58599Y-40115D01*
X58637Y-40096D01*
X58693Y-40096D01*
X58731Y-40115D01*
X58749Y-40134D01*
X58768Y-40171D01*
X58768Y-40284D01*
X58749Y-40321D01*
X58731Y-40340D01*
X58693Y-40359D01*
X58637Y-40359D01*
X59237Y-40359D02*
X59237Y-39965D01*
X59462Y-40359D01*
X59462Y-39965D01*
X59818Y-40359D02*
X59818Y-40153D01*
X59799Y-40115D01*
X59762Y-40096D01*
X59687Y-40096D01*
X59649Y-40115D01*
X59818Y-40340D02*
X59780Y-40359D01*
X59687Y-40359D01*
X59649Y-40340D01*
X59630Y-40303D01*
X59630Y-40265D01*
X59649Y-40228D01*
X59687Y-40209D01*
X59780Y-40209D01*
X59818Y-40190D01*
X60005Y-40096D02*
X60005Y-40359D01*
X60005Y-40134D02*
X60024Y-40115D01*
X60062Y-40096D01*
X60118Y-40096D01*
X60155Y-40115D01*
X60174Y-40153D01*
X60174Y-40359D01*
X60418Y-40359D02*
X60380Y-40340D01*
X60362Y-40321D01*
X60343Y-40284D01*
X60343Y-40171D01*
X60362Y-40134D01*
X60380Y-40115D01*
X60418Y-40096D01*
X60474Y-40096D01*
X60512Y-40115D01*
X60530Y-40134D01*
X60549Y-40171D01*
X60549Y-40284D01*
X60530Y-40321D01*
X60512Y-40340D01*
X60474Y-40359D01*
X60418Y-40359D01*
X60980Y-40096D02*
X61074Y-40359D01*
X61168Y-40096D01*
X61524Y-40359D02*
X61299Y-40359D01*
X61411Y-40359D02*
X61411Y-39965D01*
X61374Y-40021D01*
X61336Y-40059D01*
X61299Y-40078D01*
X51837Y-44770D02*
X51893Y-44789D01*
X51987Y-44789D01*
X52024Y-44770D01*
X52043Y-44751D01*
X52062Y-44714D01*
X52062Y-44676D01*
X52043Y-44639D01*
X52024Y-44620D01*
X51987Y-44601D01*
X51912Y-44583D01*
X51874Y-44564D01*
X51856Y-44545D01*
X51837Y-44508D01*
X51837Y-44470D01*
X51856Y-44433D01*
X51874Y-44414D01*
X51912Y-44395D01*
X52005Y-44395D01*
X52062Y-44414D01*
X52230Y-44583D02*
X52362Y-44583D01*
X52418Y-44789D02*
X52230Y-44789D01*
X52230Y-44395D01*
X52418Y-44395D01*
X52812Y-44789D02*
X52680Y-44601D01*
X52587Y-44789D02*
X52587Y-44395D01*
X52737Y-44395D01*
X52774Y-44414D01*
X52793Y-44433D01*
X52812Y-44470D01*
X52812Y-44526D01*
X52793Y-44564D01*
X52774Y-44583D01*
X52737Y-44601D01*
X52587Y-44601D01*
X52980Y-44789D02*
X52980Y-44395D01*
X53149Y-44676D02*
X53337Y-44676D01*
X53112Y-44789D02*
X53243Y-44395D01*
X53374Y-44789D01*
X53693Y-44789D02*
X53505Y-44789D01*
X53505Y-44395D01*
X54105Y-44376D02*
X53768Y-44883D01*
X54236Y-44789D02*
X54236Y-44395D01*
X54330Y-44395D01*
X54386Y-44414D01*
X54424Y-44451D01*
X54443Y-44489D01*
X54461Y-44564D01*
X54461Y-44620D01*
X54443Y-44695D01*
X54424Y-44733D01*
X54386Y-44770D01*
X54330Y-44789D01*
X54236Y-44789D01*
X55472Y-44789D02*
X55472Y-44395D01*
X55566Y-44395D01*
X55622Y-44414D01*
X55659Y-44451D01*
X55678Y-44489D01*
X55697Y-44564D01*
X55697Y-44620D01*
X55678Y-44695D01*
X55659Y-44733D01*
X55622Y-44770D01*
X55566Y-44789D01*
X55472Y-44789D01*
X56147Y-44376D02*
X55809Y-44883D01*
X56278Y-44789D02*
X56278Y-44395D01*
X56447Y-44433D02*
X56466Y-44414D01*
X56503Y-44395D01*
X56597Y-44395D01*
X56634Y-44414D01*
X56653Y-44433D01*
X56672Y-44470D01*
X56672Y-44508D01*
X56653Y-44564D01*
X56428Y-44789D01*
X56672Y-44789D01*
X57065Y-44751D02*
X57047Y-44770D01*
X56991Y-44789D01*
X56953Y-44789D01*
X56897Y-44770D01*
X56859Y-44733D01*
X56841Y-44695D01*
X56822Y-44620D01*
X56822Y-44564D01*
X56841Y-44489D01*
X56859Y-44451D01*
X56897Y-44414D01*
X56953Y-44395D01*
X56991Y-44395D01*
X57047Y-44414D01*
X57065Y-44433D01*
X58434Y-44676D02*
X58622Y-44676D01*
X58397Y-44789D02*
X58528Y-44395D01*
X58659Y-44789D01*
X59071Y-44376D02*
X58734Y-44883D01*
X59203Y-44789D02*
X59203Y-44395D01*
X59371Y-44433D02*
X59390Y-44414D01*
X59428Y-44395D01*
X59521Y-44395D01*
X59559Y-44414D01*
X59578Y-44433D01*
X59596Y-44470D01*
X59596Y-44508D01*
X59578Y-44564D01*
X59353Y-44789D01*
X59596Y-44789D01*
X59990Y-44751D02*
X59971Y-44770D01*
X59915Y-44789D01*
X59878Y-44789D01*
X59821Y-44770D01*
X59784Y-44733D01*
X59765Y-44695D01*
X59746Y-44620D01*
X59746Y-44564D01*
X59765Y-44489D01*
X59784Y-44451D01*
X59821Y-44414D01*
X59878Y-44395D01*
X59915Y-44395D01*
X59971Y-44414D01*
X59990Y-44433D01*
X61318Y-44676D02*
X61506Y-44676D01*
X61281Y-44789D02*
X61412Y-44395D01*
X61543Y-44789D01*
X61675Y-44789D02*
X61675Y-44395D01*
X61900Y-44789D01*
X61900Y-44395D01*
X62068Y-44676D02*
X62256Y-44676D01*
X62031Y-44789D02*
X62162Y-44395D01*
X62293Y-44789D01*
X62612Y-44789D02*
X62424Y-44789D01*
X62424Y-44395D01*
X62818Y-44395D02*
X62893Y-44395D01*
X62931Y-44414D01*
X62968Y-44451D01*
X62987Y-44526D01*
X62987Y-44658D01*
X62968Y-44733D01*
X62931Y-44770D01*
X62893Y-44789D01*
X62818Y-44789D01*
X62781Y-44770D01*
X62743Y-44733D01*
X62724Y-44658D01*
X62724Y-44526D01*
X62743Y-44451D01*
X62781Y-44414D01*
X62818Y-44395D01*
X63362Y-44414D02*
X63324Y-44395D01*
X63268Y-44395D01*
X63212Y-44414D01*
X63174Y-44451D01*
X63156Y-44489D01*
X63137Y-44564D01*
X63137Y-44620D01*
X63156Y-44695D01*
X63174Y-44733D01*
X63212Y-44770D01*
X63268Y-44789D01*
X63306Y-44789D01*
X63362Y-44770D01*
X63381Y-44751D01*
X63381Y-44620D01*
X63306Y-44620D01*
X64516Y-44789D02*
X64516Y-44395D01*
X64610Y-44395D01*
X64666Y-44414D01*
X64703Y-44451D01*
X64722Y-44489D01*
X64741Y-44564D01*
X64741Y-44620D01*
X64722Y-44695D01*
X64703Y-44733D01*
X64666Y-44770D01*
X64610Y-44789D01*
X64516Y-44789D01*
X65191Y-44376D02*
X64853Y-44883D01*
X65322Y-44789D02*
X65322Y-44395D01*
X65472Y-44395D01*
X65509Y-44414D01*
X65528Y-44433D01*
X65547Y-44470D01*
X65547Y-44526D01*
X65528Y-44564D01*
X65509Y-44583D01*
X65472Y-44601D01*
X65322Y-44601D01*
X65678Y-44395D02*
X65772Y-44789D01*
X65847Y-44508D01*
X65922Y-44789D01*
X66016Y-44395D01*
X66166Y-44789D02*
X66166Y-44395D01*
X66297Y-44676D01*
X66428Y-44395D01*
X66428Y-44789D01*
X64371Y-42249D02*
X63978Y-42249D01*
X63978Y-42155D01*
X63997Y-42099D01*
X64034Y-42062D01*
X64071Y-42043D01*
X64146Y-42024D01*
X64203Y-42024D01*
X64278Y-42043D01*
X64315Y-42062D01*
X64353Y-42099D01*
X64371Y-42155D01*
X64371Y-42249D01*
X64371Y-41649D02*
X64371Y-41874D01*
X64371Y-41762D02*
X63978Y-41762D01*
X64034Y-41799D01*
X64071Y-41837D01*
X64090Y-41874D01*
X63978Y-41406D02*
X63978Y-41368D01*
X63997Y-41331D01*
X64015Y-41312D01*
X64053Y-41293D01*
X64128Y-41274D01*
X64221Y-41274D01*
X64296Y-41293D01*
X64334Y-41312D01*
X64353Y-41331D01*
X64371Y-41368D01*
X64371Y-41406D01*
X64353Y-41443D01*
X64334Y-41462D01*
X64296Y-41481D01*
X64221Y-41499D01*
X64128Y-41499D01*
X64053Y-41481D01*
X64015Y-41462D01*
X63997Y-41443D01*
X63978Y-41406D01*
X64371Y-41117D02*
X63978Y-41117D01*
X63978Y-41023D01*
X63997Y-40967D01*
X64034Y-40929D01*
X64071Y-40911D01*
X64146Y-40892D01*
X64203Y-40892D01*
X64278Y-40911D01*
X64315Y-40929D01*
X64353Y-40967D01*
X64371Y-41023D01*
X64371Y-41117D01*
X64371Y-40704D02*
X64371Y-40629D01*
X64353Y-40592D01*
X64334Y-40573D01*
X64278Y-40536D01*
X64203Y-40517D01*
X64053Y-40517D01*
X64015Y-40536D01*
X63997Y-40554D01*
X63978Y-40592D01*
X63978Y-40667D01*
X63997Y-40704D01*
X64015Y-40723D01*
X64053Y-40742D01*
X64146Y-40742D01*
X64184Y-40723D01*
X64203Y-40704D01*
X64221Y-40667D01*
X64221Y-40592D01*
X64203Y-40554D01*
X64184Y-40536D01*
X64146Y-40517D01*
X61149Y-42052D02*
X61149Y-41865D01*
X61261Y-42090D02*
X60868Y-41959D01*
X61261Y-41827D01*
X61261Y-41490D02*
X61261Y-41715D01*
X61261Y-41602D02*
X60868Y-41602D01*
X60924Y-41640D01*
X60961Y-41677D01*
X60980Y-41715D01*
X61149Y-41107D02*
X61149Y-40920D01*
X61261Y-41145D02*
X60868Y-41014D01*
X61261Y-40883D01*
X60868Y-40676D02*
X60868Y-40639D01*
X60886Y-40601D01*
X60905Y-40583D01*
X60943Y-40564D01*
X61017Y-40545D01*
X61111Y-40545D01*
X61186Y-40564D01*
X61224Y-40583D01*
X61242Y-40601D01*
X61261Y-40639D01*
X61261Y-40676D01*
X61242Y-40714D01*
X61224Y-40733D01*
X61186Y-40751D01*
X61111Y-40770D01*
X61017Y-40770D01*
X60943Y-40751D01*
X60905Y-40733D01*
X60886Y-40714D01*
X60868Y-40676D01*
X58078Y-42052D02*
X58078Y-41865D01*
X58190Y-42090D02*
X57797Y-41959D01*
X58190Y-41827D01*
X57797Y-41509D02*
X57797Y-41696D01*
X57984Y-41715D01*
X57965Y-41696D01*
X57947Y-41659D01*
X57947Y-41565D01*
X57965Y-41527D01*
X57984Y-41509D01*
X58022Y-41490D01*
X58115Y-41490D01*
X58153Y-41509D01*
X58172Y-41527D01*
X58190Y-41565D01*
X58190Y-41659D01*
X58172Y-41696D01*
X58153Y-41715D01*
X58078Y-41107D02*
X58078Y-40920D01*
X58190Y-41145D02*
X57797Y-41014D01*
X58190Y-40883D01*
X57928Y-40583D02*
X58190Y-40583D01*
X57778Y-40676D02*
X58059Y-40770D01*
X58059Y-40526D01*
X55080Y-41117D02*
X54686Y-41117D01*
X54686Y-41023D01*
X54705Y-40967D01*
X54743Y-40929D01*
X54780Y-40911D01*
X54855Y-40892D01*
X54911Y-40892D01*
X54986Y-40911D01*
X55024Y-40929D01*
X55061Y-40967D01*
X55080Y-41023D01*
X55080Y-41117D01*
X54686Y-40761D02*
X54686Y-40517D01*
X54836Y-40648D01*
X54836Y-40592D01*
X54855Y-40554D01*
X54874Y-40536D01*
X54911Y-40517D01*
X55005Y-40517D01*
X55043Y-40536D01*
X55061Y-40554D01*
X55080Y-40592D01*
X55080Y-40704D01*
X55061Y-40742D01*
X55043Y-40761D01*
X55080Y-42062D02*
X54686Y-42062D01*
X54686Y-41968D01*
X54705Y-41912D01*
X54743Y-41874D01*
X54780Y-41856D01*
X54855Y-41837D01*
X54911Y-41837D01*
X54986Y-41856D01*
X55024Y-41874D01*
X55061Y-41912D01*
X55080Y-41968D01*
X55080Y-42062D01*
X54724Y-41687D02*
X54705Y-41668D01*
X54686Y-41631D01*
X54686Y-41537D01*
X54705Y-41499D01*
X54724Y-41481D01*
X54761Y-41462D01*
X54799Y-41462D01*
X54855Y-41481D01*
X55080Y-41706D01*
X55080Y-41462D01*
G54D13*
X63997Y-43755D02*
X63978Y-43792D01*
X63978Y-43848D01*
X63997Y-43905D01*
X64034Y-43942D01*
X64071Y-43961D01*
X64146Y-43980D01*
X64203Y-43980D01*
X64278Y-43961D01*
X64315Y-43942D01*
X64353Y-43905D01*
X64371Y-43848D01*
X64371Y-43811D01*
X64353Y-43755D01*
X64334Y-43736D01*
X64203Y-43736D01*
X64203Y-43811D01*
X60886Y-43755D02*
X60868Y-43792D01*
X60868Y-43848D01*
X60886Y-43905D01*
X60924Y-43942D01*
X60961Y-43961D01*
X61036Y-43980D01*
X61092Y-43980D01*
X61167Y-43961D01*
X61205Y-43942D01*
X61242Y-43905D01*
X61261Y-43848D01*
X61261Y-43811D01*
X61242Y-43755D01*
X61224Y-43736D01*
X61092Y-43736D01*
X61092Y-43811D01*
X57815Y-43755D02*
X57797Y-43792D01*
X57797Y-43848D01*
X57815Y-43905D01*
X57853Y-43942D01*
X57890Y-43961D01*
X57965Y-43980D01*
X58022Y-43980D01*
X58097Y-43961D01*
X58134Y-43942D01*
X58172Y-43905D01*
X58190Y-43848D01*
X58190Y-43811D01*
X58172Y-43755D01*
X58153Y-43736D01*
X58022Y-43736D01*
X58022Y-43811D01*
X54705Y-43755D02*
X54686Y-43792D01*
X54686Y-43848D01*
X54705Y-43905D01*
X54743Y-43942D01*
X54780Y-43961D01*
X54855Y-43980D01*
X54911Y-43980D01*
X54986Y-43961D01*
X55024Y-43942D01*
X55061Y-43905D01*
X55080Y-43848D01*
X55080Y-43811D01*
X55061Y-43755D01*
X55043Y-43736D01*
X54911Y-43736D01*
X54911Y-43811D01*
X51674Y-43755D02*
X51655Y-43792D01*
X51655Y-43848D01*
X51674Y-43905D01*
X51711Y-43942D01*
X51749Y-43961D01*
X51824Y-43980D01*
X51880Y-43980D01*
X51955Y-43961D01*
X51992Y-43942D01*
X52030Y-43905D01*
X52049Y-43848D01*
X52049Y-43811D01*
X52030Y-43755D01*
X52011Y-43736D01*
X51880Y-43736D01*
X51880Y-43811D01*
X51655Y-42071D02*
X51655Y-41846D01*
X52049Y-41959D02*
X51655Y-41959D01*
X51655Y-41752D02*
X52049Y-41490D01*
X51655Y-41490D02*
X52049Y-41752D01*
X52049Y-40892D02*
X51861Y-41023D01*
X52049Y-41117D02*
X51655Y-41117D01*
X51655Y-40967D01*
X51674Y-40929D01*
X51692Y-40911D01*
X51730Y-40892D01*
X51786Y-40892D01*
X51824Y-40911D01*
X51842Y-40929D01*
X51861Y-40967D01*
X51861Y-41117D01*
X51655Y-40761D02*
X52049Y-40498D01*
X51655Y-40498D02*
X52049Y-40761D01*
X63978Y-43398D02*
X64371Y-43267D01*
X63978Y-43136D01*
X64334Y-42780D02*
X64353Y-42799D01*
X64371Y-42855D01*
X64371Y-42892D01*
X64353Y-42949D01*
X64315Y-42986D01*
X64278Y-43005D01*
X64203Y-43023D01*
X64146Y-43023D01*
X64071Y-43005D01*
X64034Y-42986D01*
X63997Y-42949D01*
X63978Y-42892D01*
X63978Y-42855D01*
X63997Y-42799D01*
X64015Y-42780D01*
X64334Y-42386D02*
X64353Y-42405D01*
X64371Y-42461D01*
X64371Y-42499D01*
X64353Y-42555D01*
X64315Y-42592D01*
X64278Y-42611D01*
X64203Y-42630D01*
X64146Y-42630D01*
X64071Y-42611D01*
X64034Y-42592D01*
X63997Y-42555D01*
X63978Y-42499D01*
X63978Y-42461D01*
X63997Y-42405D01*
X64015Y-42386D01*
X60868Y-43398D02*
X61261Y-43267D01*
X60868Y-43136D01*
X61224Y-42780D02*
X61242Y-42799D01*
X61261Y-42855D01*
X61261Y-42892D01*
X61242Y-42949D01*
X61205Y-42986D01*
X61167Y-43005D01*
X61092Y-43023D01*
X61036Y-43023D01*
X60961Y-43005D01*
X60924Y-42986D01*
X60886Y-42949D01*
X60868Y-42892D01*
X60868Y-42855D01*
X60886Y-42799D01*
X60905Y-42780D01*
X61224Y-42386D02*
X61242Y-42405D01*
X61261Y-42461D01*
X61261Y-42499D01*
X61242Y-42555D01*
X61205Y-42592D01*
X61167Y-42611D01*
X61092Y-42630D01*
X61036Y-42630D01*
X60961Y-42611D01*
X60924Y-42592D01*
X60886Y-42555D01*
X60868Y-42499D01*
X60868Y-42461D01*
X60886Y-42405D01*
X60905Y-42386D01*
X57797Y-43398D02*
X58190Y-43267D01*
X57797Y-43136D01*
X58153Y-42780D02*
X58172Y-42799D01*
X58190Y-42855D01*
X58190Y-42892D01*
X58172Y-42949D01*
X58134Y-42986D01*
X58097Y-43005D01*
X58022Y-43023D01*
X57965Y-43023D01*
X57890Y-43005D01*
X57853Y-42986D01*
X57815Y-42949D01*
X57797Y-42892D01*
X57797Y-42855D01*
X57815Y-42799D01*
X57834Y-42780D01*
X58153Y-42386D02*
X58172Y-42405D01*
X58190Y-42461D01*
X58190Y-42499D01*
X58172Y-42555D01*
X58134Y-42592D01*
X58097Y-42611D01*
X58022Y-42630D01*
X57965Y-42630D01*
X57890Y-42611D01*
X57853Y-42592D01*
X57815Y-42555D01*
X57797Y-42499D01*
X57797Y-42461D01*
X57815Y-42405D01*
X57834Y-42386D01*
X54686Y-43398D02*
X55080Y-43267D01*
X54686Y-43136D01*
X55043Y-42780D02*
X55061Y-42799D01*
X55080Y-42855D01*
X55080Y-42892D01*
X55061Y-42949D01*
X55024Y-42986D01*
X54986Y-43005D01*
X54911Y-43023D01*
X54855Y-43023D01*
X54780Y-43005D01*
X54743Y-42986D01*
X54705Y-42949D01*
X54686Y-42892D01*
X54686Y-42855D01*
X54705Y-42799D01*
X54724Y-42780D01*
X55043Y-42386D02*
X55061Y-42405D01*
X55080Y-42461D01*
X55080Y-42499D01*
X55061Y-42555D01*
X55024Y-42592D01*
X54986Y-42611D01*
X54911Y-42630D01*
X54855Y-42630D01*
X54780Y-42611D01*
X54743Y-42592D01*
X54705Y-42555D01*
X54686Y-42499D01*
X54686Y-42461D01*
X54705Y-42405D01*
X54724Y-42386D01*
X51655Y-43398D02*
X52049Y-43267D01*
X51655Y-43136D01*
X52011Y-42780D02*
X52030Y-42799D01*
X52049Y-42855D01*
X52049Y-42892D01*
X52030Y-42949D01*
X51992Y-42986D01*
X51955Y-43005D01*
X51880Y-43023D01*
X51824Y-43023D01*
X51749Y-43005D01*
X51711Y-42986D01*
X51674Y-42949D01*
X51655Y-42892D01*
X51655Y-42855D01*
X51674Y-42799D01*
X51692Y-42780D01*
X52011Y-42386D02*
X52030Y-42405D01*
X52049Y-42461D01*
X52049Y-42499D01*
X52030Y-42555D01*
X51992Y-42592D01*
X51955Y-42611D01*
X51880Y-42630D01*
X51824Y-42630D01*
X51749Y-42611D01*
X51711Y-42592D01*
X51674Y-42555D01*
X51655Y-42499D01*
X51655Y-42461D01*
X51674Y-42405D01*
X51692Y-42386D01*
G54D10*
X55255Y-44330D02*
X57263Y-44330D01*
X57263Y-44330D02*
X57263Y-40393D01*
X57263Y-40393D02*
X55255Y-40393D01*
X55255Y-40393D02*
X55255Y-41181D01*
X55255Y-41181D02*
X55570Y-41181D01*
X55570Y-41181D02*
X55570Y-41673D01*
X55570Y-41673D02*
X55255Y-41673D01*
X55255Y-41673D02*
X55255Y-43051D01*
X55255Y-43051D02*
X55570Y-43051D01*
X55570Y-43051D02*
X55570Y-43543D01*
X55570Y-43543D02*
X55255Y-43543D01*
X55255Y-43543D02*
X55255Y-44330D01*
X52185Y-44338D02*
X54192Y-44338D01*
X54192Y-44338D02*
X54192Y-40401D01*
X54192Y-40401D02*
X52185Y-40401D01*
X52185Y-40401D02*
X52185Y-41188D01*
X52185Y-41188D02*
X52500Y-41188D01*
X52500Y-41188D02*
X52500Y-41681D01*
X52500Y-41681D02*
X52185Y-41681D01*
X52185Y-41681D02*
X52185Y-43059D01*
X52185Y-43059D02*
X52500Y-43059D01*
X52500Y-43059D02*
X52500Y-43551D01*
X52500Y-43551D02*
X52185Y-43551D01*
X52185Y-43551D02*
X52185Y-44338D01*
X64468Y-44338D02*
X66476Y-44338D01*
X66476Y-44338D02*
X66476Y-40401D01*
X66476Y-40401D02*
X64468Y-40401D01*
X64468Y-40401D02*
X64468Y-41188D01*
X64468Y-41188D02*
X64783Y-41188D01*
X64783Y-41188D02*
X64783Y-41681D01*
X64783Y-41681D02*
X64468Y-41681D01*
X64468Y-41681D02*
X64468Y-43059D01*
X64468Y-43059D02*
X64783Y-43059D01*
X64783Y-43059D02*
X64783Y-43551D01*
X64783Y-43551D02*
X64468Y-43551D01*
X64468Y-43551D02*
X64468Y-44338D01*
X61397Y-44338D02*
X63405Y-44338D01*
X63405Y-44338D02*
X63405Y-40401D01*
X63405Y-40401D02*
X61397Y-40401D01*
X61397Y-40401D02*
X61397Y-41188D01*
X61397Y-41188D02*
X61712Y-41188D01*
X61712Y-41188D02*
X61712Y-41681D01*
X61712Y-41681D02*
X61397Y-41681D01*
X61397Y-41681D02*
X61397Y-43059D01*
X61397Y-43059D02*
X61712Y-43059D01*
X61712Y-43059D02*
X61712Y-43551D01*
X61712Y-43551D02*
X61397Y-43551D01*
X61397Y-43551D02*
X61397Y-44338D01*
X58326Y-44338D02*
X60334Y-44338D01*
X60334Y-44338D02*
X60334Y-40401D01*
X60334Y-40401D02*
X58326Y-40401D01*
X58326Y-40401D02*
X58326Y-41188D01*
X58326Y-41188D02*
X58641Y-41188D01*
X58641Y-41188D02*
X58641Y-41681D01*
X58641Y-41681D02*
X58326Y-41681D01*
X58326Y-41681D02*
X58326Y-43059D01*
X58326Y-43059D02*
X58641Y-43059D01*
X58641Y-43059D02*
X58641Y-43551D01*
X58641Y-43551D02*
X58326Y-43551D01*
X58326Y-43551D02*
X58326Y-44338D01*
M02*
