M48
INCH,TZ
T1C0.012
T2C0.031
T3C0.040
%
G90
G05
T1
X052559Y-040433
X056535Y-040315
X057559Y-041654
X060709Y-040157
X063858Y-040118
X066024Y-040118
T2
X053346Y-041189
X053346Y-041976
X053346Y-042764
X053346Y-043551
X056417Y-041181
X056417Y-041969
X056417Y-042756
X056417Y-043543
X059488Y-041189
X059488Y-041976
X059488Y-042764
X059488Y-043551
X062559Y-041189
X062559Y-041976
X062559Y-042764
X062559Y-043551
X065630Y-041189
X065630Y-041976
X065630Y-042764
X065630Y-043551
T3
X052055Y-039370
X052055Y-045370
X053055Y-039370
X053055Y-045370
X054055Y-039370
X054055Y-045370
X055055Y-039370
X055055Y-045370
X056055Y-039370
X056055Y-045370
X057055Y-039370
X057055Y-045370
X058055Y-039370
X058055Y-045370
X059055Y-039370
X059055Y-045370
X060055Y-039370
X060055Y-045370
X061055Y-039370
X061055Y-045370
X062055Y-039370
X062055Y-045370
X063055Y-039370
X063055Y-045370
X064055Y-039370
X064055Y-045370
X065055Y-039370
X065055Y-045370
X066055Y-039370
X066055Y-045370
T0
M30
