G04 (created by PCBNEW (2013-may-18)-stable) date Mon 21 Sep 2015 01:58:13 PM CST*
%MOIN*%
G04 Gerber Fmt 3.4, Leading zero omitted, Abs format*
%FSLAX34Y34*%
G01*
G70*
G90*
G04 APERTURE LIST*
%ADD10C,0.00590551*%
%ADD11R,0.0511811X0.0511811*%
%ADD12C,0.0511811*%
%ADD13R,0.06X0.06*%
%ADD14C,0.06*%
%ADD15R,0.055X0.035*%
%ADD16C,0.018*%
%ADD17C,0.01*%
%ADD18C,0.02*%
G04 APERTURE END LIST*
G54D10*
G54D11*
X56417Y-43543D03*
G54D12*
X56417Y-42755D03*
X56417Y-41968D03*
X56417Y-41181D03*
G54D11*
X53346Y-43551D03*
G54D12*
X53346Y-42763D03*
X53346Y-41976D03*
X53346Y-41188D03*
G54D11*
X65629Y-43551D03*
G54D12*
X65629Y-42763D03*
X65629Y-41976D03*
X65629Y-41188D03*
G54D13*
X52055Y-39370D03*
G54D14*
X53055Y-39370D03*
X54055Y-39370D03*
X55055Y-39370D03*
X56055Y-39370D03*
X57055Y-39370D03*
X58055Y-39370D03*
X59055Y-39370D03*
X60055Y-39370D03*
X61055Y-39370D03*
X62055Y-39370D03*
X63055Y-39370D03*
X64055Y-39370D03*
X65055Y-39370D03*
X66055Y-39370D03*
G54D13*
X52055Y-45370D03*
G54D14*
X53055Y-45370D03*
X54055Y-45370D03*
X55055Y-45370D03*
X56055Y-45370D03*
X57055Y-45370D03*
X58055Y-45370D03*
X59055Y-45370D03*
X60055Y-45370D03*
X61055Y-45370D03*
X62055Y-45370D03*
X63055Y-45370D03*
X64055Y-45370D03*
X65055Y-45370D03*
X66055Y-45370D03*
G54D11*
X62559Y-43551D03*
G54D12*
X62559Y-42763D03*
X62559Y-41976D03*
X62559Y-41188D03*
G54D11*
X59488Y-43551D03*
G54D12*
X59488Y-42763D03*
X59488Y-41976D03*
X59488Y-41188D03*
G54D15*
X54724Y-42776D03*
X54724Y-42026D03*
G54D16*
X66023Y-40118D03*
X63858Y-40118D03*
X60708Y-40157D03*
X57559Y-41653D03*
X56535Y-40314D03*
X52559Y-40433D03*
G54D17*
X64055Y-39370D02*
X64055Y-39606D01*
X66181Y-41425D02*
X65629Y-41976D01*
X66181Y-40787D02*
X66181Y-41425D01*
X65787Y-40393D02*
X66181Y-40787D01*
X64842Y-40393D02*
X65787Y-40393D01*
X64055Y-39606D02*
X64842Y-40393D01*
X63055Y-39370D02*
X63055Y-39944D01*
X64299Y-41188D02*
X65629Y-41188D01*
X63055Y-39944D02*
X64299Y-41188D01*
X53055Y-39370D02*
X53055Y-39866D01*
X53346Y-40157D02*
X53346Y-41188D01*
X53055Y-39866D02*
X53346Y-40157D01*
X57055Y-39370D02*
X57055Y-40543D01*
X57055Y-40543D02*
X56417Y-41181D01*
X56055Y-39370D02*
X56055Y-39771D01*
X55787Y-41338D02*
X56417Y-41968D01*
X55787Y-40039D02*
X55787Y-41338D01*
X56055Y-39771D02*
X55787Y-40039D01*
X52055Y-39370D02*
X52055Y-40685D01*
X52055Y-40685D02*
X53346Y-41976D01*
X58582Y-40157D02*
X60708Y-40157D01*
X57559Y-41653D02*
X58582Y-40157D01*
X55055Y-39370D02*
X55055Y-40377D01*
X54724Y-40708D02*
X54724Y-42026D01*
X55055Y-40377D02*
X54724Y-40708D01*
X59488Y-43551D02*
X56425Y-43551D01*
X56425Y-43551D02*
X56417Y-43543D01*
X62559Y-43551D02*
X65629Y-43551D01*
X59488Y-43551D02*
X62559Y-43551D01*
G54D18*
X62559Y-42763D02*
X65629Y-42763D01*
X59488Y-42763D02*
X62559Y-42763D01*
X56417Y-42755D02*
X59480Y-42755D01*
X59480Y-42755D02*
X59488Y-42763D01*
X54724Y-42776D02*
X56396Y-42776D01*
X56396Y-42776D02*
X56417Y-42755D01*
X54724Y-42776D02*
X53359Y-42776D01*
X53359Y-42776D02*
X53346Y-42763D01*
X55055Y-45370D02*
X55055Y-44622D01*
X54724Y-44291D02*
X54724Y-42776D01*
X55055Y-44622D02*
X54724Y-44291D01*
G54D10*
G36*
X53046Y-40773D02*
X52917Y-40902D01*
X52852Y-41058D01*
X52355Y-40560D01*
X52355Y-39920D01*
X52404Y-39920D01*
X52496Y-39882D01*
X52566Y-39811D01*
X52605Y-39720D01*
X52605Y-39697D01*
X52743Y-39836D01*
X52755Y-39841D01*
X52755Y-39866D01*
X52777Y-39980D01*
X52842Y-40078D01*
X53046Y-40281D01*
X53046Y-40773D01*
X53046Y-40773D01*
G37*
G54D17*
X53046Y-40773D02*
X52917Y-40902D01*
X52852Y-41058D01*
X52355Y-40560D01*
X52355Y-39920D01*
X52404Y-39920D01*
X52496Y-39882D01*
X52566Y-39811D01*
X52605Y-39720D01*
X52605Y-39697D01*
X52743Y-39836D01*
X52755Y-39841D01*
X52755Y-39866D01*
X52777Y-39980D01*
X52842Y-40078D01*
X53046Y-40281D01*
X53046Y-40773D01*
G54D10*
G36*
X54705Y-44942D02*
X54589Y-45058D01*
X54555Y-45139D01*
X54521Y-45058D01*
X54367Y-44904D01*
X54164Y-44820D01*
X53946Y-44819D01*
X53852Y-44858D01*
X53852Y-43856D01*
X53852Y-43663D01*
X53789Y-43601D01*
X53396Y-43601D01*
X53396Y-43994D01*
X53458Y-44057D01*
X53552Y-44057D01*
X53652Y-44057D01*
X53744Y-44018D01*
X53814Y-43948D01*
X53852Y-43856D01*
X53852Y-44858D01*
X53743Y-44903D01*
X53589Y-45058D01*
X53557Y-45133D01*
X53536Y-45082D01*
X53441Y-45054D01*
X53370Y-45125D01*
X53370Y-44984D01*
X53342Y-44888D01*
X53296Y-44872D01*
X53296Y-43994D01*
X53296Y-43601D01*
X52903Y-43601D01*
X52840Y-43663D01*
X52840Y-43856D01*
X52878Y-43948D01*
X52948Y-44018D01*
X53040Y-44057D01*
X53140Y-44057D01*
X53233Y-44057D01*
X53296Y-43994D01*
X53296Y-44872D01*
X53136Y-44815D01*
X52918Y-44826D01*
X52767Y-44888D01*
X52739Y-44984D01*
X53055Y-45299D01*
X53370Y-44984D01*
X53370Y-45125D01*
X53125Y-45370D01*
X53131Y-45375D01*
X53060Y-45446D01*
X53055Y-45440D01*
X53049Y-45446D01*
X52978Y-45375D01*
X52984Y-45370D01*
X52669Y-45054D01*
X52605Y-45073D01*
X52605Y-45020D01*
X52567Y-44928D01*
X52496Y-44858D01*
X52405Y-44820D01*
X52305Y-44820D01*
X51726Y-44820D01*
X51726Y-39920D01*
X51755Y-39920D01*
X51755Y-40685D01*
X51777Y-40799D01*
X51842Y-40897D01*
X52840Y-41894D01*
X52840Y-42076D01*
X52917Y-42262D01*
X53024Y-42370D01*
X52917Y-42476D01*
X52840Y-42662D01*
X52840Y-42863D01*
X52917Y-43049D01*
X52950Y-43082D01*
X52948Y-43083D01*
X52878Y-43153D01*
X52840Y-43245D01*
X52840Y-43438D01*
X52903Y-43501D01*
X53296Y-43501D01*
X53296Y-43493D01*
X53396Y-43493D01*
X53396Y-43501D01*
X53789Y-43501D01*
X53852Y-43438D01*
X53852Y-43245D01*
X53814Y-43153D01*
X53787Y-43126D01*
X54270Y-43126D01*
X54307Y-43163D01*
X54374Y-43191D01*
X54374Y-44291D01*
X54401Y-44425D01*
X54476Y-44538D01*
X54705Y-44767D01*
X54705Y-44942D01*
X54705Y-44942D01*
G37*
G54D17*
X54705Y-44942D02*
X54589Y-45058D01*
X54555Y-45139D01*
X54521Y-45058D01*
X54367Y-44904D01*
X54164Y-44820D01*
X53946Y-44819D01*
X53852Y-44858D01*
X53852Y-43856D01*
X53852Y-43663D01*
X53789Y-43601D01*
X53396Y-43601D01*
X53396Y-43994D01*
X53458Y-44057D01*
X53552Y-44057D01*
X53652Y-44057D01*
X53744Y-44018D01*
X53814Y-43948D01*
X53852Y-43856D01*
X53852Y-44858D01*
X53743Y-44903D01*
X53589Y-45058D01*
X53557Y-45133D01*
X53536Y-45082D01*
X53441Y-45054D01*
X53370Y-45125D01*
X53370Y-44984D01*
X53342Y-44888D01*
X53296Y-44872D01*
X53296Y-43994D01*
X53296Y-43601D01*
X52903Y-43601D01*
X52840Y-43663D01*
X52840Y-43856D01*
X52878Y-43948D01*
X52948Y-44018D01*
X53040Y-44057D01*
X53140Y-44057D01*
X53233Y-44057D01*
X53296Y-43994D01*
X53296Y-44872D01*
X53136Y-44815D01*
X52918Y-44826D01*
X52767Y-44888D01*
X52739Y-44984D01*
X53055Y-45299D01*
X53370Y-44984D01*
X53370Y-45125D01*
X53125Y-45370D01*
X53131Y-45375D01*
X53060Y-45446D01*
X53055Y-45440D01*
X53049Y-45446D01*
X52978Y-45375D01*
X52984Y-45370D01*
X52669Y-45054D01*
X52605Y-45073D01*
X52605Y-45020D01*
X52567Y-44928D01*
X52496Y-44858D01*
X52405Y-44820D01*
X52305Y-44820D01*
X51726Y-44820D01*
X51726Y-39920D01*
X51755Y-39920D01*
X51755Y-40685D01*
X51777Y-40799D01*
X51842Y-40897D01*
X52840Y-41894D01*
X52840Y-42076D01*
X52917Y-42262D01*
X53024Y-42370D01*
X52917Y-42476D01*
X52840Y-42662D01*
X52840Y-42863D01*
X52917Y-43049D01*
X52950Y-43082D01*
X52948Y-43083D01*
X52878Y-43153D01*
X52840Y-43245D01*
X52840Y-43438D01*
X52903Y-43501D01*
X53296Y-43501D01*
X53296Y-43493D01*
X53396Y-43493D01*
X53396Y-43501D01*
X53789Y-43501D01*
X53852Y-43438D01*
X53852Y-43245D01*
X53814Y-43153D01*
X53787Y-43126D01*
X54270Y-43126D01*
X54307Y-43163D01*
X54374Y-43191D01*
X54374Y-44291D01*
X54401Y-44425D01*
X54476Y-44538D01*
X54705Y-44767D01*
X54705Y-44942D01*
G54D10*
G36*
X56095Y-42362D02*
X56031Y-42426D01*
X55370Y-42426D01*
X55370Y-39755D01*
X55055Y-39440D01*
X54739Y-39755D01*
X54767Y-39851D01*
X54973Y-39924D01*
X55191Y-39913D01*
X55342Y-39851D01*
X55370Y-39755D01*
X55370Y-42426D01*
X55177Y-42426D01*
X55153Y-42401D01*
X55211Y-42343D01*
X55249Y-42251D01*
X55249Y-41802D01*
X55211Y-41710D01*
X55141Y-41639D01*
X55049Y-41601D01*
X54949Y-41601D01*
X54836Y-41601D01*
X54774Y-41664D01*
X54774Y-41976D01*
X55186Y-41976D01*
X55249Y-41914D01*
X55249Y-41802D01*
X55249Y-42251D01*
X55249Y-42139D01*
X55186Y-42076D01*
X54774Y-42076D01*
X54774Y-42084D01*
X54674Y-42084D01*
X54674Y-42076D01*
X54674Y-41976D01*
X54674Y-41664D01*
X54611Y-41601D01*
X54498Y-41601D01*
X54399Y-41601D01*
X54307Y-41639D01*
X54237Y-41710D01*
X54199Y-41802D01*
X54199Y-41914D01*
X54261Y-41976D01*
X54674Y-41976D01*
X54674Y-42076D01*
X54261Y-42076D01*
X54199Y-42139D01*
X54199Y-42251D01*
X54237Y-42343D01*
X54295Y-42401D01*
X54270Y-42426D01*
X53724Y-42426D01*
X53668Y-42370D01*
X53775Y-42263D01*
X53852Y-42077D01*
X53852Y-41876D01*
X53775Y-41690D01*
X53668Y-41582D01*
X53775Y-41475D01*
X53852Y-41290D01*
X53852Y-41088D01*
X53775Y-40902D01*
X53646Y-40773D01*
X53646Y-40157D01*
X53623Y-40042D01*
X53623Y-40042D01*
X53558Y-39945D01*
X53408Y-39794D01*
X53521Y-39682D01*
X53555Y-39600D01*
X53588Y-39681D01*
X53743Y-39836D01*
X53945Y-39919D01*
X54164Y-39920D01*
X54366Y-39836D01*
X54521Y-39682D01*
X54552Y-39606D01*
X54573Y-39657D01*
X54669Y-39685D01*
X54984Y-39370D01*
X54978Y-39364D01*
X55049Y-39293D01*
X55055Y-39299D01*
X55060Y-39293D01*
X55131Y-39364D01*
X55125Y-39370D01*
X55441Y-39685D01*
X55536Y-39657D01*
X55556Y-39602D01*
X55588Y-39681D01*
X55654Y-39747D01*
X55575Y-39827D01*
X55510Y-39924D01*
X55487Y-40039D01*
X55487Y-41338D01*
X55510Y-41453D01*
X55575Y-41550D01*
X55911Y-41886D01*
X55911Y-42068D01*
X55988Y-42254D01*
X56095Y-42362D01*
X56095Y-42362D01*
G37*
G54D17*
X56095Y-42362D02*
X56031Y-42426D01*
X55370Y-42426D01*
X55370Y-39755D01*
X55055Y-39440D01*
X54739Y-39755D01*
X54767Y-39851D01*
X54973Y-39924D01*
X55191Y-39913D01*
X55342Y-39851D01*
X55370Y-39755D01*
X55370Y-42426D01*
X55177Y-42426D01*
X55153Y-42401D01*
X55211Y-42343D01*
X55249Y-42251D01*
X55249Y-41802D01*
X55211Y-41710D01*
X55141Y-41639D01*
X55049Y-41601D01*
X54949Y-41601D01*
X54836Y-41601D01*
X54774Y-41664D01*
X54774Y-41976D01*
X55186Y-41976D01*
X55249Y-41914D01*
X55249Y-41802D01*
X55249Y-42251D01*
X55249Y-42139D01*
X55186Y-42076D01*
X54774Y-42076D01*
X54774Y-42084D01*
X54674Y-42084D01*
X54674Y-42076D01*
X54674Y-41976D01*
X54674Y-41664D01*
X54611Y-41601D01*
X54498Y-41601D01*
X54399Y-41601D01*
X54307Y-41639D01*
X54237Y-41710D01*
X54199Y-41802D01*
X54199Y-41914D01*
X54261Y-41976D01*
X54674Y-41976D01*
X54674Y-42076D01*
X54261Y-42076D01*
X54199Y-42139D01*
X54199Y-42251D01*
X54237Y-42343D01*
X54295Y-42401D01*
X54270Y-42426D01*
X53724Y-42426D01*
X53668Y-42370D01*
X53775Y-42263D01*
X53852Y-42077D01*
X53852Y-41876D01*
X53775Y-41690D01*
X53668Y-41582D01*
X53775Y-41475D01*
X53852Y-41290D01*
X53852Y-41088D01*
X53775Y-40902D01*
X53646Y-40773D01*
X53646Y-40157D01*
X53623Y-40042D01*
X53623Y-40042D01*
X53558Y-39945D01*
X53408Y-39794D01*
X53521Y-39682D01*
X53555Y-39600D01*
X53588Y-39681D01*
X53743Y-39836D01*
X53945Y-39919D01*
X54164Y-39920D01*
X54366Y-39836D01*
X54521Y-39682D01*
X54552Y-39606D01*
X54573Y-39657D01*
X54669Y-39685D01*
X54984Y-39370D01*
X54978Y-39364D01*
X55049Y-39293D01*
X55055Y-39299D01*
X55060Y-39293D01*
X55131Y-39364D01*
X55125Y-39370D01*
X55441Y-39685D01*
X55536Y-39657D01*
X55556Y-39602D01*
X55588Y-39681D01*
X55654Y-39747D01*
X55575Y-39827D01*
X55510Y-39924D01*
X55487Y-40039D01*
X55487Y-41338D01*
X55510Y-41453D01*
X55575Y-41550D01*
X55911Y-41886D01*
X55911Y-42068D01*
X55988Y-42254D01*
X56095Y-42362D01*
G54D10*
G36*
X56755Y-40419D02*
X56498Y-40675D01*
X56317Y-40675D01*
X56131Y-40751D01*
X56087Y-40795D01*
X56087Y-40163D01*
X56267Y-39983D01*
X56267Y-39983D01*
X56332Y-39886D01*
X56340Y-39847D01*
X56366Y-39836D01*
X56521Y-39682D01*
X56555Y-39600D01*
X56588Y-39681D01*
X56743Y-39836D01*
X56755Y-39841D01*
X56755Y-40419D01*
X56755Y-40419D01*
G37*
G54D17*
X56755Y-40419D02*
X56498Y-40675D01*
X56317Y-40675D01*
X56131Y-40751D01*
X56087Y-40795D01*
X56087Y-40163D01*
X56267Y-39983D01*
X56267Y-39983D01*
X56332Y-39886D01*
X56340Y-39847D01*
X56366Y-39836D01*
X56521Y-39682D01*
X56555Y-39600D01*
X56588Y-39681D01*
X56743Y-39836D01*
X56755Y-39841D01*
X56755Y-40419D01*
G54D10*
G36*
X65308Y-42370D02*
X65264Y-42413D01*
X62924Y-42413D01*
X62880Y-42370D01*
X62987Y-42263D01*
X63064Y-42077D01*
X63065Y-41876D01*
X62988Y-41690D01*
X62880Y-41582D01*
X62987Y-41475D01*
X63064Y-41290D01*
X63065Y-41088D01*
X62988Y-40902D01*
X62846Y-40760D01*
X62660Y-40683D01*
X62458Y-40682D01*
X62272Y-40759D01*
X62130Y-40902D01*
X62053Y-41087D01*
X62053Y-41289D01*
X62129Y-41475D01*
X62237Y-41582D01*
X62130Y-41689D01*
X62053Y-41875D01*
X62053Y-42076D01*
X62129Y-42262D01*
X62237Y-42370D01*
X62193Y-42413D01*
X59853Y-42413D01*
X59809Y-42370D01*
X59916Y-42263D01*
X59994Y-42077D01*
X59994Y-41876D01*
X59917Y-41690D01*
X59809Y-41582D01*
X59916Y-41475D01*
X59994Y-41290D01*
X59994Y-41088D01*
X59917Y-40902D01*
X59775Y-40760D01*
X59589Y-40683D01*
X59387Y-40682D01*
X59201Y-40759D01*
X59059Y-40902D01*
X58982Y-41087D01*
X58982Y-41289D01*
X59059Y-41475D01*
X59166Y-41582D01*
X59059Y-41689D01*
X58982Y-41875D01*
X58982Y-42076D01*
X59059Y-42262D01*
X59166Y-42370D01*
X59130Y-42405D01*
X56782Y-42405D01*
X56739Y-42362D01*
X56845Y-42255D01*
X56923Y-42069D01*
X56923Y-41868D01*
X56846Y-41682D01*
X56739Y-41574D01*
X56845Y-41468D01*
X56923Y-41282D01*
X56923Y-41099D01*
X57267Y-40755D01*
X57267Y-40755D01*
X57332Y-40658D01*
X57355Y-40543D01*
X57355Y-40543D01*
X57355Y-39841D01*
X57366Y-39836D01*
X57521Y-39682D01*
X57555Y-39600D01*
X57588Y-39681D01*
X57743Y-39836D01*
X57945Y-39919D01*
X58164Y-39920D01*
X58366Y-39836D01*
X58521Y-39682D01*
X58555Y-39600D01*
X58588Y-39681D01*
X58743Y-39836D01*
X58945Y-39919D01*
X59164Y-39920D01*
X59366Y-39836D01*
X59521Y-39682D01*
X59555Y-39600D01*
X59588Y-39681D01*
X59743Y-39836D01*
X59945Y-39919D01*
X60164Y-39920D01*
X60366Y-39836D01*
X60521Y-39682D01*
X60555Y-39600D01*
X60588Y-39681D01*
X60743Y-39836D01*
X60945Y-39919D01*
X61164Y-39920D01*
X61366Y-39836D01*
X61521Y-39682D01*
X61555Y-39600D01*
X61588Y-39681D01*
X61743Y-39836D01*
X61945Y-39919D01*
X62164Y-39920D01*
X62366Y-39836D01*
X62521Y-39682D01*
X62555Y-39600D01*
X62588Y-39681D01*
X62743Y-39836D01*
X62755Y-39841D01*
X62755Y-39944D01*
X62777Y-40059D01*
X62842Y-40157D01*
X64087Y-41401D01*
X64087Y-41401D01*
X64184Y-41466D01*
X64299Y-41488D01*
X64299Y-41488D01*
X65214Y-41488D01*
X65308Y-41582D01*
X65201Y-41689D01*
X65124Y-41875D01*
X65123Y-42076D01*
X65200Y-42262D01*
X65308Y-42370D01*
X65308Y-42370D01*
G37*
G54D17*
X65308Y-42370D02*
X65264Y-42413D01*
X62924Y-42413D01*
X62880Y-42370D01*
X62987Y-42263D01*
X63064Y-42077D01*
X63065Y-41876D01*
X62988Y-41690D01*
X62880Y-41582D01*
X62987Y-41475D01*
X63064Y-41290D01*
X63065Y-41088D01*
X62988Y-40902D01*
X62846Y-40760D01*
X62660Y-40683D01*
X62458Y-40682D01*
X62272Y-40759D01*
X62130Y-40902D01*
X62053Y-41087D01*
X62053Y-41289D01*
X62129Y-41475D01*
X62237Y-41582D01*
X62130Y-41689D01*
X62053Y-41875D01*
X62053Y-42076D01*
X62129Y-42262D01*
X62237Y-42370D01*
X62193Y-42413D01*
X59853Y-42413D01*
X59809Y-42370D01*
X59916Y-42263D01*
X59994Y-42077D01*
X59994Y-41876D01*
X59917Y-41690D01*
X59809Y-41582D01*
X59916Y-41475D01*
X59994Y-41290D01*
X59994Y-41088D01*
X59917Y-40902D01*
X59775Y-40760D01*
X59589Y-40683D01*
X59387Y-40682D01*
X59201Y-40759D01*
X59059Y-40902D01*
X58982Y-41087D01*
X58982Y-41289D01*
X59059Y-41475D01*
X59166Y-41582D01*
X59059Y-41689D01*
X58982Y-41875D01*
X58982Y-42076D01*
X59059Y-42262D01*
X59166Y-42370D01*
X59130Y-42405D01*
X56782Y-42405D01*
X56739Y-42362D01*
X56845Y-42255D01*
X56923Y-42069D01*
X56923Y-41868D01*
X56846Y-41682D01*
X56739Y-41574D01*
X56845Y-41468D01*
X56923Y-41282D01*
X56923Y-41099D01*
X57267Y-40755D01*
X57267Y-40755D01*
X57332Y-40658D01*
X57355Y-40543D01*
X57355Y-40543D01*
X57355Y-39841D01*
X57366Y-39836D01*
X57521Y-39682D01*
X57555Y-39600D01*
X57588Y-39681D01*
X57743Y-39836D01*
X57945Y-39919D01*
X58164Y-39920D01*
X58366Y-39836D01*
X58521Y-39682D01*
X58555Y-39600D01*
X58588Y-39681D01*
X58743Y-39836D01*
X58945Y-39919D01*
X59164Y-39920D01*
X59366Y-39836D01*
X59521Y-39682D01*
X59555Y-39600D01*
X59588Y-39681D01*
X59743Y-39836D01*
X59945Y-39919D01*
X60164Y-39920D01*
X60366Y-39836D01*
X60521Y-39682D01*
X60555Y-39600D01*
X60588Y-39681D01*
X60743Y-39836D01*
X60945Y-39919D01*
X61164Y-39920D01*
X61366Y-39836D01*
X61521Y-39682D01*
X61555Y-39600D01*
X61588Y-39681D01*
X61743Y-39836D01*
X61945Y-39919D01*
X62164Y-39920D01*
X62366Y-39836D01*
X62521Y-39682D01*
X62555Y-39600D01*
X62588Y-39681D01*
X62743Y-39836D01*
X62755Y-39841D01*
X62755Y-39944D01*
X62777Y-40059D01*
X62842Y-40157D01*
X64087Y-41401D01*
X64087Y-41401D01*
X64184Y-41466D01*
X64299Y-41488D01*
X64299Y-41488D01*
X65214Y-41488D01*
X65308Y-41582D01*
X65201Y-41689D01*
X65124Y-41875D01*
X65123Y-42076D01*
X65200Y-42262D01*
X65308Y-42370D01*
G54D10*
G36*
X65503Y-40693D02*
X65343Y-40759D01*
X65214Y-40888D01*
X64423Y-40888D01*
X63368Y-39834D01*
X63521Y-39682D01*
X63555Y-39600D01*
X63588Y-39681D01*
X63743Y-39836D01*
X63944Y-39919D01*
X64630Y-40605D01*
X64727Y-40670D01*
X64842Y-40693D01*
X65503Y-40693D01*
X65503Y-40693D01*
G37*
G54D17*
X65503Y-40693D02*
X65343Y-40759D01*
X65214Y-40888D01*
X64423Y-40888D01*
X63368Y-39834D01*
X63521Y-39682D01*
X63555Y-39600D01*
X63588Y-39681D01*
X63743Y-39836D01*
X63944Y-39919D01*
X64630Y-40605D01*
X64727Y-40670D01*
X64842Y-40693D01*
X65503Y-40693D01*
G54D10*
G36*
X66383Y-40565D02*
X65999Y-40181D01*
X65902Y-40116D01*
X65787Y-40093D01*
X64966Y-40093D01*
X64531Y-39658D01*
X64555Y-39600D01*
X64588Y-39681D01*
X64743Y-39836D01*
X64945Y-39919D01*
X65164Y-39920D01*
X65366Y-39836D01*
X65521Y-39682D01*
X65555Y-39600D01*
X65588Y-39681D01*
X65743Y-39836D01*
X65945Y-39919D01*
X66164Y-39920D01*
X66366Y-39836D01*
X66383Y-39819D01*
X66383Y-40565D01*
X66383Y-40565D01*
G37*
G54D17*
X66383Y-40565D02*
X65999Y-40181D01*
X65902Y-40116D01*
X65787Y-40093D01*
X64966Y-40093D01*
X64531Y-39658D01*
X64555Y-39600D01*
X64588Y-39681D01*
X64743Y-39836D01*
X64945Y-39919D01*
X65164Y-39920D01*
X65366Y-39836D01*
X65521Y-39682D01*
X65555Y-39600D01*
X65588Y-39681D01*
X65743Y-39836D01*
X65945Y-39919D01*
X66164Y-39920D01*
X66366Y-39836D01*
X66383Y-39819D01*
X66383Y-40565D01*
G54D10*
G36*
X66383Y-44920D02*
X66367Y-44904D01*
X66164Y-44820D01*
X66135Y-44820D01*
X66135Y-43856D01*
X66135Y-43663D01*
X66073Y-43601D01*
X65679Y-43601D01*
X65679Y-43994D01*
X65742Y-44057D01*
X65836Y-44057D01*
X65935Y-44057D01*
X66027Y-44018D01*
X66097Y-43948D01*
X66135Y-43856D01*
X66135Y-44820D01*
X65946Y-44819D01*
X65743Y-44903D01*
X65589Y-45058D01*
X65579Y-45080D01*
X65579Y-43994D01*
X65579Y-43601D01*
X65186Y-43601D01*
X65124Y-43663D01*
X65123Y-43856D01*
X65161Y-43948D01*
X65232Y-44018D01*
X65324Y-44057D01*
X65423Y-44057D01*
X65517Y-44057D01*
X65579Y-43994D01*
X65579Y-45080D01*
X65555Y-45139D01*
X65521Y-45058D01*
X65367Y-44904D01*
X65164Y-44820D01*
X64946Y-44819D01*
X64743Y-44903D01*
X64589Y-45058D01*
X64555Y-45139D01*
X64521Y-45058D01*
X64367Y-44904D01*
X64164Y-44820D01*
X63946Y-44819D01*
X63743Y-44903D01*
X63589Y-45058D01*
X63555Y-45139D01*
X63521Y-45058D01*
X63367Y-44904D01*
X63164Y-44820D01*
X63065Y-44820D01*
X63065Y-43856D01*
X63064Y-43663D01*
X63002Y-43601D01*
X62609Y-43601D01*
X62609Y-43994D01*
X62671Y-44057D01*
X62765Y-44057D01*
X62864Y-44057D01*
X62956Y-44018D01*
X63027Y-43948D01*
X63065Y-43856D01*
X63065Y-44820D01*
X62946Y-44819D01*
X62743Y-44903D01*
X62589Y-45058D01*
X62555Y-45139D01*
X62521Y-45058D01*
X62509Y-45046D01*
X62509Y-43994D01*
X62509Y-43601D01*
X62115Y-43601D01*
X62053Y-43663D01*
X62053Y-43856D01*
X62091Y-43948D01*
X62161Y-44018D01*
X62253Y-44057D01*
X62352Y-44057D01*
X62446Y-44057D01*
X62509Y-43994D01*
X62509Y-45046D01*
X62367Y-44904D01*
X62164Y-44820D01*
X61946Y-44819D01*
X61743Y-44903D01*
X61589Y-45058D01*
X61555Y-45139D01*
X61521Y-45058D01*
X61367Y-44904D01*
X61164Y-44820D01*
X60946Y-44819D01*
X60743Y-44903D01*
X60589Y-45058D01*
X60555Y-45139D01*
X60521Y-45058D01*
X60367Y-44904D01*
X60164Y-44820D01*
X59994Y-44820D01*
X59994Y-43856D01*
X59994Y-43663D01*
X59931Y-43601D01*
X59538Y-43601D01*
X59538Y-43994D01*
X59600Y-44057D01*
X59694Y-44057D01*
X59794Y-44057D01*
X59885Y-44018D01*
X59956Y-43948D01*
X59994Y-43856D01*
X59994Y-44820D01*
X59946Y-44819D01*
X59743Y-44903D01*
X59589Y-45058D01*
X59555Y-45139D01*
X59521Y-45058D01*
X59438Y-44975D01*
X59438Y-43994D01*
X59438Y-43601D01*
X59044Y-43601D01*
X58982Y-43663D01*
X58982Y-43856D01*
X59020Y-43948D01*
X59090Y-44018D01*
X59182Y-44057D01*
X59281Y-44057D01*
X59375Y-44057D01*
X59438Y-43994D01*
X59438Y-44975D01*
X59367Y-44904D01*
X59164Y-44820D01*
X58946Y-44819D01*
X58743Y-44903D01*
X58589Y-45058D01*
X58555Y-45139D01*
X58521Y-45058D01*
X58367Y-44904D01*
X58164Y-44820D01*
X57946Y-44819D01*
X57743Y-44903D01*
X57589Y-45058D01*
X57555Y-45139D01*
X57521Y-45058D01*
X57367Y-44904D01*
X57164Y-44820D01*
X56946Y-44819D01*
X56923Y-44829D01*
X56923Y-43848D01*
X56923Y-43655D01*
X56860Y-43593D01*
X56467Y-43593D01*
X56467Y-43986D01*
X56529Y-44049D01*
X56623Y-44049D01*
X56723Y-44049D01*
X56815Y-44011D01*
X56885Y-43940D01*
X56923Y-43848D01*
X56923Y-44829D01*
X56743Y-44903D01*
X56589Y-45058D01*
X56555Y-45139D01*
X56521Y-45058D01*
X56367Y-44904D01*
X56367Y-43986D01*
X56367Y-43593D01*
X55973Y-43593D01*
X55911Y-43655D01*
X55911Y-43848D01*
X55949Y-43940D01*
X56019Y-44011D01*
X56111Y-44049D01*
X56210Y-44049D01*
X56304Y-44049D01*
X56367Y-43986D01*
X56367Y-44904D01*
X56367Y-44904D01*
X56164Y-44820D01*
X55946Y-44819D01*
X55743Y-44903D01*
X55589Y-45058D01*
X55555Y-45139D01*
X55521Y-45058D01*
X55405Y-44942D01*
X55405Y-44622D01*
X55378Y-44488D01*
X55302Y-44374D01*
X55074Y-44146D01*
X55074Y-43191D01*
X55140Y-43163D01*
X55177Y-43126D01*
X55968Y-43126D01*
X55949Y-43145D01*
X55911Y-43237D01*
X55911Y-43430D01*
X55973Y-43493D01*
X56367Y-43493D01*
X56367Y-43485D01*
X56467Y-43485D01*
X56467Y-43493D01*
X56860Y-43493D01*
X56923Y-43430D01*
X56923Y-43237D01*
X56885Y-43145D01*
X56845Y-43105D01*
X59068Y-43105D01*
X59020Y-43153D01*
X58982Y-43245D01*
X58982Y-43438D01*
X59044Y-43501D01*
X59438Y-43501D01*
X59438Y-43493D01*
X59538Y-43493D01*
X59538Y-43501D01*
X59931Y-43501D01*
X59994Y-43438D01*
X59994Y-43245D01*
X59956Y-43153D01*
X59916Y-43113D01*
X62131Y-43113D01*
X62091Y-43153D01*
X62053Y-43245D01*
X62053Y-43438D01*
X62115Y-43501D01*
X62509Y-43501D01*
X62509Y-43493D01*
X62609Y-43493D01*
X62609Y-43501D01*
X63002Y-43501D01*
X63064Y-43438D01*
X63065Y-43245D01*
X63027Y-43153D01*
X62987Y-43113D01*
X65201Y-43113D01*
X65161Y-43153D01*
X65123Y-43245D01*
X65124Y-43438D01*
X65186Y-43501D01*
X65579Y-43501D01*
X65579Y-43493D01*
X65679Y-43493D01*
X65679Y-43501D01*
X66073Y-43501D01*
X66135Y-43438D01*
X66135Y-43245D01*
X66097Y-43153D01*
X66027Y-43083D01*
X66026Y-43082D01*
X66058Y-43050D01*
X66135Y-42864D01*
X66135Y-42663D01*
X66059Y-42477D01*
X65951Y-42370D01*
X66058Y-42263D01*
X66135Y-42077D01*
X66135Y-41894D01*
X66383Y-41646D01*
X66383Y-44920D01*
X66383Y-44920D01*
G37*
G54D17*
X66383Y-44920D02*
X66367Y-44904D01*
X66164Y-44820D01*
X66135Y-44820D01*
X66135Y-43856D01*
X66135Y-43663D01*
X66073Y-43601D01*
X65679Y-43601D01*
X65679Y-43994D01*
X65742Y-44057D01*
X65836Y-44057D01*
X65935Y-44057D01*
X66027Y-44018D01*
X66097Y-43948D01*
X66135Y-43856D01*
X66135Y-44820D01*
X65946Y-44819D01*
X65743Y-44903D01*
X65589Y-45058D01*
X65579Y-45080D01*
X65579Y-43994D01*
X65579Y-43601D01*
X65186Y-43601D01*
X65124Y-43663D01*
X65123Y-43856D01*
X65161Y-43948D01*
X65232Y-44018D01*
X65324Y-44057D01*
X65423Y-44057D01*
X65517Y-44057D01*
X65579Y-43994D01*
X65579Y-45080D01*
X65555Y-45139D01*
X65521Y-45058D01*
X65367Y-44904D01*
X65164Y-44820D01*
X64946Y-44819D01*
X64743Y-44903D01*
X64589Y-45058D01*
X64555Y-45139D01*
X64521Y-45058D01*
X64367Y-44904D01*
X64164Y-44820D01*
X63946Y-44819D01*
X63743Y-44903D01*
X63589Y-45058D01*
X63555Y-45139D01*
X63521Y-45058D01*
X63367Y-44904D01*
X63164Y-44820D01*
X63065Y-44820D01*
X63065Y-43856D01*
X63064Y-43663D01*
X63002Y-43601D01*
X62609Y-43601D01*
X62609Y-43994D01*
X62671Y-44057D01*
X62765Y-44057D01*
X62864Y-44057D01*
X62956Y-44018D01*
X63027Y-43948D01*
X63065Y-43856D01*
X63065Y-44820D01*
X62946Y-44819D01*
X62743Y-44903D01*
X62589Y-45058D01*
X62555Y-45139D01*
X62521Y-45058D01*
X62509Y-45046D01*
X62509Y-43994D01*
X62509Y-43601D01*
X62115Y-43601D01*
X62053Y-43663D01*
X62053Y-43856D01*
X62091Y-43948D01*
X62161Y-44018D01*
X62253Y-44057D01*
X62352Y-44057D01*
X62446Y-44057D01*
X62509Y-43994D01*
X62509Y-45046D01*
X62367Y-44904D01*
X62164Y-44820D01*
X61946Y-44819D01*
X61743Y-44903D01*
X61589Y-45058D01*
X61555Y-45139D01*
X61521Y-45058D01*
X61367Y-44904D01*
X61164Y-44820D01*
X60946Y-44819D01*
X60743Y-44903D01*
X60589Y-45058D01*
X60555Y-45139D01*
X60521Y-45058D01*
X60367Y-44904D01*
X60164Y-44820D01*
X59994Y-44820D01*
X59994Y-43856D01*
X59994Y-43663D01*
X59931Y-43601D01*
X59538Y-43601D01*
X59538Y-43994D01*
X59600Y-44057D01*
X59694Y-44057D01*
X59794Y-44057D01*
X59885Y-44018D01*
X59956Y-43948D01*
X59994Y-43856D01*
X59994Y-44820D01*
X59946Y-44819D01*
X59743Y-44903D01*
X59589Y-45058D01*
X59555Y-45139D01*
X59521Y-45058D01*
X59438Y-44975D01*
X59438Y-43994D01*
X59438Y-43601D01*
X59044Y-43601D01*
X58982Y-43663D01*
X58982Y-43856D01*
X59020Y-43948D01*
X59090Y-44018D01*
X59182Y-44057D01*
X59281Y-44057D01*
X59375Y-44057D01*
X59438Y-43994D01*
X59438Y-44975D01*
X59367Y-44904D01*
X59164Y-44820D01*
X58946Y-44819D01*
X58743Y-44903D01*
X58589Y-45058D01*
X58555Y-45139D01*
X58521Y-45058D01*
X58367Y-44904D01*
X58164Y-44820D01*
X57946Y-44819D01*
X57743Y-44903D01*
X57589Y-45058D01*
X57555Y-45139D01*
X57521Y-45058D01*
X57367Y-44904D01*
X57164Y-44820D01*
X56946Y-44819D01*
X56923Y-44829D01*
X56923Y-43848D01*
X56923Y-43655D01*
X56860Y-43593D01*
X56467Y-43593D01*
X56467Y-43986D01*
X56529Y-44049D01*
X56623Y-44049D01*
X56723Y-44049D01*
X56815Y-44011D01*
X56885Y-43940D01*
X56923Y-43848D01*
X56923Y-44829D01*
X56743Y-44903D01*
X56589Y-45058D01*
X56555Y-45139D01*
X56521Y-45058D01*
X56367Y-44904D01*
X56367Y-43986D01*
X56367Y-43593D01*
X55973Y-43593D01*
X55911Y-43655D01*
X55911Y-43848D01*
X55949Y-43940D01*
X56019Y-44011D01*
X56111Y-44049D01*
X56210Y-44049D01*
X56304Y-44049D01*
X56367Y-43986D01*
X56367Y-44904D01*
X56367Y-44904D01*
X56164Y-44820D01*
X55946Y-44819D01*
X55743Y-44903D01*
X55589Y-45058D01*
X55555Y-45139D01*
X55521Y-45058D01*
X55405Y-44942D01*
X55405Y-44622D01*
X55378Y-44488D01*
X55302Y-44374D01*
X55074Y-44146D01*
X55074Y-43191D01*
X55140Y-43163D01*
X55177Y-43126D01*
X55968Y-43126D01*
X55949Y-43145D01*
X55911Y-43237D01*
X55911Y-43430D01*
X55973Y-43493D01*
X56367Y-43493D01*
X56367Y-43485D01*
X56467Y-43485D01*
X56467Y-43493D01*
X56860Y-43493D01*
X56923Y-43430D01*
X56923Y-43237D01*
X56885Y-43145D01*
X56845Y-43105D01*
X59068Y-43105D01*
X59020Y-43153D01*
X58982Y-43245D01*
X58982Y-43438D01*
X59044Y-43501D01*
X59438Y-43501D01*
X59438Y-43493D01*
X59538Y-43493D01*
X59538Y-43501D01*
X59931Y-43501D01*
X59994Y-43438D01*
X59994Y-43245D01*
X59956Y-43153D01*
X59916Y-43113D01*
X62131Y-43113D01*
X62091Y-43153D01*
X62053Y-43245D01*
X62053Y-43438D01*
X62115Y-43501D01*
X62509Y-43501D01*
X62509Y-43493D01*
X62609Y-43493D01*
X62609Y-43501D01*
X63002Y-43501D01*
X63064Y-43438D01*
X63065Y-43245D01*
X63027Y-43153D01*
X62987Y-43113D01*
X65201Y-43113D01*
X65161Y-43153D01*
X65123Y-43245D01*
X65124Y-43438D01*
X65186Y-43501D01*
X65579Y-43501D01*
X65579Y-43493D01*
X65679Y-43493D01*
X65679Y-43501D01*
X66073Y-43501D01*
X66135Y-43438D01*
X66135Y-43245D01*
X66097Y-43153D01*
X66027Y-43083D01*
X66026Y-43082D01*
X66058Y-43050D01*
X66135Y-42864D01*
X66135Y-42663D01*
X66059Y-42477D01*
X65951Y-42370D01*
X66058Y-42263D01*
X66135Y-42077D01*
X66135Y-41894D01*
X66383Y-41646D01*
X66383Y-44920D01*
M02*
